<svg xmlns="http://www.w3.org/2000/svg" viewBox="0 0 68.75 40"><defs><style>.cls-1{fill:#fff;fill-rule:evenodd;}</style></defs><g id="Layer_2" data-name="Layer 2"><g id="Layer_1-2" data-name="Layer 1"><path class="cls-1" d="M55.26,0V30.07H48.13V1.5ZM34.94,32.92a3.54,3.54,0,1,1-3.56,3.54A3.55,3.55,0,0,1,34.94,32.92Zm0-24.38a10.92,10.92,0,1,1-11,10.92A11,11,0,0,1,34.94,8.54Zm0,14.46a3.54,3.54,0,1,0-3.56-3.54A3.55,3.55,0,0,0,34.94,23ZM12.5,23a2.22,2.22,0,1,0,0-4.43H7.15V23ZM7.15,7.08V11.5h4a2.21,2.21,0,1,0,0-4.42Zm11.92,7.09a9.2,9.2,0,0,1,2.78,6.62,9.32,9.32,0,0,1-9.36,9.28H0V0H11.1a9.33,9.33,0,0,1,9.37,9.29A9.12,9.12,0,0,1,19.07,14.17ZM68.74,16H65.18v5.55c0,1.68.55,2.92,2,2.92a5.89,5.89,0,0,0,1.6-.21v5.21a7.39,7.39,0,0,1-3.48.89h-.54c-4-.21-6.69-2.69-6.69-7V5l7.13-1.5v5.4h3.57Z"/></g></g></svg>