<svg id="Layer_1" data-name="Layer 1" xmlns="http://www.w3.org/2000/svg" viewBox="0 0 820 360"><defs><style>.cls-1{fill:#fff;}.cls-2{fill:#3381fe;}</style></defs><g id="Layer_2" data-name="Layer 2"><g id="Layer_1-2" data-name="Layer 1-2"><path class="cls-1" d="M456.4,351.72V230.81c0-35.18-11.89-48.13-36.1-48.13-26.77,0-39.08,15.44-39.08,44.89V351.72H310.7V228c0-29.12-11-45.3-35.26-45.3-27.61,0-39.93,17-39.93,48.13V351.72H165V127.28h65.84v23.81h.85c12.32-21,34.76-31.55,65-31.55,30.59,0,53.1,14.56,68,40.05,17-25.49,42.48-40,74.76-40,52.67,0,87.51,30.74,87.51,93.41V351.67Z"/><path class="cls-1" d="M572.41,351.72V127.28h70.47V351.72Z"/><circle class="cls-2" cx="607.63" cy="51.65" r="45.37"/></g></g></svg>