<svg xmlns="http://www.w3.org/2000/svg" viewBox="0 0 50.63 35.74"><defs><style>.cls-1{fill:#f2f2f2;}</style></defs><g id="Layer_2" data-name="Layer 2"><g id="Content"><circle class="cls-1" cx="3" cy="22.83" r="3"/><circle class="cls-1" cx="3" cy="12.91" r="3"/><circle class="cls-1" cx="3" cy="3" r="3"/><circle class="cls-1" cx="14.4" cy="22.83" r="3"/><circle class="cls-1" cx="14.4" cy="12.91" r="3"/><circle class="cls-1" cx="14.4" cy="3" r="3"/><circle class="cls-1" cx="25.7" cy="22.83" r="3"/><circle class="cls-1" cx="3.06" cy="32.74" r="3"/><circle class="cls-1" cx="14.46" cy="32.74" r="3"/><circle class="cls-1" cx="25.75" cy="32.74" r="3"/><circle class="cls-1" cx="25.7" cy="12.91" r="3"/><circle class="cls-1" cx="25.7" cy="3" r="3"/><circle class="cls-1" cx="36.48" cy="22.83" r="3"/><circle class="cls-1" cx="36.53" cy="32.74" r="3"/><circle class="cls-1" cx="36.48" cy="12.91" r="3"/><circle class="cls-1" cx="36.48" cy="3" r="3"/><circle class="cls-1" cx="47.57" cy="22.83" r="3"/><circle class="cls-1" cx="47.63" cy="32.74" r="3"/><circle class="cls-1" cx="47.57" cy="12.91" r="3"/><circle class="cls-1" cx="47.57" cy="3" r="3"/></g></g></svg>