<svg width="120" height="120" viewBox="0 0 120 120" fill="none" xmlns="http://www.w3.org/2000/svg">
<path d="M56.7045 0.000976562C42.4737 0.790117 28.4623 6.62019 17.5864 17.495C-5.86213 40.9449 -5.86213 78.9628 17.5864 102.413C29.3124 114.137 44.6783 120 60.0481 120C75.414 120 90.7838 114.137 102.506 102.413C113.379 91.5382 119.213 77.5289 120 63.2946L56.7045 0.000976562ZM107.205 57.5745C103.36 56.9098 99.5949 55.8331 95.9438 54.3535C89.1214 51.585 82.9946 47.5182 77.7394 42.2632C72.0999 36.6256 67.8448 30.0136 65.0836 22.6107C63.8895 19.4028 63.0033 16.1253 62.4249 12.7946L107.205 57.5745ZM68.9361 45.0664L88.909 80.0154H48.9631L68.9361 45.0664ZM43.2026 80.0154H31.3119L43.9168 59.0044L49.7028 68.6428L43.2026 80.0154ZM98.9687 98.8753C93.7133 104.13 87.5869 108.199 80.7645 110.966C74.1652 113.641 67.2001 114.996 60.0481 114.996C52.8959 114.996 45.927 113.641 39.3317 110.966C32.5055 108.199 26.3825 104.13 21.1273 98.8753C15.8724 93.6183 11.8001 87.4936 9.03521 80.6691C6.35842 74.0735 5.00326 67.1049 5.00326 59.9546C5.00326 52.8024 6.35818 45.8337 9.03521 39.2382C11.8001 32.4139 15.8724 26.2889 21.1273 21.0321C26.0016 16.1562 31.6449 12.2928 37.8959 9.54801C43.272 7.18762 48.9408 5.71738 54.7929 5.16262L56.7336 7.10348C57.4039 17.8608 60.9561 28.4736 67.3904 37.6838L52.5446 63.6626L43.9168 49.2778L22.4715 85.0198H40.3423H65.3616H97.5296L76.2162 47.7235C86.6677 57.2595 99.6683 62.4396 112.895 63.2651L114.84 65.21C114.287 71.0581 112.815 76.7307 110.457 82.103C107.71 88.3561 103.843 93.9992 98.9687 98.8753Z" fill="white"/>
</svg>
