<svg width="120" height="120" viewBox="0 0 120 120" fill="none" xmlns="http://www.w3.org/2000/svg">
<path d="M68.2153 56.9081C68.5692 57.6002 69.2733 58 70.0013 58C70.3052 58 70.6172 57.93 70.9073 57.7821C71.0252 57.7221 82.7973 51.742 88.6032 49.9081C89.6553 49.5741 90.2391 48.45 89.9052 47.3982C89.5731 46.3461 88.4572 45.7601 87.3953 46.0922C81.2793 48.0263 69.5874 53.9662 69.0914 54.2182C68.1073 54.7181 67.7154 55.9223 68.2153 56.9081Z" fill="white"/>
<path d="M70.0012 34.0008C70.3052 34.0008 70.6172 33.9307 70.9073 33.7828C71.0252 33.7228 82.7973 27.7428 88.6032 25.9088C89.6553 25.5748 90.2391 24.4508 89.9051 23.3989C89.573 22.3468 88.4572 21.7609 87.3952 22.093C81.2793 24.027 69.5873 29.967 69.0914 30.2189C68.1075 30.7188 67.7154 31.9228 68.2153 32.9088C68.5692 33.6007 69.2733 34.0008 70.0012 34.0008Z" fill="white"/>
<path d="M117.999 30.0007C116.893 30.0007 115.999 30.8967 115.999 32.0006V110C115.999 113.308 113.307 116 109.999 116H61.9997V111.398C64.9157 110.378 72.5115 108 79.9995 108C97.4214 108 109.251 111.858 109.369 111.898C109.971 112.098 110.643 111.998 111.169 111.622C111.691 111.246 111.999 110.642 111.999 110V22.0009C111.999 21.0629 111.349 20.2508 110.433 20.0488C110.433 20.0488 108.865 19.6988 106.185 19.2067C105.103 19.0067 104.057 19.7267 103.857 20.8107C103.657 21.8987 104.375 22.9407 105.461 23.1406C106.483 23.3286 107.339 23.4945 107.999 23.6267V107.342C103.467 106.154 93.4033 104 79.9993 104C71.2853 104 62.7255 106.862 60.0773 107.832C57.7233 106.792 50.6075 104 41.9994 104C28.2234 104 16.8756 106.272 11.9997 107.426V23.5487C15.9936 22.5666 27.7896 20.0007 41.9994 20.0007C49.2915 20.0007 55.5453 22.2706 57.9994 23.2967V102C57.9994 102.72 58.3873 103.386 59.0133 103.74C59.6393 104.096 60.4113 104.086 61.0294 103.714C61.2274 103.596 81.0432 91.7602 98.631 85.8982C99.449 85.6243 99.9991 84.8623 99.9991 84.0003V2.00086C99.9991 1.34485 99.677 0.73079 99.137 0.356965C98.601 -0.0170942 97.9131 -0.103109 97.2951 0.127045C81.2933 6.12887 65.1016 16.2048 64.9394 16.3049C64.0033 16.8908 63.7174 18.1248 64.3033 19.0609C64.8874 19.997 66.1213 20.2829 67.0593 19.697C67.2072 19.603 81.2933 10.8391 95.999 4.92513V82.5685C82.347 87.3125 68.0931 95.0585 61.9992 98.5263V22.0009C61.9992 21.2429 61.5712 20.5508 60.8932 20.2109C60.5491 20.041 52.3533 16.0009 41.9994 16.0009C23.9276 16.0009 10.0337 19.9109 9.44969 20.0788C8.59165 20.3227 7.99962 21.1088 7.99962 22.0009V110C7.99962 110.626 8.29564 111.218 8.79368 111.596C9.14571 111.862 9.56969 112 9.99977 112C10.1837 112 10.3677 111.974 10.5477 111.922C10.6858 111.884 24.5157 108 41.9994 108C49.3114 108 55.5593 110.276 57.9994 111.298V116H9.99977C6.69182 116 3.99981 113.308 3.99981 110V32.0009C3.99981 30.897 3.1038 30.0009 1.99991 30.0009C0.896009 30.0009 0 30.897 0 32.0009V110C0 115.514 4.4859 120 10 120H109.999C115.513 120 119.999 115.514 119.999 110V32.0009C119.999 30.8967 119.105 30.0007 117.999 30.0007Z" fill="white"/>
<path d="M68.2153 44.9083C68.5692 45.6004 69.2733 46.0003 70.0013 46.0003C70.3052 46.0003 70.6172 45.9302 70.9073 45.7823C71.0252 45.7223 82.7973 39.7423 88.6032 37.9083C89.6553 37.5743 90.2391 36.4503 89.9052 35.3984C89.5731 34.3463 88.4572 33.7604 87.3953 34.0925C81.2793 36.0265 69.5874 41.9665 69.0914 42.2184C68.1073 42.7184 67.7154 43.9226 68.2153 44.9083Z" fill="white"/>
<path d="M68.2153 68.9083C68.5692 69.6005 69.2733 70.0003 70.0013 70.0003C70.3052 70.0003 70.6172 69.9302 70.9073 69.7823C71.0252 69.7223 82.7973 63.7423 88.6032 61.9083C89.6553 61.5743 90.2391 60.4503 89.9052 59.3984C89.5731 58.3463 88.4572 57.7604 87.3953 58.0925C81.2793 60.0265 69.5874 65.9665 69.0914 66.2184C68.1073 66.7184 67.7154 67.9226 68.2153 68.9083Z" fill="white"/>
<path d="M48.4544 37.1169C36.1046 34.2188 22.0705 37.9109 21.4806 38.0689C20.4147 38.3548 19.7807 39.4507 20.0667 40.5188C20.3067 41.4127 21.1145 42.0007 21.9967 42.0007C22.1688 42.0007 22.3427 41.9787 22.5168 41.9328C22.6509 41.8948 36.1627 38.3407 47.5427 41.0107C48.6126 41.2608 49.6947 40.5947 49.9467 39.5187C50.1984 38.4448 49.5304 37.3688 48.4544 37.1169Z" fill="white"/>
<path d="M48.4544 49.1164C36.1046 46.2205 22.0705 49.9105 21.4806 50.0684C20.4147 50.3544 19.7807 51.4505 20.0667 52.5183C20.3067 53.4122 21.1145 54.0003 21.9967 54.0003C22.1688 54.0003 22.3427 53.9783 22.5168 53.9323C22.6509 53.8943 36.1627 50.3403 47.5427 53.0103C48.6126 53.2604 49.6947 52.5943 49.9467 51.5183C50.1984 50.4444 49.5304 49.3684 48.4544 49.1164Z" fill="white"/>
<path d="M68.2153 80.9081C68.5692 81.6002 69.2733 82 70.0013 82C70.3052 82 70.6172 81.93 70.9073 81.7821C71.0252 81.7221 82.7973 75.742 88.6032 73.9081C89.6553 73.5741 90.2391 72.45 89.9052 71.3982C89.5731 70.3463 88.4572 69.7601 87.3953 70.0922C81.2793 72.0263 69.5874 77.9662 69.0914 78.2182C68.1073 78.7181 67.7154 79.9223 68.2153 80.9081Z" fill="white"/>
<path d="M48.4544 61.1165C36.1046 58.2206 22.0705 61.9085 21.4806 62.0686C20.4147 62.3545 19.7807 63.4507 20.0667 64.5185C20.3067 65.4124 21.1145 66.0025 21.9967 66.0025C22.1688 66.0025 22.3427 65.9786 22.5168 65.9324C22.6509 65.8945 36.1627 62.3404 47.5427 65.0104C48.6126 65.2605 49.6947 64.5944 49.9467 63.5184C50.1984 62.4445 49.5304 61.3685 48.4544 61.1165Z" fill="white"/>
<path d="M48.4544 85.1166C36.1046 82.2186 22.0705 85.9107 21.4806 86.0686C20.4147 86.3546 19.7807 87.4507 20.0667 88.5185C20.3067 89.4124 21.1145 90.0026 21.9967 90.0026C22.1688 90.0026 22.3427 89.9787 22.5168 89.9325C22.6509 89.8945 36.1627 86.3405 47.5427 89.0105C48.6126 89.2585 49.6947 88.5945 49.9467 87.5185C50.1984 86.4446 49.5304 85.3686 48.4544 85.1166Z" fill="white"/>
<path d="M48.4544 73.1165C36.1046 70.2185 22.0705 73.9084 21.4806 74.0685C20.4147 74.3544 19.7807 75.4506 20.0667 76.5184C20.3067 77.4123 21.1145 78.0024 21.9967 78.0024C22.1688 78.0024 22.3427 77.9785 22.5168 77.9324C22.6509 77.8944 36.1627 74.3404 47.5427 77.0103C48.6126 77.2604 49.6947 76.5943 49.9467 75.5183C50.1984 74.4444 49.5304 73.3684 48.4544 73.1165Z" fill="white"/>
</svg>
