<svg width="98" height="114" viewBox="0 0 98 114" fill="none" xmlns="http://www.w3.org/2000/svg">
<path d="M87.3535 113.757L14.3805 113.757C13.0903 113.757 11.8529 113.244 10.9405 112.332C10.0282 111.419 9.51563 110.182 9.51563 108.892L9.51563 5.10803C9.51563 3.81779 10.0282 2.58039 10.9405 1.66805C11.8528 0.755711 13.0902 0.243164 14.3805 0.243164L87.3535 0.243161C89.9332 0.245737 92.4065 1.27166 94.2306 3.09578C96.0547 4.9199 97.0806 7.3932 97.0832 9.97289L97.0832 104.027C97.0806 106.607 96.0547 109.08 94.2306 110.904C92.4065 112.728 89.9332 113.754 87.3535 113.757ZM14.3805 3.48641C13.9504 3.48641 13.5379 3.65726 13.2338 3.96137C12.9297 4.26548 12.7589 4.67795 12.7589 5.10803L12.7589 108.892C12.7589 109.322 12.9297 109.734 13.2338 110.038C13.5379 110.343 13.9504 110.513 14.3805 110.513L87.3535 110.513C88.2053 110.513 89.0488 110.346 89.8357 110.02C90.6227 109.694 91.3378 109.216 91.9401 108.614C92.5424 108.011 93.0202 107.296 93.3462 106.509C93.6722 105.722 93.84 104.879 93.84 104.027L93.84 9.97289C93.84 8.25257 93.1566 6.6027 91.9401 5.38625C90.7237 4.1698 89.0738 3.4864 87.3535 3.48641L14.3805 3.48641Z" fill="white"/>
<path d="M30.5943 49.7999C30.1642 49.7999 29.7517 49.6291 29.4476 49.325C29.1435 49.0208 28.9727 48.6084 28.9727 48.1783L28.9727 1.86479C28.9727 1.4347 29.1435 1.02224 29.4476 0.718126C29.7517 0.414013 30.1642 0.243164 30.5943 0.243164C31.0244 0.243164 31.4368 0.414013 31.7409 0.718126C32.045 1.02224 32.2159 1.4347 32.2159 1.86479L32.2159 48.1783C32.2159 48.6084 32.0451 49.0208 31.7409 49.325C31.4368 49.6291 31.0244 49.7999 30.5943 49.7999Z" fill="white"/>
<path d="M30.5943 82.038C30.1642 82.038 29.7517 81.8671 29.4476 81.563C29.1435 81.2589 28.9727 80.8464 28.9727 80.4163L28.9727 75.6001C28.9727 75.1701 29.1435 74.7576 29.4476 74.4535C29.7517 74.1494 30.1642 73.9785 30.5943 73.9785C31.0244 73.9785 31.4368 74.1494 31.7409 74.4535C32.0451 74.7576 32.2159 75.1701 32.2159 75.6001L32.2159 80.4163C32.2159 80.8464 32.0451 81.2589 31.7409 81.563C31.4368 81.8671 31.0244 82.038 30.5943 82.038Z" fill="white"/>
<path d="M30.5943 113.757C30.1642 113.757 29.7517 113.586 29.4476 113.282C29.1435 112.978 28.9727 112.565 28.9727 112.135L28.9727 91.7676C28.9727 91.3375 29.1435 90.9251 29.4476 90.621C29.7517 90.3168 30.1642 90.146 30.5943 90.146C31.0244 90.146 31.4368 90.3168 31.7409 90.621C32.045 90.9251 32.2159 91.3375 32.2159 91.7676L32.2159 112.135C32.2159 112.565 32.045 112.978 31.7409 113.282C31.4368 113.586 31.0244 113.757 30.5943 113.757Z" fill="white"/>
<path d="M30.5943 65.8704C30.1642 65.8704 29.7517 65.6995 29.4476 65.3954C29.1435 65.0913 28.9727 64.6788 28.9727 64.2487L28.9727 59.5298C28.9727 59.0997 29.1435 58.6873 29.4476 58.3832C29.7517 58.0791 30.1642 57.9082 30.5943 57.9082C31.0244 57.9082 31.4368 58.0791 31.7409 58.3832C32.0451 58.6873 32.2159 59.0997 32.2159 59.5298L32.2159 64.2487C32.2159 64.6788 32.0451 65.0913 31.7409 65.3954C31.4368 65.6995 31.0244 65.8704 30.5943 65.8704Z" fill="white"/>
<path d="M11.1361 27.0711C5.40533 27.0711 0.919922 24.2625 0.919922 20.6771C0.919922 17.0917 5.40857 14.2798 11.1361 14.2798C11.5662 14.2798 11.9787 14.4506 12.2828 14.7547C12.5869 15.0589 12.7578 15.4713 12.7578 15.9014C12.7578 16.3315 12.5869 16.744 12.2828 17.0481C11.9787 17.3522 11.5662 17.523 11.1361 17.523C6.87776 17.523 4.16317 19.3911 4.16317 20.6771C4.16317 21.963 6.881 23.8279 11.1361 23.8279C15.3913 23.8279 18.1091 21.9614 18.1091 20.6771C18.1091 20.247 18.28 19.8345 18.5841 19.5304C18.8882 19.2263 19.3007 19.0555 19.7307 19.0555C20.1608 19.0555 20.5733 19.2263 20.8774 19.5304C21.1815 19.8345 21.3524 20.247 21.3524 20.6771C21.3588 24.2625 16.8686 27.0711 11.1361 27.0711Z" fill="white"/>
<path d="M11.1361 45.2354C5.40533 45.2354 0.919922 42.4251 0.919922 38.8381C0.919922 35.251 5.40857 32.4424 11.1361 32.4424C11.5662 32.4424 11.9787 32.6132 12.2828 32.9173C12.5869 33.2215 12.7578 33.6339 12.7578 34.064C12.7578 34.4941 12.5869 34.9065 12.2828 35.2107C11.9787 35.5148 11.5662 35.6856 11.1361 35.6856C6.87776 35.6856 4.16317 37.5521 4.16317 38.8381C4.16317 40.124 6.881 41.9921 11.1361 41.9921C15.3913 41.9921 18.1091 40.124 18.1091 38.8381C18.1091 38.408 18.28 37.9955 18.5841 37.6914C18.8882 37.3873 19.3007 37.2164 19.7307 37.2164C20.1608 37.2164 20.5733 37.3873 20.8774 37.6914C21.1815 37.9955 21.3524 38.408 21.3524 38.8381C21.3588 42.4251 16.8686 45.2354 11.1361 45.2354Z" fill="white"/>
<path d="M11.1361 63.3958C5.40533 63.3958 0.919922 60.5872 0.919922 57.0002C0.919922 53.4131 5.40857 50.6045 11.1361 50.6045C11.5662 50.6045 11.9787 50.7753 12.2828 51.0795C12.5869 51.3836 12.7578 51.796 12.7578 52.2261C12.7578 52.6562 12.5869 53.0687 12.2828 53.3728C11.9787 53.6769 11.5662 53.8477 11.1361 53.8477C6.87776 53.8477 4.16317 55.7142 4.16317 57.0002C4.16317 58.2861 6.881 60.1526 11.1361 60.1526C15.3913 60.1526 18.1091 58.2861 18.1091 57.0002C18.1091 56.5701 18.28 56.1576 18.5841 55.8535C18.8882 55.5494 19.3007 55.3785 19.7307 55.3785C20.1608 55.3785 20.5733 55.5494 20.8774 55.8535C21.1815 56.1576 21.3524 56.5701 21.3524 57.0002C21.3588 60.5872 16.8686 63.3958 11.1361 63.3958Z" fill="white"/>
<path d="M11.1361 81.5576C5.40533 81.5576 0.919922 78.749 0.919922 75.1619C0.919922 71.5749 5.40857 68.7646 11.1361 68.7646C11.5662 68.7646 11.9787 68.9355 12.2828 69.2396C12.5869 69.5437 12.7578 69.9562 12.7578 70.3863C12.7578 70.8164 12.5869 71.2288 12.2828 71.5329C11.9787 71.837 11.5662 72.0079 11.1361 72.0079C6.87776 72.0079 4.16317 73.876 4.16317 75.1619C4.16317 76.4479 6.881 78.3144 11.1361 78.3144C15.3913 78.3144 18.1091 76.4479 18.1091 75.1619C18.1091 74.7319 18.28 74.3194 18.5841 74.0153C18.8882 73.7112 19.3007 73.5403 19.7307 73.5403C20.1608 73.5403 20.5733 73.7112 20.8774 74.0153C21.1815 74.3194 21.3524 74.7319 21.3524 75.1619C21.3588 78.749 16.8686 81.5576 11.1361 81.5576Z" fill="white"/>
<path d="M11.1361 99.7201C5.40533 99.7201 0.919922 96.9098 0.919922 93.3228C0.919922 89.7357 5.40857 86.9287 11.1361 86.9287C11.5662 86.9287 11.9787 87.0996 12.2828 87.4037C12.5869 87.7078 12.7578 88.1203 12.7578 88.5503C12.7578 88.9804 12.5869 89.3929 12.2828 89.697C11.9787 90.0011 11.5662 90.172 11.1361 90.172C6.87776 90.172 4.16317 92.0384 4.16317 93.3228C4.16317 94.6071 6.881 96.4768 11.1361 96.4768C15.3913 96.4768 18.1091 94.6087 18.1091 93.3228C18.1091 92.8927 18.28 92.4802 18.5841 92.1761C18.8882 91.872 19.3007 91.7011 19.7307 91.7011C20.1608 91.7011 20.5733 91.872 20.8774 92.1761C21.1815 92.4802 21.3524 92.8927 21.3524 93.3228C21.3588 96.9098 16.8686 99.7201 11.1361 99.7201Z" fill="white"/>
<path d="M81.7698 27.8106L44.2974 27.8106C43.8673 27.8106 43.4549 27.6398 43.1507 27.3357C42.8466 27.0316 42.6758 26.6191 42.6758 26.189C42.6758 25.7589 42.8466 25.3465 43.1507 25.0423C43.4549 24.7382 43.8673 24.5674 44.2974 24.5674L81.7698 24.5674C82.1999 24.5674 82.6124 24.7382 82.9165 25.0423C83.2206 25.3465 83.3915 25.7589 83.3915 26.189C83.3915 26.6191 83.2206 27.0316 82.9165 27.3357C82.6124 27.6398 82.1999 27.8106 81.7698 27.8106Z" fill="white"/>
<path d="M81.7698 39.1622L44.2974 39.1622C43.8673 39.1622 43.4549 38.9913 43.1507 38.6872C42.8466 38.3831 42.6758 37.9706 42.6758 37.5406C42.6758 37.1105 42.8466 36.698 43.1507 36.3939C43.4549 36.0898 43.8673 35.9189 44.2974 35.9189L81.7698 35.9189C82.1999 35.9189 82.6124 36.0898 82.9165 36.3939C83.2206 36.698 83.3915 37.1105 83.3915 37.5406C83.3915 37.9706 83.2206 38.3831 82.9165 38.6872C82.6124 38.9913 82.1999 39.1622 81.7698 39.1622Z" fill="white"/>
<path d="M81.7698 50.5137L44.2974 50.5137C43.8673 50.5137 43.4549 50.3429 43.1507 50.0388C42.8466 49.7347 42.6758 49.3222 42.6758 48.8921C42.6758 48.462 42.8466 48.0496 43.1507 47.7455C43.4549 47.4414 43.8673 47.2705 44.2974 47.2705L81.7698 47.2705C82.1999 47.2705 82.6124 47.4414 82.9165 47.7455C83.2206 48.0496 83.3915 48.462 83.3915 48.8921C83.3915 49.3222 83.2206 49.7347 82.9165 50.0388C82.6124 50.3429 82.1999 50.5137 81.7698 50.5137Z" fill="white"/>
</svg>
