<svg width="120" height="120" viewBox="0 0 120 120" fill="none" xmlns="http://www.w3.org/2000/svg">
<path d="M106.875 18.75H13.125C5.88797 18.75 0 24.638 0 31.875V88.125C0 95.362 5.88797 101.25 13.125 101.25H106.875C114.112 101.25 120 95.362 120 88.125V31.875C120 24.638 114.112 18.75 106.875 18.75ZM13.125 26.25H106.875C109.976 26.25 112.5 28.7735 112.5 31.875V39.375H7.5V31.875C7.5 28.7735 10.0235 26.25 13.125 26.25ZM106.875 93.75H13.125C10.0235 93.75 7.5 91.2265 7.5 88.125V46.875H112.5V88.125C112.5 91.2265 109.976 93.75 106.875 93.75Z" fill="white"/>
<path d="M26.25 82.5H22.5C20.4291 82.5 18.75 80.8209 18.75 78.75V75C18.75 72.9291 20.4291 71.25 22.5 71.25H26.25C28.3209 71.25 30 72.9291 30 75V78.75C30 80.8209 28.3209 82.5 26.25 82.5Z" fill="white"/>
</svg>
