<svg width="98" height="120" viewBox="0 0 98 120" fill="none" xmlns="http://www.w3.org/2000/svg">
<path d="M92.2656 0H25.4453C24.4844 0 23.6875 0.796875 23.6875 1.75781C23.6875 2.71875 24.4844 3.51562 25.4453 3.51562H92.2656C93.2969 3.51562 94.1172 4.33594 94.1172 5.36719V114.633C94.1172 115.664 93.2969 116.484 92.2656 116.484H5.73438C4.70313 116.484 3.88281 115.664 3.88281 114.633V5.36719C3.88281 4.33594 4.70313 3.51562 5.73438 3.51562H17.2656C18.2266 3.51562 19.0234 2.71875 19.0234 1.75781C19.0234 0.796875 18.2266 0 17.2656 0H5.73438C2.78125 0 0.367188 2.41406 0.367188 5.36719V114.633C0.367188 117.586 2.78125 120 5.73438 120H92.2656C95.2188 120 97.6328 117.586 97.6328 114.633V5.36719C97.6328 2.41406 95.2188 0 92.2656 0V0Z" fill="white"/>
<path d="M88.8438 32.0625C89.8047 32.0625 90.6016 31.2656 90.6016 30.3047V8.78906C90.6016 7.82812 89.8047 7.03125 88.8438 7.03125H9.15625C8.19531 7.03125 7.39844 7.82812 7.39844 8.78906V110.273C7.39844 111.234 8.19531 112.031 9.15625 112.031H32.9922C33.9531 112.031 34.75 111.234 34.75 110.273C34.75 109.312 33.9531 108.516 32.9922 108.516H10.9141V100.664L25.2344 86.3438C25.5156 86.4844 25.7734 86.7656 26.2422 87.2812C27.0391 88.1719 28.2344 89.5078 30.4844 89.5078C32.7344 89.5078 33.9297 88.1719 34.7266 87.2812C35.4766 86.4375 35.7344 86.2266 36.3203 86.2266C36.9297 86.2266 37.1875 86.4375 37.9375 87.2812C38.7344 88.1719 39.9297 89.5078 42.1797 89.5078C44.4297 89.5078 45.625 88.1719 46.4219 87.2812C46.8906 86.7422 47.1719 86.4609 47.4766 86.3203L55.0469 93.8906L49.2344 99.6562C48.5547 100.336 48.5547 101.461 49.2344 102.141C49.9141 102.82 51.0391 102.82 51.7188 102.141L64.2578 89.6016C64.5625 89.7422 64.8203 90.0234 65.3125 90.5625C66.1094 91.4531 67.3047 92.7891 69.5547 92.7891C71.8047 92.7891 73 91.4531 73.7969 90.5625C74.2656 90.0234 74.5469 89.7422 74.8516 89.6016L87.1328 101.883V108.516H41.2422C40.2812 108.516 39.4844 109.312 39.4844 110.273C39.4844 111.234 40.2812 112.031 41.2422 112.031H88.8438C89.8047 112.031 90.6016 111.234 90.6016 110.273V38.4844C90.6016 37.5234 89.8047 36.7266 88.8438 36.7266C87.8828 36.7266 87.0859 37.5234 87.0859 38.4844V96.9141L70.7734 80.6016C70.0938 79.9219 68.9687 79.9219 68.2891 80.6016L57.4609 91.4062L37.5625 71.5078C36.8828 70.8281 35.7578 70.8281 35.0781 71.5078L10.9141 95.6953V10.5469H87.0859V30.3047C87.0859 31.2891 87.8828 32.0625 88.8438 32.0625ZM69.5312 84.3281L72.2969 87.0938C71.8281 87.4688 71.4531 87.8906 71.1484 88.2422C70.3984 89.0859 70.1406 89.2969 69.5547 89.2969C68.9688 89.2969 68.6875 89.0859 67.9609 88.2422C67.6562 87.8906 67.2812 87.4688 66.8125 87.0938L69.5312 84.3281ZM36.3438 75.2578L44.8984 83.8125C44.4297 84.1875 44.0547 84.6094 43.75 84.9609C43 85.8047 42.7422 86.0156 42.1328 86.0156C41.5234 86.0156 41.2656 85.8047 40.5156 84.9609C39.7188 84.0703 38.5234 82.7344 36.2734 82.7344C34.0234 82.7344 32.8281 84.0703 32.0313 84.9609C31.2813 85.8047 31.0234 86.0156 30.4375 86.0156C29.8516 86.0156 29.5703 85.8047 28.8438 84.9609C28.5391 84.6328 28.1875 84.2109 27.7422 83.8594L36.3438 75.2578Z" fill="white"/>
<path d="M74.1953 41.9531C74.1953 38.3906 68.1719 35.4844 62.5234 33.9141C62.1484 29.9062 60.1094 26.9063 56.5469 25.1484C53.6875 23.7422 50.5938 23.5312 49 23.5312C48.8125 23.5312 48.6016 23.5312 48.3438 23.5312C47.3828 23.5547 46.6094 24.375 46.6563 25.3359C46.6797 26.2969 47.5 27.0703 48.4609 27.0234H48.9766C51.8359 27.0234 58.2578 27.7266 58.9844 34.0312C55.9375 35.0156 47.3125 37.2422 38.9688 34.0781C39.2031 31.875 40.0938 30.2109 41.7109 29.0156C42.4844 28.4297 42.6484 27.3281 42.0859 26.5547C41.5 25.7813 40.3984 25.6172 39.625 26.1797C37.1875 27.9609 35.7578 30.6094 35.4531 33.8672C29.8047 35.4375 23.7812 38.3438 23.7812 41.9062C23.7812 45.2109 29.3359 48.4688 36.8125 50.2734C37.7266 54.6094 42.7422 57.8203 48.9766 57.8203C55.2109 57.8203 60.25 54.6094 61.1406 50.2734C68.6406 48.5391 74.1953 45.2578 74.1953 41.9531ZM49 54.375C45.5078 54.375 42.4141 53.0391 41.0078 51.1641C43.5859 51.5625 46.2813 51.7734 49 51.7734C51.7188 51.7734 54.4141 51.5625 56.9922 51.1641C55.5859 53.0391 52.4922 54.375 49 54.375ZM64.4453 45.6797C59.8984 47.3437 54.4141 48.2578 49 48.2578C43.5859 48.2578 38.1016 47.3437 33.5547 45.6797C29.3594 44.1562 27.5781 42.5391 27.3203 41.9531C27.625 41.2266 30.3906 38.8594 37.0234 37.1484C40.9375 38.7656 44.8984 39.3047 48.4375 39.3047C54.4609 39.3047 59.3125 37.7344 60.9297 37.1484C67.5859 38.8594 70.3516 41.2266 70.6562 41.9531C70.4219 42.5391 68.6172 44.1562 64.4453 45.6797Z" fill="white"/>
<path d="M20.7578 57.8906H25.4453C26.4062 57.8906 27.2031 57.0938 27.2031 56.1328C27.2031 55.1719 26.4062 54.375 25.4453 54.375H20.7578C19.7969 54.375 19 55.1719 19 56.1328C19 57.0938 19.7969 57.8906 20.7578 57.8906Z" fill="white"/>
<path d="M50.5234 18.0469H55.2109C56.1719 18.0469 56.9688 17.25 56.9688 16.2891C56.9688 15.3281 56.1719 14.5312 55.2109 14.5312H50.5234C49.5625 14.5312 48.7656 15.3281 48.7656 16.2891C48.7656 17.25 49.5625 18.0469 50.5234 18.0469Z" fill="white"/>
<path d="M59.8984 62.8125H55.2109C54.25 62.8125 53.4531 63.6094 53.4531 64.5703C53.4531 65.5312 54.25 66.3281 55.2109 66.3281H59.8984C60.8594 66.3281 61.6562 65.5312 61.6562 64.5703C61.6562 63.6094 60.8594 62.8125 59.8984 62.8125Z" fill="white"/>
<path d="M71.8516 56.7188H76.5391C77.5 56.7188 78.2969 55.9219 78.2969 54.9609C78.2969 54 77.5 53.2031 76.5391 53.2031H71.8516C70.8906 53.2031 70.0938 54 70.0938 54.9609C70.0938 55.9219 70.8906 56.7188 71.8516 56.7188Z" fill="white"/>
<path d="M80.6406 21.8906C80.6406 20.9297 79.8438 20.1328 78.8828 20.1328H74.1953C73.2344 20.1328 72.4375 20.9297 72.4375 21.8906C72.4375 22.8516 73.2344 23.6484 74.1953 23.6484H78.8828C79.8438 23.6484 80.6406 22.875 80.6406 21.8906Z" fill="white"/>
<path d="M24.625 22.7109C25.5859 22.7109 26.3828 21.9141 26.3828 20.9531C26.3828 19.9922 25.5859 19.1953 24.625 19.1953H19.9375C18.9766 19.1953 18.1797 19.9922 18.1797 20.9531C18.1797 21.9141 18.9766 22.7109 19.9375 22.7109H24.625Z" fill="white"/>
<path d="M49 45.4688C49.9708 45.4688 50.7578 44.6818 50.7578 43.7109C50.7578 42.7401 49.9708 41.9531 49 41.9531C48.0292 41.9531 47.2422 42.7401 47.2422 43.7109C47.2422 44.6818 48.0292 45.4688 49 45.4688Z" fill="white"/>
<path d="M39.7422 44.5312C40.713 44.5312 41.5 43.7443 41.5 42.7734C41.5 41.8026 40.713 41.0156 39.7422 41.0156C38.7714 41.0156 37.9844 41.8026 37.9844 42.7734C37.9844 43.7443 38.7714 44.5312 39.7422 44.5312Z" fill="white"/>
<path d="M58.2578 44.5312C59.2286 44.5312 60.0156 43.7443 60.0156 42.7734C60.0156 41.8026 59.2286 41.0156 58.2578 41.0156C57.287 41.0156 56.5 41.8026 56.5 42.7734C56.5 43.7443 57.287 44.5312 58.2578 44.5312Z" fill="white"/>
</svg>
