<svg width="108" height="120" viewBox="0 0 108 120" fill="none" xmlns="http://www.w3.org/2000/svg">
<path d="M85.6441 58.9345H94.0146C95.9069 58.9345 97.4466 57.3949 97.4466 55.5026V47.1321C97.4466 45.2398 95.9069 43.7002 94.0146 43.7002H85.6441C83.7518 43.7002 82.2122 45.2398 82.2122 47.1321V55.5026C82.2122 57.3949 83.7518 58.9345 85.6441 58.9345ZM85.7278 47.2158H93.9309V55.4189H85.7278V47.2158ZM85.6441 81.2002H94.0146C95.9069 81.2002 97.4466 79.6605 97.4466 77.7682V69.3977C97.4466 67.5054 95.9069 65.9658 94.0146 65.9658H85.6441C83.7518 65.9658 82.2122 67.5054 82.2122 69.3977V77.7682C82.2122 79.6605 83.7518 81.2002 85.6441 81.2002ZM85.7278 69.4814H93.9309V77.6845H85.7278V69.4814ZM61.7576 58.9345H70.128C72.0204 58.9345 73.56 57.3949 73.56 55.5026V47.1321C73.56 45.2398 72.0204 43.7002 70.128 43.7002H61.7576C59.8652 43.7002 58.3256 45.2398 58.3256 47.1321V55.5026C58.3256 57.3949 59.8652 58.9345 61.7576 58.9345ZM61.8412 47.2158H70.0444V55.4189H61.8412V47.2158ZM22.3549 87.1875H13.9845C12.0921 87.1875 10.5525 88.7271 10.5525 90.6195V98.9899C10.5525 100.882 12.0921 102.422 13.9845 102.422H22.3549C24.2473 102.422 25.7869 100.882 25.7869 98.9899V90.6195C25.7869 88.7271 24.2473 87.1875 22.3549 87.1875ZM22.2712 98.9062H14.0681V90.7031H22.2712V98.9062ZM22.3549 43.7002H13.9845C12.0921 43.7002 10.5525 45.2398 10.5525 47.1321V55.5026C10.5525 57.3949 12.0921 58.9345 13.9845 58.9345H22.3549C24.2473 58.9345 25.7869 57.3949 25.7869 55.5026V47.1321C25.7869 45.2395 24.2473 43.7002 22.3549 43.7002ZM22.2712 55.4189H14.0681V47.2158H22.2712V55.4189ZM61.7576 80.6782H70.128C72.0204 80.6782 73.56 79.1386 73.56 77.2463V68.8758C73.56 66.9834 72.0204 65.4438 70.128 65.4438H61.7576C59.8652 65.4438 58.3256 66.9834 58.3256 68.8758V77.2463C58.3256 79.1386 59.8652 80.6782 61.7576 80.6782ZM61.8412 68.9594H70.0444V77.1626H61.8412V68.9594ZM99.1924 8.03297H91.6769V5.34539C91.6769 2.39789 89.2791 0 86.3316 0H85.5244C82.5771 0 80.1792 2.39789 80.1792 5.34539V8.03297H27.8198V5.34539C27.8198 2.39789 25.422 0 22.4745 0H21.6673C18.7198 0 16.3219 2.39789 16.3219 5.34539V8.03297H8.80664C3.95391 8.03297 0.00585938 11.981 0.00585938 16.8337V111.211C0.00585938 116.057 3.94852 120 8.79492 120H99.2046C104.051 120 107.994 116.057 107.994 111.211V16.8337C107.993 11.981 104.045 8.03297 99.1924 8.03297ZM83.6948 5.34539C83.6948 4.33641 84.5156 3.51562 85.5246 3.51562H86.3318C87.3408 3.51562 88.1616 4.33641 88.1616 5.34539V8.03297H83.6948V5.34539ZM19.8377 5.34539C19.8377 4.33641 20.6585 3.51562 21.6675 3.51562H22.4747C23.4837 3.51562 24.3045 4.33641 24.3045 5.34539V8.03297H19.838V5.34539H19.8377ZM104.478 111.211C104.478 114.119 102.112 116.484 99.2044 116.484H8.79469C5.8868 116.484 3.52125 114.119 3.52125 111.211V111.2C4.99406 112.31 6.82476 112.969 8.80664 112.969H80.0761C82.4269 112.969 84.637 112.053 86.2992 110.391L104.478 92.2123V111.211ZM84.5055 107.213C84.6434 106.644 84.7184 106.051 84.7184 105.44V93.7064C84.7184 91.4939 86.5186 89.6937 88.7313 89.6937H100.465C101.075 89.6937 101.669 89.6187 102.237 89.4809L84.5055 107.213ZM104.478 33.1533H29.5777C28.6069 33.1533 27.8198 33.9403 27.8198 34.9111C27.8198 35.8819 28.6069 36.6689 29.5777 36.6689H104.478V82.1653C104.478 84.378 102.678 86.1783 100.465 86.1783H88.7313C84.5801 86.1783 81.2027 89.5556 81.2027 93.7066V105.44C81.2027 107.653 79.4025 109.453 77.19 109.453H8.80664C5.89242 109.453 3.52148 107.082 3.52148 104.168V36.6689H22.5464C23.5172 36.6689 24.3042 35.8819 24.3042 34.9111C24.3042 33.9403 23.5172 33.1533 22.5464 33.1533H3.52125V16.8337C3.52125 13.9195 5.89219 11.5486 8.80641 11.5486H16.3219V16.717C16.3219 19.6645 18.7198 22.0624 21.6673 22.0624C22.638 22.0624 23.4251 21.2754 23.4251 20.3046C23.4251 19.3338 22.638 18.5468 21.6673 18.5468C20.6583 18.5468 19.8375 17.726 19.8375 16.717V11.5486H80.1792V16.717C80.1792 19.6645 82.5771 22.0624 85.5246 22.0624C86.4954 22.0624 87.2824 21.2754 87.2824 20.3046C87.2824 19.3338 86.4954 18.5468 85.5246 18.5468C84.5156 18.5468 83.6948 17.726 83.6948 16.717V11.5486H99.1927C102.107 11.5486 104.478 13.9195 104.478 16.8337V33.1533ZM22.3549 65.4438H13.9845C12.0921 65.4438 10.5525 66.9834 10.5525 68.8758V77.2463C10.5525 79.1386 12.0921 80.6782 13.9845 80.6782H22.3549C24.2473 80.6782 25.7869 79.1386 25.7869 77.2463V68.8758C25.7869 66.9832 24.2473 65.4438 22.3549 65.4438ZM22.2712 77.1626H14.0681V68.9594H22.2712V77.1626ZM37.871 58.9345H46.2415C48.1338 58.9345 49.6734 57.3949 49.6734 55.5026V47.1321C49.6734 45.2398 48.1338 43.7002 46.2415 43.7002H37.871C35.9787 43.7002 34.4391 45.2398 34.4391 47.1321V55.5026C34.4391 57.3949 35.9787 58.9345 37.871 58.9345ZM37.9547 47.2158H46.1578V55.4189H37.9547V47.2158ZM61.8391 98.9062C61.7955 97.9741 61.0261 97.2321 60.0832 97.2321C59.1124 97.2321 58.3254 98.0191 58.3254 98.9899C58.3254 100.882 59.865 102.422 61.7573 102.422H70.1278C72.0201 102.422 73.5598 100.882 73.5598 98.9899V90.6195C73.5598 88.7271 72.0201 87.1875 70.1278 87.1875H61.7573C59.865 87.1875 58.3254 88.7271 58.3254 90.6195V93.0335C58.3254 94.0043 59.1124 94.7913 60.0832 94.7913C61.054 94.7913 61.841 94.0043 61.841 93.0335V90.7031H70.0441V98.9062H61.8391ZM37.871 80.6782H46.2415C48.1338 80.6782 49.6734 79.1386 49.6734 77.2463V68.8758C49.6734 66.9834 48.1338 65.4438 46.2415 65.4438H37.871C35.9787 65.4438 34.4391 66.9834 34.4391 68.8758V77.2463C34.4391 79.1386 35.9787 80.6782 37.871 80.6782ZM37.9547 68.9594H46.1578V77.1626H37.9547V68.9594ZM37.871 102.422H46.2415C48.1338 102.422 49.6734 100.882 49.6734 98.9899V90.6195C49.6734 88.7271 48.1338 87.1875 46.2415 87.1875H37.871C35.9787 87.1875 34.4391 88.7271 34.4391 90.6195V98.9899C34.4391 100.882 35.9787 102.422 37.871 102.422ZM37.9547 90.7031H46.1578V98.9062H37.9547V90.7031Z" fill="white"/>
</svg>
