<svg width="108" height="120" viewBox="0 0 108 120" fill="none" xmlns="http://www.w3.org/2000/svg">
<path d="M107.201 53.4219L58.0173 5.33752L56.1167 1.33759C55.7285 0.520935 54.9045 0 54 0C53.0955 0 52.2715 0.520935 51.8833 1.33759L49.9827 5.33752L0.798706 53.4219C0.348267 53.8623 0.09375 54.4666 0.09375 55.0974C0.09375 55.7281 0.348267 56.3324 0.798706 56.7737L17.6929 73.2898L12.2346 84.776C11.7686 85.7565 12.0368 86.9284 12.8828 87.6086L52.5315 119.483C52.9609 119.828 53.48 120 54 120C54.52 120 55.04 119.828 55.4685 119.483L95.1172 87.6086C95.9632 86.9284 96.2314 85.7565 95.7664 84.776L90.308 73.2898L90.6147 72.9895C91.5403 72.084 91.5577 70.6009 90.6531 69.6753C90.0214 69.0298 89.1105 68.8275 88.3021 69.0692L86.0535 64.3378L98.8572 51.8198L102.224 55.1102C101.498 56.022 101.549 57.3514 102.384 58.2056C103.288 59.1312 104.773 59.1476 105.698 58.2431L107.201 56.7737C107.653 56.3324 107.907 55.7281 107.907 55.0983C107.907 54.4675 107.652 53.8623 107.201 53.4219ZM43.0137 25.4645C44.1828 26.0193 45.5808 25.5222 46.1365 24.353L54 7.80487L86.601 76.4117L54 102.621L21.399 76.4117L26.6981 65.2597C26.8839 65.0098 27.013 64.7314 27.0872 64.4421L37.0829 43.4052C37.6386 42.236 37.1415 40.838 35.9724 40.2823C34.8032 39.7266 33.4052 40.2237 32.8495 41.3937L24.0732 59.8618L12.4955 48.5422L44.1645 17.5809L41.9022 22.3416C41.3474 23.5107 41.8445 24.9088 43.0137 25.4645ZM5.79016 55.0974L9.14282 51.8198L21.9465 64.3369L19.8197 68.8129L5.79016 55.0974ZM54 114.649L17.2626 85.1157L19.3308 80.7632L52.5315 107.454C52.9609 107.799 53.48 107.971 54 107.971C54.52 107.971 55.04 107.799 55.4685 107.454L88.6692 80.7642L90.7374 85.1157L54 114.649ZM83.9268 59.8618L63.8355 17.5809L95.5045 48.5422L83.9268 59.8618Z" fill="white"/>
<path d="M40.4166 30.7188C39.2264 30.2088 37.8485 30.7609 37.3386 31.9511C36.8286 33.1404 37.3798 34.5182 38.569 35.0282C38.8703 35.1573 39.1834 35.2186 39.4919 35.2186C40.401 35.2186 41.2662 34.6858 41.6471 33.7977L41.648 33.7959C42.1579 32.6057 41.6059 31.2287 40.4166 30.7188Z" fill="white"/>
<path d="M94.7834 62.3636C93.9127 63.3212 93.9832 64.8035 94.9408 65.675C95.3904 66.0825 95.9543 66.2839 96.5174 66.2839C97.1546 66.2839 97.79 66.0257 98.2523 65.5167L98.2532 65.5157C99.1239 64.5581 99.0525 63.0768 98.0948 62.2061C97.1372 61.3345 95.654 61.4059 94.7834 62.3636Z" fill="white"/>
</svg>
