<svg width="102" height="120" viewBox="0 0 102 120" fill="none" xmlns="http://www.w3.org/2000/svg">
<path d="M95.8179 15.9035H85.6973V5.78319C85.6976 2.60226 83.0948 0 79.9156 0H6.17944C2.99875 0 0.396484 2.60226 0.396484 5.78319V98.3131C0.396484 101.494 2.99875 104.096 6.17968 104.096H16.3002V114.217C16.3002 117.398 18.9013 120 22.0834 120H71.2385C74.4178 120 78.9171 118.216 81.2318 116.037L97.387 100.831C99.7045 98.6518 101.598 94.2652 101.598 91.0845L101.601 21.6871C101.601 18.506 98.9986 15.9035 95.8179 15.9035ZM16.2997 21.6869V99.7589H6.17944C5.39593 99.7589 4.73382 99.0968 4.73382 98.3133V5.78319C4.73382 4.99968 5.39593 4.33757 6.17944 4.33757H79.9158C80.6979 4.33757 81.3614 4.99968 81.3614 5.78319V15.9037H22.0829C18.9008 15.9037 16.2997 18.506 16.2997 21.6869ZM94.4142 97.6725L78.259 112.878C77.9281 113.189 77.497 113.494 77.0213 113.784V100.482C77.0213 99.4885 77.4218 98.5948 78.0825 97.9299C78.7491 97.2692 79.6425 96.8675 80.6358 96.8675H95.1009C94.8766 97.1722 94.6469 97.4527 94.4142 97.6725ZM97.2607 91.084C97.2607 91.5134 97.1824 92.0108 97.064 92.5297H80.6356C76.2478 92.5383 72.6926 96.0936 72.6837 100.482V115.487C72.1676 115.591 71.6703 115.662 71.2381 115.662H22.0829V115.662C21.2978 115.662 20.6373 115 20.6373 114.217V21.6867C20.6373 20.9032 21.298 20.2411 22.0829 20.2411H95.8176C96.6011 20.2411 97.2633 20.9032 97.2633 21.6867L97.2607 91.084Z" fill="white"/>
<path d="M79.9165 36.1445H37.989C36.7904 36.1445 35.8203 37.1146 35.8203 38.3132C35.8203 39.5118 36.7906 40.4819 37.989 40.4819H79.9165C81.1137 40.4819 82.0852 39.5118 82.0852 38.3132C82.0852 37.1146 81.1137 36.1445 79.9165 36.1445Z" fill="white"/>
<path d="M79.9165 65.0601H37.989C36.7904 65.0601 35.8203 66.0301 35.8203 67.2287C35.8203 68.4273 36.7906 69.3974 37.989 69.3974H79.9165C81.1137 69.3974 82.0852 68.4273 82.0852 67.2287C82.0852 66.0299 81.1137 65.0601 79.9165 65.0601Z" fill="white"/>
<path d="M61.1213 79.5181H37.989C36.7904 79.5181 35.8203 80.4881 35.8203 81.6867C35.8203 82.8853 36.7904 83.8554 37.989 83.8554H61.1213C62.3185 83.8554 63.2885 82.8853 63.2885 81.6867C63.2885 80.4881 62.3185 79.5181 61.1213 79.5181Z" fill="white"/>
<path d="M79.9165 50.6021H37.989C36.7904 50.6021 35.8203 51.5721 35.8203 52.7707C35.8203 53.9693 36.7906 54.9394 37.989 54.9394H79.9165C81.1137 54.9394 82.0852 53.9693 82.0852 52.7707C82.0852 51.5721 81.1137 50.6021 79.9165 50.6021Z" fill="white"/>
</svg>
