<svg width="117" height="109" viewBox="0 0 117 109" fill="none" xmlns="http://www.w3.org/2000/svg">
<path d="M114.375 105H97.5V75H110.625C111.122 75 111.599 74.8025 111.951 74.4508C112.302 74.0992 112.5 73.6223 112.5 73.125V16.875C112.5 16.3777 112.302 15.9008 111.951 15.5492C111.599 15.1975 111.122 15 110.625 15H93.75V11.25H101.25C101.747 11.25 102.224 11.0525 102.576 10.7008C102.927 10.3492 103.125 9.87228 103.125 9.375V1.875C103.125 1.37772 102.927 0.900805 102.576 0.549175C102.224 0.197544 101.747 0 101.25 0H82.5C82.0027 0 81.5258 0.197544 81.1742 0.549175C80.8225 0.900805 80.625 1.37772 80.625 1.875V9.375C80.625 9.87228 80.8225 10.3492 81.1742 10.7008C81.5258 11.0525 82.0027 11.25 82.5 11.25H90V15H60V11.25H67.5C67.9973 11.25 68.4742 11.0525 68.8258 10.7008C69.1775 10.3492 69.375 9.87228 69.375 9.375V1.875C69.375 1.37772 69.1775 0.900805 68.8258 0.549175C68.4742 0.197544 67.9973 0 67.5 0H48.75C48.2527 0 47.7758 0.197544 47.4242 0.549175C47.0725 0.900805 46.875 1.37772 46.875 1.875V9.375C46.875 9.87228 47.0725 10.3492 47.4242 10.7008C47.7758 11.0525 48.2527 11.25 48.75 11.25H56.25V15H26.25V11.25H33.75C34.2473 11.25 34.7242 11.0525 35.0758 10.7008C35.4275 10.3492 35.625 9.87228 35.625 9.375V1.875C35.625 1.37772 35.4275 0.900805 35.0758 0.549175C34.7242 0.197544 34.2473 0 33.75 0H15C14.5027 0 14.0258 0.197544 13.6742 0.549175C13.3225 0.900805 13.125 1.37772 13.125 1.875V9.375C13.125 9.87228 13.3225 10.3492 13.6742 10.7008C14.0258 11.0525 14.5027 11.25 15 11.25H22.5V15H5.625C5.12772 15 4.65081 15.1975 4.29917 15.5492C3.94754 15.9008 3.75 16.3777 3.75 16.875V73.125C3.75 73.6223 3.94754 74.0992 4.29917 74.4508C4.65081 74.8025 5.12772 75 5.625 75H18.75V105H1.875C1.37772 105 0.900805 105.198 0.549175 105.549C0.197544 105.901 0 106.378 0 106.875C0 107.372 0.197544 107.849 0.549175 108.201C0.900805 108.552 1.37772 108.75 1.875 108.75H114.375C114.872 108.75 115.349 108.552 115.701 108.201C116.052 107.849 116.25 107.372 116.25 106.875C116.25 106.378 116.052 105.901 115.701 105.549C115.349 105.198 114.872 105 114.375 105ZM84.375 7.5V3.75H99.375V7.5H84.375ZM50.625 7.5V3.75H65.625V7.5H50.625ZM16.875 7.5V3.75H31.875V7.5H16.875ZM26.25 105H22.5V75H26.25V105ZM86.25 105H30V75H86.25V105ZM93.75 105H90V75H93.75V105ZM7.5 71.25V18.75H108.75V71.25H7.5Z" fill="white"/>
<path d="M76.875 56.25H105C105.497 56.25 105.974 56.0525 106.326 55.7008C106.677 55.3492 106.875 54.8723 106.875 54.375C106.875 53.8777 106.677 53.4008 106.326 53.0492C105.974 52.6975 105.497 52.5 105 52.5H76.875C76.3777 52.5 75.9008 52.6975 75.5492 53.0492C75.1975 53.4008 75 53.8777 75 54.375C75 54.8723 75.1975 55.3492 75.5492 55.7008C75.9008 56.0525 76.3777 56.25 76.875 56.25Z" fill="white"/>
<path d="M105 58.125H82.5C82.0027 58.125 81.5258 58.3225 81.1742 58.6742C80.8225 59.0258 80.625 59.5027 80.625 60C80.625 60.4973 80.8225 60.9742 81.1742 61.3258C81.5258 61.6775 82.0027 61.875 82.5 61.875H105C105.497 61.875 105.974 61.6775 106.326 61.3258C106.677 60.9742 106.875 60.4973 106.875 60C106.875 59.5027 106.677 59.0258 106.326 58.6742C105.974 58.3225 105.497 58.125 105 58.125Z" fill="white"/>
<path d="M105 63.75H95.625C95.1277 63.75 94.6508 63.9475 94.2992 64.2992C93.9475 64.6508 93.75 65.1277 93.75 65.625C93.75 66.1223 93.9475 66.5992 94.2992 66.9508C94.6508 67.3025 95.1277 67.5 95.625 67.5H105C105.497 67.5 105.974 67.3025 106.326 66.9508C106.677 66.5992 106.875 66.1223 106.875 65.625C106.875 65.1277 106.677 64.6508 106.326 64.2992C105.974 63.9475 105.497 63.75 105 63.75Z" fill="white"/>
<path d="M90 63.75H88.125C87.6277 63.75 87.1508 63.9475 86.7992 64.2992C86.4475 64.6508 86.25 65.1277 86.25 65.625C86.25 66.1223 86.4475 66.5992 86.7992 66.9508C87.1508 67.3025 87.6277 67.5 88.125 67.5H90C90.4973 67.5 90.9742 67.3025 91.3258 66.9508C91.6775 66.5992 91.875 66.1223 91.875 65.625C91.875 65.1277 91.6775 64.6508 91.3258 64.2992C90.9742 63.9475 90.4973 63.75 90 63.75Z" fill="white"/>
</svg>
