<svg width="120" height="120" viewBox="0 0 120 120" fill="none" xmlns="http://www.w3.org/2000/svg">
<path d="M120 66.7628C120 61.9223 116.063 57.9832 111.222 57.9832C108.879 57.9832 106.675 58.8971 105.015 60.5557L96.7742 68.7966V0H20.4889L0 20.4889V120H96.7742V93.6253L117.429 72.97C119.086 71.3133 120 69.1085 120 66.7628ZM72.575 100.392L77.6112 105.428L70.562 107.486L72.575 100.392ZM81.2903 103.632L79.1904 101.532L106.823 73.8971L108.925 75.9989L81.2903 103.632ZM76.4516 98.7947L74.3498 96.6929L101.986 69.0584L104.088 71.1602L76.4516 98.7947ZM19.3548 6.60786V19.3548H6.60786L19.3548 6.60786ZM92.9032 116.129H3.87097V23.2258H23.2258V3.87097H92.9032V72.6676L69.8882 95.6808L64.9238 113.162L82.3082 108.091L92.9032 97.4962V116.129ZM114.693 70.2331L111.664 73.262L104.723 66.3215L107.752 63.2926C108.679 62.3655 109.912 61.8542 111.222 61.8542C113.926 61.8542 116.129 64.0571 116.129 66.7628C116.129 68.0746 115.618 69.3079 114.693 70.2331Z" fill="white"/>
<path d="M39.2127 79.9883L30.8829 89.1525C28.4267 86.6888 25.034 85.1615 21.2906 85.1615C13.8218 85.1615 7.74219 91.2411 7.74219 98.7099C7.74219 106.179 13.8218 112.258 21.2906 112.258C28.7594 112.258 34.839 106.179 34.839 98.7099C34.839 96.4011 34.2568 94.2275 33.2324 92.3232L42.0781 82.5929L39.2127 79.9883ZM30.968 98.7099C30.968 104.046 26.6264 108.387 21.2906 108.387C15.9548 108.387 11.6132 104.046 11.6132 98.7099C11.6132 93.3741 15.9548 89.0325 21.2906 89.0325C24.0331 89.0325 26.5007 90.1921 28.2642 92.0321L20.9787 100.047L16.5587 97.1014L14.4115 100.322L21.6043 105.118L30.3717 95.474C30.7336 96.49 30.968 97.5683 30.968 98.7099Z" fill="white"/>
<path d="M30.8829 54.3137C28.4267 51.8499 25.034 50.3227 21.2906 50.3227C13.8218 50.3227 7.74219 56.4022 7.74219 63.8711C7.74219 71.3399 13.8218 77.4194 21.2906 77.4194C28.7594 77.4194 34.839 71.3399 34.839 63.8711C34.839 61.5623 34.2568 59.3886 33.2324 57.4843L42.0781 47.754L39.2127 45.1494L30.8829 54.3137ZM30.968 63.8711C30.968 69.2069 26.6264 73.5485 21.2906 73.5485C15.9548 73.5485 11.6132 69.2069 11.6132 63.8711C11.6132 58.5352 15.9548 54.1936 21.2906 54.1936C24.0331 54.1936 26.5007 55.3532 28.2642 57.1933L20.9787 65.2083L16.5587 62.2626L14.4115 65.4833L21.6043 70.2795L30.3717 60.6352C30.7336 61.6511 30.968 62.7294 30.968 63.8711Z" fill="white"/>
<path d="M85.1621 61.9355H89.0331V65.8065H85.1621V61.9355Z" fill="white"/>
<path d="M42.5801 61.9355H81.2898V65.8065H42.5801V61.9355Z" fill="white"/>
<path d="M42.5801 54.1934H89.0317V58.0643H42.5801V54.1934Z" fill="white"/>
<path d="M42.5801 69.6772H89.0317V73.5482H42.5801V69.6772Z" fill="white"/>
<path d="M42.5801 96.7744H63.8704V100.645H42.5801V96.7744Z" fill="white"/>
<path d="M42.5801 104.516H63.8704V108.387H42.5801V104.516Z" fill="white"/>
<path d="M42.5801 89.0322H63.8704V92.9032H42.5801V89.0322Z" fill="white"/>
<path d="M36.7751 42.5809H79.3557C84.6915 42.5809 89.0331 38.2393 89.0331 32.9035V17.4196C89.0331 12.0838 84.6915 7.74219 79.3557 7.74219H36.7751C31.4393 7.74219 27.0977 12.0838 27.0977 17.4196V32.9035C27.0977 38.2393 31.4393 42.5809 36.7751 42.5809ZM30.9686 17.4196C30.9686 14.2187 33.5742 11.6132 36.7751 11.6132H79.3557C82.5566 11.6132 85.1622 14.2187 85.1622 17.4196V32.9035C85.1622 36.1044 82.5566 38.7099 79.3557 38.7099H36.7751C33.5742 38.7099 30.9686 36.1044 30.9686 32.9035V17.4196Z" fill="white"/>
<path d="M81.2906 19.355H69.6777V30.9679H81.2906V19.355ZM77.4197 27.0969H73.5487V23.2259H77.4197V27.0969Z" fill="white"/>
<path d="M63.8707 19.355H52.2578V30.9679H63.8707V19.355ZM59.9998 27.0969H56.1288V23.2259H59.9998V27.0969Z" fill="white"/>
<path d="M46.4508 19.355H34.8379V30.9679H46.4508V19.355ZM42.5798 27.0969H38.7089V23.2259H42.5798V27.0969Z" fill="white"/>
</svg>
