<svg width="120" height="120" viewBox="0 0 120 120" fill="none" xmlns="http://www.w3.org/2000/svg">
<path d="M115.898 8.18848H4.10156C1.84008 8.18848 0 10.0286 0 12.29V26.7264C0 28.9991 3.51562 28.9991 3.51562 26.7264V12.29C3.51562 11.9671 3.77836 11.7041 4.10156 11.7041H115.898C116.222 11.7041 116.484 11.9671 116.484 12.29V98.0101C116.484 98.3331 116.222 98.5961 115.898 98.5961H93.3722V94.9384H111.052C112.023 94.9384 112.81 94.1514 112.81 93.1806V74.773C112.81 72.5003 109.294 72.5003 109.294 74.773V91.4228H93.3722V83.6235C93.4294 83.6284 93.487 83.6333 93.5412 83.6382C95.0004 83.7664 96.8154 83.9261 98.0728 82.6663C99.3288 81.4079 99.1699 79.5911 99.0422 78.1311C98.9046 76.5643 99.0527 76.1354 100.257 75.1344C103.357 72.5563 103.415 69.7958 100.257 67.1704C99.0527 66.1686 98.9053 65.7402 99.0422 64.1732C99.3862 60.2411 97.5497 58.314 93.5412 58.6663C91.9767 58.8036 91.5523 58.655 90.5548 57.4506C87.9806 54.3428 85.2183 54.2854 82.5963 57.4506C81.5988 58.6548 81.1746 58.8041 79.6102 58.6663C75.6752 58.3206 73.7578 60.1675 74.1089 64.1732C74.2458 65.7404 74.0984 66.1686 72.8941 67.1704C69.7936 69.7482 69.7362 72.5092 72.8941 75.1344C74.0984 76.1361 74.2458 76.5646 74.1089 78.1316C73.7398 82.3431 75.7512 83.9715 79.7784 83.6237V91.4232H10.706V18.8771H109.294V65.398C109.294 67.6707 112.81 67.6707 112.81 65.398V17.1193C112.81 16.1486 112.023 15.3615 111.052 15.3615H8.9482C7.97719 15.3615 7.19039 16.1486 7.19039 17.1193V93.1806C7.19039 94.1514 7.97719 94.9384 8.9482 94.9384H79.7784V98.5961H4.10156C3.77836 98.5961 3.51562 98.3331 3.51562 98.0101V35.6324C3.51562 33.3596 0 33.3596 0 35.6324V98.0101C0 100.272 1.84008 102.112 4.10156 102.112H79.7784V110.069C80.0287 111.513 80.862 112.045 82.2776 111.662L86.5753 109.663L90.873 111.662C91.9364 112.157 93.3722 111.375 93.3722 110.069V102.112H115.898C118.16 102.112 120 100.272 120 98.0101V12.29C120 10.0283 118.16 8.18848 115.898 8.18848ZM79.302 80.1357C77.5423 80.2907 77.457 80.1964 77.6107 78.4377C77.847 75.7384 77.2261 74.1634 75.1413 72.4304C73.7149 71.2443 73.7152 71.0593 75.1413 69.8732C77.2261 68.1402 77.8472 66.5652 77.6107 63.8661C77.457 62.1071 77.5423 62.0139 79.302 62.1678C82.0015 62.4057 83.5744 61.7802 85.3034 59.6926C86.4848 58.2667 86.6655 58.2667 87.847 59.6926C89.5765 61.7802 91.1489 62.4048 93.8484 62.1678C95.6084 62.0129 95.6934 62.1072 95.5397 63.8659C95.3034 66.5652 95.9243 68.14 98.0091 69.8729C99.4352 71.0591 99.4359 71.2445 98.0088 72.4304C95.9241 74.1636 95.303 75.7379 95.5395 78.4372C95.6939 80.196 95.6081 80.2904 93.8487 80.1357C92.7445 80.0387 91.492 79.9286 90.3895 80.3865C89.3224 80.8297 88.5722 81.7351 87.8468 82.611C87.5051 83.0235 86.8814 83.7765 86.5748 83.9113C86.2685 83.7765 85.6448 83.0235 85.3031 82.611C84.5777 81.7353 83.8277 80.8297 82.7604 80.3865C81.6227 80.0396 80.4698 79.956 79.302 80.1357ZM87.3166 106.131C86.8465 105.913 86.3041 105.913 85.834 106.131L83.2941 107.313V85.6684C84.1282 86.5855 85.1573 87.437 86.5753 87.437C87.9933 87.437 89.0224 86.5857 89.8566 85.6686V107.313L87.3166 106.131Z" fill="white"/>
<path d="M22.7946 33.5913H83.3915C85.6643 33.5913 85.6643 30.0757 83.3915 30.0757H22.7946C20.5216 30.0757 20.5216 33.5913 22.7946 33.5913Z" fill="white"/>
<path d="M98.9621 42.5254C98.9621 41.5546 98.1753 40.7676 97.2043 40.7676H22.7963C20.5236 40.7676 20.5236 44.2832 22.7963 44.2832H97.2046C98.1753 44.2832 98.9621 43.4962 98.9621 42.5254Z" fill="white"/>
<path d="M66.8293 53.2163C66.8293 52.2455 66.0425 51.4585 65.0715 51.4585H22.7963C20.5236 51.4585 20.5236 54.9741 22.7963 54.9741H65.0715C66.0423 54.9741 66.8293 54.1871 66.8293 53.2163Z" fill="white"/>
<path d="M43.7472 77.7189C42.7889 77.7205 41.8303 77.7217 40.8719 77.7224C39.0281 77.7238 38.013 77.2323 37.6364 75.2772C37.2925 73.4924 34.7182 73.7198 34.2464 75.2772C34.0375 75.9669 32.9828 77.9416 32.0615 77.7801C31.5733 77.6945 31.36 76.9415 31.1796 76.5515C30.8282 75.7923 30.5723 74.9877 30.3532 74.1815C29.4278 70.7751 29.2432 67.2184 28.6642 63.7478C28.3286 61.7352 25.2609 62.3043 25.2114 64.2151C25.0539 70.3021 24.0588 76.3056 21.8918 82.011C21.0876 84.1281 24.4849 85.0436 25.2817 82.9457C26.1173 80.7458 26.7806 78.4933 27.2953 76.2072C27.5714 77.0402 27.9007 77.8572 28.3026 78.6519C29.3292 80.6807 31.4228 81.8809 33.663 80.9786C34.4625 80.6566 35.1918 80.0936 35.8127 79.4085C37.4758 81.3264 39.9501 81.2394 42.2585 81.2366C45.7382 81.2322 49.218 81.224 52.698 81.2144C54.96 81.208 54.9642 77.6924 52.698 77.6987C49.7144 77.7072 46.7308 77.714 43.7472 77.7189Z" fill="white"/>
<path d="M86.5748 78.0182C90.3606 78.0182 93.4408 74.9383 93.4408 71.1524C93.4408 67.3665 90.3606 64.2866 86.5748 64.2866C82.7891 64.2866 79.709 67.3668 79.709 71.1524C79.709 74.938 82.7889 78.0182 86.5748 78.0182ZM86.5748 67.8022C88.4221 67.8022 89.9252 69.3053 89.9252 71.1524C89.9252 72.9995 88.4221 74.5026 86.5748 74.5026C84.7274 74.5026 83.2246 72.9997 83.2246 71.1524C83.2246 69.3051 84.7274 67.8022 86.5748 67.8022Z" fill="white"/>
</svg>
