<svg width="96" height="120" viewBox="0 0 96 120" fill="none" xmlns="http://www.w3.org/2000/svg">
<path d="M20.0879 81.7456C19.1171 81.7456 18.3301 82.5324 18.3301 83.5034C18.3301 84.4744 19.1171 85.2612 20.0879 85.2612H75.9416C76.9123 85.2612 77.6994 84.4744 77.6994 83.5034C77.6994 82.5324 76.9123 81.7456 75.9416 81.7456H20.0879Z" fill="white"/>
<path d="M75.9416 92.832H20.0879C19.1171 92.832 18.3301 93.6188 18.3301 94.5898C18.3301 95.5609 19.1171 96.3477 20.0879 96.3477H75.9416C76.9123 96.3477 77.6994 95.5609 77.6994 94.5898C77.6994 93.6188 76.9123 92.832 75.9416 92.832Z" fill="white"/>
<path d="M89.7989 0H6.20109C2.94984 0 0.304688 2.64516 0.304688 5.89641V68.2673C0.304688 69.2384 1.09172 70.0252 2.0625 70.0252C3.03328 70.0252 3.82031 69.2384 3.82031 68.2673V5.89641C3.82031 4.58367 4.88836 3.51563 6.20109 3.51563H89.7989C91.1116 3.51563 92.1797 4.58367 92.1797 5.89641V68.4052C92.1797 69.3762 92.9667 70.163 93.9375 70.163C94.9083 70.163 95.6953 69.3762 95.6953 68.4052V5.89641C95.6953 2.64516 93.0502 0 89.7989 0V0Z" fill="white"/>
<path d="M93.9375 74.8507C92.9667 74.8507 92.1797 75.6375 92.1797 76.6085V114.104C92.1797 115.417 91.1116 116.484 89.7989 116.484H6.20109C4.88836 116.484 3.82031 115.416 3.82031 114.104V76.4707C3.82031 75.4997 3.03328 74.7129 2.0625 74.7129C1.09172 74.7129 0.304688 75.4997 0.304688 76.4707V114.104C0.304688 117.355 2.94984 120 6.20109 120H89.7989C93.0502 120 95.6953 117.355 95.6953 114.104V76.6085C95.6953 75.6377 94.9083 74.8507 93.9375 74.8507Z" fill="white"/>
<path d="M26.7721 52.7508V65.9388C26.7721 68.8074 29.1055 71.1438 31.9759 71.1474L32.0758 71.1476C34.9502 71.1476 37.2888 68.8111 37.2888 65.9391V52.9195H40.0438C41.1529 53.2957 42.077 52.7016 42.3658 51.8508C42.5622 51.2716 42.4396 50.6613 42.092 50.2109V33.3541L58.721 27.7109V55.5452L49.034 52.2579C48.1148 51.9464 47.1166 52.4384 46.8046 53.3576C46.4927 54.2768 46.9851 55.2752 47.9043 55.5872L58.6335 59.2282C60.4159 59.8324 62.2366 58.4949 62.2366 56.6452V26.6109C62.2366 25.1067 61.0138 23.8828 59.5108 23.8828C59.2129 23.8828 58.9178 23.9316 58.6328 24.0281L40.0438 30.3366H28.7036C22.4774 30.3366 17.4121 35.4019 17.4121 41.628C17.4121 47.1954 21.4635 51.8316 26.7721 52.7508ZM33.7731 65.9391C33.7731 66.8723 33.0116 67.632 32.088 67.632L31.9781 67.6317C31.0459 67.6306 30.2877 66.8712 30.2877 65.9388V52.9195H33.7731V65.9391ZM28.7036 33.8524H38.5764V49.4041C31.8201 49.4041 28.3195 49.4004 28.5538 49.4004C24.3353 49.3198 20.928 45.8658 20.928 41.6283C20.9277 37.3404 24.4159 33.8524 28.7036 33.8524Z" fill="white"/>
<path d="M68.8164 43.3892H75.2298C76.2006 43.3892 76.9876 42.6024 76.9876 41.6313C76.9876 40.6603 76.2006 39.8735 75.2298 39.8735H68.8164C67.8456 39.8735 67.0586 40.6603 67.0586 41.6313C67.0586 42.6024 67.8454 43.3892 68.8164 43.3892Z" fill="white"/>
<path d="M70.8643 33.8584L75.3992 30.1745C76.1527 29.5626 76.2673 28.4554 75.6551 27.7019C75.0432 26.9481 73.9358 26.8337 73.1825 27.4457L68.6475 31.1296C67.894 31.7416 67.7794 32.8487 68.3916 33.6023C69.0038 34.3562 70.111 34.4701 70.8643 33.8584Z" fill="white"/>
<path d="M73.1825 55.8168C73.935 56.4283 75.0425 56.3151 75.6551 55.5607C76.2673 54.8072 76.1527 53.7002 75.3992 53.088L70.8643 49.4039C70.1105 48.7917 69.0038 48.9061 68.3916 49.66C67.7794 50.4136 67.894 51.5205 68.6475 52.1327L73.1825 55.8168Z" fill="white"/>
<path d="M82.2307 111.328C84.8733 111.328 87.0234 109.178 87.0234 106.536V13.4647C87.0234 10.8222 84.8733 8.67201 82.2307 8.67201H53.3623C52.0723 7.07779 50.1014 6.05615 47.8957 6.05615C45.69 6.05615 43.7191 7.07779 42.4291 8.67201H13.7693C11.1267 8.67201 8.97656 10.8222 8.97656 13.4647V106.536C8.97656 109.178 11.1265 111.328 13.7693 111.328H82.2307ZM47.8957 9.57178C49.6784 9.57178 51.1856 10.9162 51.387 12.6885C51.6274 14.7953 49.9711 16.603 47.8957 16.603C45.6853 16.603 44.0098 14.574 44.4499 12.3913C44.7715 10.8008 46.1824 9.57178 47.8957 9.57178ZM12.4922 106.536V13.4647C12.4922 12.7604 13.065 12.1876 13.7693 12.1876H40.9223C40.92 12.2052 40.9193 12.2233 40.9172 12.2411C40.4081 16.4589 43.7142 20.1187 47.8957 20.1187C52.0779 20.1187 55.3833 16.4579 54.8742 12.2411C54.8721 12.2233 54.8714 12.2054 54.8691 12.1876H82.2307C82.9348 12.1876 83.5078 12.7604 83.5078 13.4647V106.536C83.5078 107.24 82.935 107.813 82.2307 107.813H13.7693C13.0652 107.813 12.4922 107.24 12.4922 106.536Z" fill="white"/>
</svg>
