<svg width="120" height="120" viewBox="0 0 120 120" fill="none" xmlns="http://www.w3.org/2000/svg">
<g clip-path="url(#clip0)">
<path d="M105.26 0H14.5587C12.6022 0 11.0156 1.58661 11.0156 3.54309V116.457C11.0156 118.413 12.6022 120 14.5587 120H105.26C107.216 120 108.803 118.413 108.803 116.457V3.54309C108.803 1.58661 107.216 0 105.26 0V0ZM101.717 24.7668L84.7211 7.08618H101.717V24.7668ZM18.1018 7.08618H74.892L101.717 34.9924V85.0076L74.892 112.914H18.1018V7.08618ZM84.7211 112.914L101.717 95.2332V112.914H84.7211Z" fill="white"/>
<path d="M58.8583 88.0654H27.6544C25.6979 88.0654 24.1113 89.6511 24.1113 91.6076V103.249C24.1113 105.205 25.6979 106.792 27.6544 106.792H58.8583C60.8148 106.792 62.4014 105.205 62.4014 103.249V91.6076C62.4014 89.6511 60.8148 88.0654 58.8583 88.0654ZM55.3152 99.7054H31.1975V95.1507H55.3152V99.7054Z" fill="white"/>
</g>
<defs>
<clipPath id="clip0">
<rect width="120" height="120" fill="white"/>
</clipPath>
</defs>
</svg>
