<svg width="110" height="118" viewBox="0 0 110 118" fill="none" xmlns="http://www.w3.org/2000/svg">
<path d="M107.5 38.375H85V10.25C85 9.94135 84.9238 9.63747 84.7782 9.36533C84.6325 9.0932 84.422 8.86123 84.1652 8.69L72.9152 1.19C72.6069 0.985618 72.2449 0.877297 71.875 0.87875V0.875H38.125V0.87875C37.7551 0.877297 37.3931 0.985618 37.0848 1.19L25.8348 8.69C25.578 8.86123 25.3675 9.0932 25.2218 9.36533C25.0762 9.63747 25 9.94135 25 10.25V38.375H2.5C2.00272 38.375 1.52581 38.5725 1.17417 38.9242C0.822544 39.2758 0.625 39.7527 0.625 40.25V107.75C0.627792 110.236 1.61641 112.618 3.37396 114.376C5.13151 116.134 7.51445 117.122 10 117.125H100C102.486 117.122 104.868 116.134 106.626 114.376C108.384 112.618 109.372 110.236 109.375 107.75V40.25C109.375 39.7527 109.177 39.2758 108.826 38.9242C108.474 38.5725 107.997 38.375 107.5 38.375ZM73.75 6.25344L81.25 11.2534V38.375H73.75V6.25344ZM40 38.375V15.875H70V38.375H40ZM70 12.125H40V4.625H70V12.125ZM28.75 11.2534L36.25 6.25344V38.375H28.75V11.2534ZM105.625 107.75C105.623 109.241 105.03 110.671 103.976 111.726C102.921 112.78 101.491 113.373 100 113.375H10C8.50869 113.373 7.07896 112.78 6.02444 111.726C4.96993 110.671 4.37674 109.241 4.375 107.75V42.125H105.625V107.75Z" fill="white"/>
<path d="M34.375 87.1247H73.75C74.0818 87.1247 74.4077 87.0367 74.6944 86.8696C74.981 86.7025 75.2182 86.4623 75.3817 86.1735C75.5451 85.8848 75.6291 85.5579 75.6249 85.2261C75.6207 84.8943 75.5285 84.5696 75.3578 84.285L64.1078 65.535C63.9412 65.2574 63.7056 65.0276 63.4238 64.8681C63.1421 64.7086 62.8238 64.6247 62.5 64.6247C62.1762 64.6247 61.858 64.7086 61.5762 64.8681C61.2944 65.0276 61.0588 65.2574 60.8922 65.535L58.75 69.106L51.9203 57.7233C51.7537 57.4457 51.5181 57.2159 51.2363 57.0564C50.9546 56.8968 50.6363 56.813 50.3125 56.813C49.9887 56.813 49.6705 56.8968 49.3887 57.0564C49.1069 57.2159 48.8713 57.4457 48.7047 57.7233L32.7672 84.285C32.5965 84.5696 32.5043 84.8943 32.5001 85.2261C32.496 85.5579 32.5799 85.8848 32.7434 86.1735C32.9069 86.4623 33.144 86.7025 33.4307 86.8696C33.7173 87.0367 34.0432 87.1247 34.375 87.1247ZM62.5 70.1443L70.4383 83.3747H67.3117L60.9367 72.75L62.5 70.1443ZM50.3125 62.3323L62.9383 83.3747H37.6867L50.3125 62.3323Z" fill="white"/>
<path d="M70.9375 49.625C69.6396 49.625 68.3708 50.0099 67.2916 50.731C66.2124 51.4521 65.3712 52.477 64.8745 53.6761C64.3778 54.8753 64.2479 56.1948 64.5011 57.4678C64.7543 58.7408 65.3793 59.9101 66.2971 60.8279C67.2149 61.7457 68.3842 62.3707 69.6572 62.6239C70.9302 62.8771 72.2497 62.7472 73.4489 62.2505C74.648 61.7538 75.6729 60.9126 76.394 59.8334C77.1151 58.7542 77.5 57.4854 77.5 56.1875C77.498 54.4476 76.806 52.7796 75.5757 51.5493C74.3454 50.319 72.6774 49.627 70.9375 49.625ZM70.9375 59C70.3812 59 69.8375 58.835 69.375 58.526C68.9124 58.217 68.552 57.7777 68.3391 57.2638C68.1262 56.7499 68.0705 56.1844 68.179 55.6388C68.2876 55.0932 68.5554 54.5921 68.9488 54.1988C69.3421 53.8054 69.8432 53.5376 70.3888 53.429C70.9344 53.3205 71.4999 53.3762 72.0138 53.5891C72.5277 53.802 72.967 54.1624 73.276 54.625C73.585 55.0875 73.75 55.6312 73.75 56.1875C73.7492 56.9332 73.4526 57.6481 72.9253 58.1753C72.3981 58.7026 71.6832 58.9992 70.9375 59Z" fill="white"/>
<path d="M75.625 90.875H34.375C33.8777 90.875 33.4008 91.0725 33.0492 91.4242C32.6975 91.7758 32.5 92.2527 32.5 92.75C32.5 93.2473 32.6975 93.7242 33.0492 94.0758C33.4008 94.4275 33.8777 94.625 34.375 94.625H75.625C76.1223 94.625 76.5992 94.4275 76.9508 94.0758C77.3025 93.7242 77.5 93.2473 77.5 92.75C77.5 92.2527 77.3025 91.7758 76.9508 91.4242C76.5992 91.0725 76.1223 90.875 75.625 90.875Z" fill="white"/>
<path d="M68.125 96.5H34.375C33.8777 96.5 33.4008 96.6975 33.0492 97.0492C32.6975 97.4008 32.5 97.8777 32.5 98.375C32.5 98.8723 32.6975 99.3492 33.0492 99.7008C33.4008 100.052 33.8777 100.25 34.375 100.25H68.125C68.6223 100.25 69.0992 100.052 69.4508 99.7008C69.8025 99.3492 70 98.8723 70 98.375C70 97.8777 69.8025 97.4008 69.4508 97.0492C69.0992 96.6975 68.6223 96.5 68.125 96.5Z" fill="white"/>
<path d="M75.625 96.5H73.75C73.2527 96.5 72.7758 96.6975 72.4242 97.0492C72.0725 97.4008 71.875 97.8777 71.875 98.375C71.875 98.8723 72.0725 99.3492 72.4242 99.7008C72.7758 100.052 73.2527 100.25 73.75 100.25H75.625C76.1223 100.25 76.5992 100.052 76.9508 99.7008C77.3025 99.3492 77.5 98.8723 77.5 98.375C77.5 97.8777 77.3025 97.4008 76.9508 97.0492C76.5992 96.6975 76.1223 96.5 75.625 96.5Z" fill="white"/>
<path d="M23.125 45.875H10C9.50272 45.875 9.02581 46.0725 8.67418 46.4242C8.32254 46.7758 8.125 47.2527 8.125 47.75C8.125 48.2473 8.32254 48.7242 8.67418 49.0758C9.02581 49.4275 9.50272 49.625 10 49.625H23.125C23.6223 49.625 24.0992 49.4275 24.4508 49.0758C24.8025 48.7242 25 48.2473 25 47.75C25 47.2527 24.8025 46.7758 24.4508 46.4242C24.0992 46.0725 23.6223 45.875 23.125 45.875Z" fill="white"/>
<path d="M30.625 45.875H28.75C28.2527 45.875 27.7758 46.0725 27.4242 46.4242C27.0725 46.7758 26.875 47.2527 26.875 47.75C26.875 48.2473 27.0725 48.7242 27.4242 49.0758C27.7758 49.4275 28.2527 49.625 28.75 49.625H30.625C31.1223 49.625 31.5992 49.4275 31.9508 49.0758C32.3025 48.7242 32.5 48.2473 32.5 47.75C32.5 47.2527 32.3025 46.7758 31.9508 46.4242C31.5992 46.0725 31.1223 45.875 30.625 45.875Z" fill="white"/>
</svg>
