<svg width="120" height="120" viewBox="0 0 120 120" fill="none" xmlns="http://www.w3.org/2000/svg">
<g clip-path="url(#clip0)">
<path d="M112.236 68.4223C113.207 68.4223 113.994 67.6352 113.994 66.6645V16.8337C113.994 11.981 110.046 8.03297 105.193 8.03297H97.6774V5.34539C97.6772 2.39789 95.2793 0 92.3318 0H91.5248C88.5773 0 86.1795 2.39789 86.1795 5.34539V8.03297H33.8201V5.34539C33.8201 2.39789 31.4222 0 28.4747 0H27.6677C24.7202 0 22.3223 2.39789 22.3223 5.34539V8.03297H14.8066C9.95391 8.03297 6.00586 11.981 6.00586 16.8337V111.211C6.00586 116.057 9.94852 120 14.7949 120H105.205C110.051 120 113.994 116.057 113.994 111.211V73.6957C113.994 72.7249 113.207 71.9379 112.236 71.9379C111.265 71.9379 110.478 72.7249 110.478 73.6957V82.1653C110.478 84.378 108.678 86.1783 106.465 86.1783H94.7316C90.5803 86.1783 87.203 89.5556 87.203 93.7069V105.44C87.203 107.653 85.4027 109.453 83.19 109.453H14.8066C11.8924 109.453 9.52148 107.082 9.52148 104.168V36.6689H22.4257C23.3965 36.6689 24.1835 35.8819 24.1835 34.9111C24.1835 33.9403 23.3965 33.1533 22.4257 33.1533H9.52148V16.8337C9.52148 13.9195 11.8924 11.5486 14.8066 11.5486H22.3221V16.717C22.3221 19.6645 24.72 22.0624 27.6675 22.0624C28.6383 22.0624 29.4253 21.2754 29.4253 20.3046C29.4253 19.3338 28.6383 18.5468 27.6675 18.5468C26.6585 18.5468 25.8377 17.726 25.8377 16.717V11.5486H86.1795V16.717C86.1795 19.6645 88.5773 22.0624 91.5248 22.0624C92.4956 22.0624 93.2827 21.2754 93.2827 20.3046C93.2827 19.3338 92.4956 18.5468 91.5248 18.5468C90.5159 18.5468 89.6951 17.726 89.6951 16.717V11.5486H105.193C108.107 11.5486 110.478 13.9195 110.478 16.8337V33.153H29.457C28.4862 33.153 27.6991 33.9401 27.6991 34.9109C27.6991 35.8816 28.4862 36.6687 29.457 36.6687H110.478V66.6642C110.478 67.6352 111.265 68.4223 112.236 68.4223ZM90.7186 105.44V93.7066C90.7186 91.4939 92.5188 89.6937 94.7316 89.6937H106.465C107.076 89.6937 107.669 89.6187 108.238 89.4809L90.5058 107.213C90.6438 106.644 90.7186 106.051 90.7186 105.44ZM14.8066 112.969H86.0763C88.4271 112.969 90.6373 112.053 92.2995 110.391L110.478 92.2123V111.211C110.478 114.119 108.112 116.484 105.205 116.484H14.7949C11.887 116.484 9.52148 114.119 9.52148 111.211V111.2C10.9943 112.31 12.8248 112.969 14.8066 112.969ZM30.3045 8.03297H25.838V5.34539C25.838 4.33641 26.6588 3.51562 27.6677 3.51562H28.4747C29.4837 3.51562 30.3045 4.33641 30.3045 5.34539V8.03297ZM94.1616 8.03297H89.6951V5.34539C89.6951 4.33641 90.5159 3.51562 91.5248 3.51562H92.3318C93.3408 3.51562 94.1616 4.33641 94.1616 5.34539V8.03297ZM60.6558 63.7144C60.6558 58.2218 56.1862 53.7534 50.6923 53.7534C45.9417 53.7534 41.8303 57.1315 40.916 61.7855C40.729 62.738 41.3494 63.6621 42.3021 63.8491C43.2546 64.0359 44.1785 63.4158 44.3658 62.463C44.9571 59.4534 47.6177 57.2688 50.6925 57.2688C54.2477 57.2688 57.1404 60.1601 57.1404 63.7141C57.1404 67.2682 54.248 70.1594 50.6925 70.1594C49.7217 70.1594 48.9347 70.9465 48.9347 71.9173C48.9347 72.888 49.7217 73.6751 50.6925 73.6751C54.2477 73.6751 57.1404 76.5663 57.1404 80.1204C57.1404 83.6744 54.248 86.5657 50.6925 86.5657C47.4935 86.5657 44.7483 84.1823 44.3072 81.0216C44.2657 80.7251 44.2448 80.422 44.2448 80.1204C44.2448 79.1496 43.4578 78.3626 42.487 78.3626C41.5163 78.3626 40.7292 79.1496 40.7292 80.1204C40.7292 80.584 40.7616 81.0506 40.8253 81.5074C41.5076 86.3953 45.7495 90.0813 50.6927 90.0813C56.1865 90.0813 60.6562 85.613 60.6562 80.1204C60.6562 76.721 58.9432 73.7156 56.336 71.9173C58.9427 70.1191 60.6558 67.1135 60.6558 63.7144ZM77.5127 89.3932C78.4835 89.3932 79.2705 88.6062 79.2705 87.6354V55.5769C79.2705 54.6061 78.4835 53.8191 77.5127 53.8191H70.6584C69.6877 53.8191 68.9006 54.6061 68.9006 55.5769C68.9006 56.5477 69.6877 57.3347 70.6584 57.3347H75.7549V87.6352C75.7549 88.6062 76.5419 89.3932 77.5127 89.3932Z" fill="white"/>
</g>
<defs>
<clipPath id="clip0">
<rect width="120" height="120" fill="white"/>
</clipPath>
</defs>
</svg>
