<svg width="121" height="120" viewBox="0 0 121 120" fill="none" xmlns="http://www.w3.org/2000/svg">
<path d="M60 0C26.916 0 0 26.9164 0 60.0004C0 93.0844 26.916 120 60 120C93.084 120 120 93.0844 120 60.0004C120 26.9164 93.084 0 60 0ZM60 109.091C32.9309 109.091 10.9091 87.0691 10.9091 60.0004C10.9091 32.9316 32.9309 10.9091 60 10.9091C87.0691 10.9091 109.091 32.9316 109.091 60.0004C109.091 87.0691 87.0687 109.091 60 109.091Z" fill="white"/>
<path d="M59.9998 25.4546C55.9903 25.4546 52.7285 28.7186 52.7285 32.7306C52.7285 36.739 55.9903 40 59.9998 40C64.0092 40 67.2711 36.739 67.2711 32.7306C67.2711 28.7186 64.0092 25.4546 59.9998 25.4546Z" fill="white"/>
<path d="M59.9995 50.9092C56.9871 50.9092 54.5449 53.3514 54.5449 56.3637V89.091C54.5449 92.1034 56.9871 94.5455 59.9995 94.5455C63.0118 94.5455 65.454 92.1034 65.454 89.091V56.3637C65.454 53.3514 63.0118 50.9092 59.9995 50.9092Z" fill="white"/>
</svg>
