<svg width="92" height="120" viewBox="0 0 92 120" fill="none" xmlns="http://www.w3.org/2000/svg">
<path d="M91.5984 45.6156C91.5831 45.4004 91.5425 45.1926 91.4741 44.9848C91.4438 44.9014 91.4209 44.8175 91.3827 44.7314C91.2611 44.4653 91.1065 44.2119 90.8912 43.9966C90.8912 43.9943 90.8889 43.9915 90.8889 43.9915L47.6377 0.742642C47.4196 0.524601 47.1611 0.369923 46.8927 0.245994C46.8191 0.212915 46.746 0.192882 46.6696 0.167257C46.4543 0.091316 46.2335 0.045658 46.0056 0.0330788C45.9525 0.0279539 45.9018 0 45.8486 0H17.2672C7.94689 0 0.367188 7.58203 0.367188 16.9023V103.1C0.367188 112.421 7.94921 120 17.2667 120H74.7315C84.049 120 91.6311 112.421 91.6311 103.1V45.7852C91.6311 45.727 91.6008 45.6739 91.5984 45.6156ZM48.3775 8.65126L82.9798 43.2512H60.209C53.6837 43.2512 48.3775 37.9451 48.3775 31.4197V8.65126ZM74.7315 114.929H17.2672C10.7418 114.929 5.43569 109.62 5.43569 103.098V16.9023C5.43569 10.377 10.7446 5.06851 17.2672 5.06851H43.3095V31.4202C43.3095 40.7405 50.8915 48.3197 60.209 48.3197H86.563V103.098C86.563 109.623 81.2569 114.929 74.7315 114.929Z" fill="white"/>
<g clip-path="url(#clip0)">
<path d="M49.5732 92.2107C53.831 93.6688 57.5907 94.5975 62.9925 96.2575C60.9173 122.479 36.1218 112.066 49.5732 92.2107ZM71.7117 68.1228C71.432 60.2496 70.0453 49.9216 58.9992 51.5399C53.821 52.8913 49.995 58.5781 48.1956 68.3897C47.2073 73.7844 47.782 81.3566 48.9478 85.8957C50.0122 89.0944 49.6502 88.8978 50.7942 89.5053C55.2222 90.5028 59.6057 91.607 64.0696 92.733C68.6045 89.5306 72.3289 72.5289 71.7117 68.1228ZM37.6225 67.5186C38.7874 62.9788 39.3621 55.4066 38.3742 50.0126C36.5762 40.2006 32.7497 34.5128 27.5707 33.1624C16.5245 31.5441 15.1378 41.8718 14.8582 49.7455C14.2409 54.1508 17.9658 71.1536 22.5011 74.3554C26.9647 73.2294 31.3476 72.1261 35.777 71.1277C36.9196 70.5209 36.5576 70.7173 37.6225 67.5186ZM23.5768 77.8808C25.6513 104.102 50.4468 93.6887 36.9957 73.834C32.7379 75.2923 28.9785 76.2208 23.5768 77.8808Z" fill="white"/>
</g>
<defs>
<clipPath id="clip0">
<rect width="78.9327" height="78.9327" fill="white" transform="translate(3.81836 32.9932)"/>
</clipPath>
</defs>
</svg>
