<svg width="122" height="123" viewBox="0 0 122 123" fill="none" xmlns="http://www.w3.org/2000/svg">
<path d="M98.3441 106.134L76.7606 98.9742C75.4845 98.5507 74.1082 99.2421 73.685 100.517C73.2618 101.793 73.9529 103.17 75.2283 103.593L96.8118 110.753C97.0661 110.838 97.3242 110.878 97.5783 110.878C98.5984 110.878 99.5486 110.231 99.8874 109.21C100.311 107.934 99.62 106.557 98.3441 106.134Z" fill="white"/>
<path d="M101.844 95.5884L80.2606 88.4283C78.9852 88.0053 77.6082 88.6962 77.185 89.9714C76.7618 91.2467 77.4529 92.6237 78.7283 93.047L100.312 100.207C100.566 100.292 100.824 100.332 101.078 100.332C102.098 100.332 103.049 99.6848 103.387 98.6638C103.811 97.3884 103.119 96.0114 101.844 95.5884Z" fill="white"/>
<path d="M93.441 73.9316H70.7007C69.3569 73.9316 68.2676 75.0209 68.2676 76.3648C68.2676 77.7086 69.3569 78.7979 70.7007 78.7979H93.441C94.7849 78.7979 95.8742 77.7086 95.8742 76.3648C95.8742 75.0209 94.7849 73.9316 93.441 73.9316Z" fill="white"/>
<path d="M93.441 62.8193H70.7007C69.3569 62.8193 68.2676 63.9086 68.2676 65.2525C68.2676 66.5963 69.3569 67.6856 70.7007 67.6856H93.441C94.7849 67.6856 95.8742 66.5963 95.8742 65.2525C95.8742 63.9086 94.7849 62.8193 93.441 62.8193Z" fill="white"/>
<path d="M80.7694 20.4908C80.5113 19.172 79.2328 18.3127 77.914 18.5706L76.6458 18.819C75.327 19.0771 74.4672 20.3556 74.7255 21.6744C74.9529 22.835 75.9709 23.6404 77.1107 23.6404C77.2658 23.6404 77.4233 23.6253 77.5807 23.5946L78.8489 23.3462C80.168 23.0879 81.028 21.8096 80.7694 20.4908Z" fill="white"/>
<path d="M119.892 71.7834L105.527 67.0179V37.0864C105.527 35.7426 104.438 34.6533 103.094 34.6533H93.3758L86.9725 1.96547C86.8484 1.33207 86.4779 0.774067 85.9426 0.414071C85.407 0.0540751 84.75 -0.0788062 84.1173 0.0454867L2.71388 15.9912C1.39509 16.2496 0.535536 17.5281 0.793903 18.8469L10.0336 66.0152C10.1576 66.6486 10.5281 67.2066 11.0634 67.5666C11.4678 67.8383 11.9411 67.9807 12.4211 67.9807C12.5772 67.9807 12.7339 67.9657 12.8887 67.9352L17.7099 66.9909V85.1513C17.7099 86.4951 18.7992 87.5844 20.143 87.5844H24.6908L22.9512 92.8283C22.7479 93.4409 22.7964 94.1089 23.0857 94.6858C23.3751 95.2626 23.8818 95.7006 24.4945 95.9039L103.226 122.022C103.475 122.105 103.734 122.146 103.992 122.146C104.367 122.146 104.741 122.059 105.083 121.888C105.66 121.598 106.098 121.091 106.301 120.479L121.435 74.859C121.858 73.5834 121.168 72.2067 119.892 71.7834ZM14.3413 62.6919L6.0371 20.2993L82.6647 5.28893L90.9689 47.6816L14.3413 62.6919ZM45.4675 72.0795C46.8114 72.0795 47.9007 70.9902 47.9007 69.6464V66.5491C53.041 67.2443 57.1644 70.2225 58.4102 74.061H32.7834C34.008 70.2872 38.015 67.3466 43.0344 66.5877V69.6461C43.0344 70.9902 44.1239 72.0795 45.4675 72.0795ZM22.5764 82.7179V66.0374L37.5316 63.1078C31.6078 65.5667 27.5297 70.6419 27.5297 76.4942C27.5297 77.838 28.619 78.9273 29.9629 78.9273H61.2308C62.5746 78.9273 63.6639 77.838 63.6639 76.4942C63.6639 68.2417 55.5591 61.5282 45.5968 61.5282C45.5966 61.5282 45.5963 61.5282 45.5961 61.5282L70.8827 56.5749H93.884C95.2278 56.5749 96.3171 55.4856 96.3171 54.1417C96.3171 53.0937 95.6534 52.2032 94.7244 51.8606C95.7918 51.4364 96.4409 50.3015 96.2121 49.1338L94.3289 39.5198H100.66V82.7179H22.5764ZM65.0678 95.1154L42.3652 87.5839H51.8611C52.0887 88.3022 52.6431 88.9058 53.4129 89.1611C53.6673 89.2455 53.9254 89.2856 54.1795 89.2856C55.1996 89.2856 56.1498 88.6389 56.4885 87.6178L56.4998 87.5837H61.5845C63.8476 89.8229 65.0769 92.5222 65.0678 95.1154ZM102.449 116.637L28.3366 92.0508L29.8183 87.5839H35.04C35.0264 87.6238 35.0109 87.6631 34.9978 87.7032C34.7946 88.3158 34.843 88.9841 35.1324 89.5607C35.4217 90.1373 35.9285 90.5755 36.5409 90.7788L66.2182 100.624C66.4725 100.708 66.7307 100.748 66.9847 100.748C68.0046 100.748 68.955 100.102 69.2938 99.0806C70.5451 95.3084 69.941 91.2008 67.7529 87.5839H97.9007L104.249 89.6897C104.503 89.7742 104.761 89.8143 105.015 89.8143C106.036 89.8143 106.986 89.1675 107.325 88.1464C107.748 86.8711 107.057 85.4941 105.781 85.0709L105.527 84.9864V72.1444L116.051 75.6356L102.449 116.637Z" fill="white"/>
<path d="M53.1129 48.6856C52.3245 44.6612 49.6766 41.2855 45.6566 39.1808C41.8154 37.1695 37.1455 36.5628 32.5058 37.4715C32.4753 37.4775 32.4455 37.4851 32.4154 37.4913C32.4033 37.4935 32.3913 37.4942 32.3792 37.4963C32.3515 37.5016 32.3253 37.5102 32.2976 37.5166C27.7448 38.4537 23.7283 40.7547 20.9721 44.0163C18.0433 47.4822 16.8645 51.6073 17.6527 55.6316C17.8803 56.7925 18.898 57.5977 20.0379 57.5977C20.193 57.5977 20.3504 57.5826 20.5081 57.5519L51.1927 51.5412C52.5117 51.2828 53.3713 50.0043 53.1129 48.6856ZM22.3439 52.233C22.56 50.4769 23.3573 48.733 24.689 47.1571C26.2745 45.2807 28.4502 43.825 30.9635 42.9278L31.5518 45.9308C31.7794 47.0917 32.7971 47.8969 33.937 47.8969C34.0921 47.8969 34.2495 47.8818 34.4072 47.8511C35.726 47.5927 36.5856 46.3142 36.3272 44.9954L35.732 41.9578C36.0617 41.938 36.3902 41.9248 36.7165 41.9248C39.1215 41.9248 41.4206 42.4561 43.399 43.4917C45.2271 44.4489 46.6235 45.7631 47.4861 47.3078L22.3439 52.233Z" fill="white"/>
<path d="M38.6821 26.1011C37.7939 21.5683 33.3842 18.6032 28.8513 19.4911C24.3185 20.3791 21.3534 24.7892 22.2411 29.322C23.0231 33.3134 26.5355 36.0891 30.4587 36.0891C30.9907 36.0891 31.5308 36.0381 32.0719 35.9319C36.6044 35.044 39.5698 30.6341 38.6821 26.1011ZM31.1365 31.1563C29.2373 31.528 27.3891 30.2858 27.0169 28.3863C26.6448 26.4868 27.8872 24.6387 29.7869 24.2668C30.014 24.2221 30.2399 24.2009 30.4628 24.2009C32.1067 24.2009 33.5787 25.3642 33.9065 27.0367C34.2784 28.9362 33.0359 30.7841 31.1365 31.1563Z" fill="white"/>
<path d="M85.0439 42.2993C84.7855 40.9805 83.5068 40.1212 82.1883 40.3793L59.8721 44.7508C58.5533 45.0091 57.6937 46.2876 57.9521 47.6064C58.1797 48.7673 59.1974 49.5724 60.3373 49.5724C60.4924 49.5724 60.6498 49.5574 60.8075 49.5266L83.1237 45.1551C84.4427 44.8965 85.302 43.6181 85.0439 42.2993Z" fill="white"/>
<path d="M82.9071 31.3946C82.6488 30.0758 81.3696 29.216 80.0515 29.4746L57.7354 33.8461C56.4166 34.1045 55.557 35.383 55.8154 36.7018C56.043 37.8626 57.0607 38.6678 58.2006 38.6678C58.3556 38.6675 58.5131 38.6527 58.6708 38.6217L80.9869 34.2502C82.306 33.9919 83.1655 32.7134 82.9071 31.3946Z" fill="white"/>
<path d="M70.3713 22.5269C70.113 21.2081 68.8338 20.3485 67.5157 20.6069L55.5967 22.9417C54.2779 23.2001 53.4183 24.4786 53.6767 25.7974C53.9043 26.9582 54.922 27.7634 56.0619 27.7634C56.217 27.7634 56.3744 27.7484 56.5323 27.7174L68.4513 25.3825C69.7701 25.1241 70.6297 23.8457 70.3713 22.5269Z" fill="white"/>
</svg>
