<svg width="123" height="123" viewBox="0 0 123 123" fill="none" xmlns="http://www.w3.org/2000/svg">
<path d="M16.0994 7.63458L16.2845 7.5976L15.5359 3.85449L15.3505 3.89171C12.2824 4.51237 9.52269 6.17353 7.53813 8.59432C5.55357 11.0151 4.46588 14.047 4.45898 17.1772H8.27605C8.28091 14.9288 9.06216 12.751 10.4877 11.0122C11.9132 9.27338 13.8955 8.08025 16.0994 7.63458Z" fill="white"/>
<path d="M50.7246 80.2144L49.7988 83.9175L72.7013 89.643L73.6271 85.9399L50.7246 80.2144Z" fill="white"/>
<path d="M50.7246 72.5806L49.7988 76.2837L72.7013 82.0092L73.6271 78.3061L50.7246 72.5806Z" fill="white"/>
<path d="M67.9043 69.2408L66.9785 72.9438L72.7042 74.3752L73.63 70.6721L67.9043 69.2408Z" fill="white"/>
<path d="M50.7246 64.9463L49.7988 68.6494L63.1584 71.9893L64.0842 68.2862L50.7246 64.9463Z" fill="white"/>
<path d="M50.7246 57.3123L49.7988 61.0154L72.7013 66.7409L73.6271 63.0378L50.7246 57.3123Z" fill="white"/>
<path d="M65.5322 28.6279C66.6646 28.6279 67.7716 28.2921 68.7132 27.663C69.6548 27.0339 70.3886 26.1397 70.822 25.0934C71.2553 24.0472 71.3687 22.896 71.1478 21.7853C70.9269 20.6747 70.3816 19.6545 69.5808 18.8537C68.7801 18.053 67.7599 17.5077 66.6492 17.2868C65.5386 17.0659 64.3874 17.1792 63.3411 17.6126C62.2949 18.046 61.4007 18.7798 60.7716 19.7214C60.1424 20.663 59.8066 21.7699 59.8066 22.9024C59.8083 24.4204 60.4121 25.8757 61.4855 26.9491C62.5589 28.0225 64.0142 28.6262 65.5322 28.6279ZM65.5322 20.9938C65.9097 20.9938 66.2787 21.1058 66.5926 21.3155C66.9064 21.5252 67.151 21.8233 67.2955 22.172C67.4399 22.5207 67.4777 22.9045 67.4041 23.2747C67.3305 23.6449 67.1487 23.985 66.8818 24.2519C66.6149 24.5188 66.2748 24.7006 65.9046 24.7742C65.5344 24.8479 65.1506 24.8101 64.8019 24.6656C64.4531 24.5212 64.1551 24.2765 63.9453 23.9627C63.7356 23.6488 63.6237 23.2798 63.6237 22.9024C63.6243 22.3964 63.8255 21.9112 64.1833 21.5534C64.5411 21.1957 65.0262 20.9944 65.5322 20.9938Z" fill="white"/>
<path d="M101.189 57.3537L84.0117 63.0793L85.2188 66.7005L102.396 60.9749L101.189 57.3537Z" fill="white"/>
<path d="M38.2081 57.3537L21.0312 63.0793L22.2383 66.7005L39.4152 60.9749L38.2081 57.3537Z" fill="white"/>
<path d="M114.878 61.5188L112.426 64.4437C113.281 65.1594 113.969 66.0542 114.44 67.0648C114.911 68.0755 115.155 69.1774 115.154 70.2926V114.512H99.8855V110.695C99.8855 110.318 99.774 109.95 99.5651 109.636L99.4167 109.413C97.5578 106.612 96.7234 103.254 97.0548 99.9079C97.3861 96.5619 98.8628 93.433 101.235 91.0502C101.56 90.7254 101.757 90.2943 101.789 89.836C101.822 89.3777 101.688 88.9231 101.412 88.5556L92.824 77.1044C92.3684 76.497 92.1728 75.7335 92.2802 74.9818C92.3876 74.2302 92.7891 73.552 93.3965 73.0965C94.0039 72.6409 94.7674 72.4453 95.5191 72.5527C96.2707 72.66 96.9489 73.0616 97.4044 73.669L105.993 85.1202C106.233 85.4407 106.568 85.6774 106.951 85.7968C107.333 85.9162 107.743 85.9123 108.123 85.7857C108.503 85.659 108.834 85.416 109.068 85.091C109.302 84.7661 109.428 84.3756 109.428 83.9751V5.72533C109.428 5.42292 109.356 5.12485 109.218 4.85567C109.081 4.58649 108.881 4.35391 108.636 4.1771C108.39 4.00029 108.106 3.88431 107.807 3.83871C107.508 3.79312 107.203 3.81921 106.916 3.91485L78.8411 13.2731L45.0491 3.88646C44.6831 3.78533 44.2952 3.79571 43.935 3.91628V3.91485L15.3071 13.4575C14.927 13.5841 14.5964 13.8271 14.3621 14.152C14.1278 14.477 14.0017 14.8674 14.0016 15.268V83.9751C14.0016 84.3756 14.1277 84.7661 14.3619 85.091C14.5961 85.416 14.9266 85.659 15.3066 85.7857C15.6867 85.9123 16.0969 85.9162 16.4792 85.7968C16.8616 85.6774 17.1967 85.4407 17.437 85.1202L26.0254 73.669C26.251 73.3683 26.5336 73.1149 26.8571 72.9233C27.1805 72.7318 27.5386 72.6058 27.9108 72.5527C28.2829 72.4995 28.6619 72.5202 29.0261 72.6135C29.3903 72.7068 29.7325 72.8709 30.0333 73.0965C30.3341 73.322 30.5874 73.6046 30.779 73.9281C30.9705 74.2516 31.0965 74.6097 31.1497 74.9818C31.2028 75.354 31.1822 75.733 31.0889 76.0972C30.9956 76.4614 30.8314 76.8036 30.6059 77.1044L22.0175 88.5556C21.7418 88.9231 21.608 89.3777 21.6405 89.836C21.6731 90.2943 21.8699 90.7254 22.1947 91.0502C24.5671 93.4331 26.0438 96.5621 26.3751 99.9082C26.7064 103.254 25.8719 106.612 24.0128 109.414L23.8647 109.636C23.6558 109.95 23.5443 110.318 23.5443 110.695V114.512H8.27605V70.2926C8.27476 69.1774 8.51842 68.0755 8.98981 67.0648C9.4612 66.0542 10.1488 65.1594 11.0041 64.4437L8.5516 61.5188C7.26857 62.5924 6.23701 63.9346 5.52982 65.4507C4.82262 66.9668 4.45707 68.6197 4.45899 70.2926V116.42C4.45899 116.926 4.66007 117.412 5.01799 117.77C5.37591 118.128 5.86135 118.329 6.36752 118.329H25.4528C25.959 118.329 26.4444 118.128 26.8024 117.77C27.1603 117.412 27.3614 116.926 27.3614 116.42V111.267C29.4641 107.976 30.4671 104.103 30.2257 100.205C29.9843 96.3076 28.5109 92.5874 26.0182 89.5814L27.2573 87.9293L39.4161 83.8756L38.209 80.2546L31.2812 82.5642L33.6595 79.3946C34.0094 78.9282 34.2965 78.4178 34.5136 77.8766L39.4159 76.2431L38.2092 72.6217L34.7906 73.7609C34.5051 72.6133 33.9189 71.5625 33.0924 70.7168L39.4161 68.6088L38.209 64.9878L21.0322 70.7134L21.7825 72.9643L17.8187 78.2495V58.8204L19.5455 58.475C24.036 57.5715 28.084 55.1631 31.0205 51.6477C32.4491 49.929 34.2181 48.5247 36.2161 47.5231C38.214 46.5216 40.3977 45.9446 42.6296 45.8283V90.2336L32.4834 93.6167L33.6905 97.2379L44.589 93.6041L78.3807 102.991C78.7523 103.094 79.1467 103.082 79.5112 102.956L89.9287 99.3774L88.6882 95.7674L80.8002 98.4782V58.8204L82.527 58.475C87.0175 57.5715 91.0655 55.1631 94.002 51.6477C95.4306 49.929 97.1996 48.5247 99.1976 47.5231C101.196 46.5216 103.379 45.9446 105.611 45.8283V78.2495L100.458 71.3788C99.9985 70.7641 99.4364 70.2331 98.7965 69.8093L102.398 68.6088L101.19 64.9878L84.0137 70.7134L85.2209 74.3344L88.8301 73.1315C88.4072 74.3151 88.3246 75.5935 88.5916 76.8217L84.013 78.3485L85.2197 81.9699L90.4042 80.2425L92.5699 83.1291L84.0137 85.9817L85.2209 89.6026L94.9849 86.3474L97.4116 89.5828C94.9193 92.5887 93.4461 96.3086 93.2047 100.206C92.9633 104.103 93.9661 107.977 96.0685 111.267V116.42C96.0685 116.926 96.2695 117.412 96.6275 117.77C96.9854 118.128 97.4708 118.329 97.977 118.329H117.062C117.568 118.329 118.054 118.128 118.412 117.77C118.77 117.412 118.971 116.926 118.971 116.42V70.2926C118.973 68.6197 118.607 66.9668 117.9 65.4507C117.193 63.9346 116.161 62.5924 114.878 61.5188ZM105.611 25.9286L103.144 23.4611C102.93 23.2472 102.668 23.0873 102.38 22.9944C102.093 22.9015 101.787 22.8783 101.488 22.9267C101.19 22.9752 100.907 23.0939 100.664 23.273C100.42 23.4521 100.222 23.6866 100.087 23.957L95.2149 33.7013L89.2879 30.7378C88.9032 30.5454 88.4647 30.4886 88.0436 30.5766C87.6225 30.6646 87.2435 30.8924 86.9681 31.2228L80.8002 38.6236V16.6436L105.611 8.37341V25.9286ZM46.4467 31.7157L55.3843 27.2469L58.8998 32.1699L52.9357 36.6435L55.2259 39.6972L61.1185 35.2768L63.9789 39.2797C64.14 39.5052 64.3483 39.693 64.5893 39.8299C64.8304 39.9668 65.0983 40.0496 65.3746 40.0724C65.6508 40.0953 65.9287 40.0577 66.189 39.9623C66.4492 39.8669 66.6856 39.7159 66.8815 39.5199L70.961 35.4404L76.9832 44.4737V52.648L76.6346 52.2994C74.5865 50.2628 72.0484 48.7879 69.2649 48.0169C66.4813 47.2459 63.5461 47.2048 60.742 47.8974C58.812 48.3743 56.7983 48.4019 54.856 47.978C52.9137 47.5541 51.0945 46.69 49.5387 45.4523L46.4467 42.9786V31.7157ZM76.9832 16.7187V37.5933L72.8455 31.3867C72.6888 31.1518 72.482 30.9545 72.2399 30.8092C71.9979 30.6638 71.7265 30.574 71.4455 30.5462C71.1646 30.5184 70.8809 30.5533 70.615 30.6483C70.3491 30.7434 70.1077 30.8962 69.908 31.0959L65.7756 35.2286L57.5424 23.7013C57.278 23.3316 56.8903 23.0684 56.4491 22.959C56.0079 22.8497 55.5422 22.9014 55.1357 23.1049L46.4467 27.4482V8.23624L76.9832 16.7187ZM42.6296 8.37341V26.7192L38.0491 23.2838C37.6442 22.9801 37.1352 22.8497 36.6341 22.9213C36.133 22.9929 35.6809 23.2606 35.3772 23.6655L30.7967 29.7728L24.6894 25.1923C24.4818 25.0366 24.2446 24.9249 23.9923 24.864C23.74 24.8031 23.478 24.7942 23.2222 24.838C22.9663 24.8819 22.7222 24.9774 22.5045 25.1188C22.2869 25.2602 22.1004 25.4445 21.9564 25.6604L17.8187 31.8669V16.6436L42.6296 8.37341ZM28.0878 49.204C25.7103 52.0504 22.4327 54.0005 18.7968 54.7319L17.8187 54.9275V38.7482L24.0133 29.4565L30.0333 33.9716C30.2338 34.122 30.462 34.2314 30.7048 34.2936C30.9476 34.3558 31.2002 34.3696 31.4483 34.3341C31.6964 34.2987 31.9351 34.2147 32.1508 34.087C32.3665 33.9593 32.5549 33.7904 32.7052 33.5899L37.2857 27.4826L42.6296 31.4905V42.0077C39.8374 42.1245 37.1008 42.8253 34.5961 44.0648C32.0914 45.3043 29.8743 47.055 28.0878 49.204ZM46.4467 90.1585V47.8669L47.1543 48.433C49.1698 50.0361 51.5262 51.1554 54.0423 51.7048C56.5584 52.2541 59.1669 52.2188 61.6672 51.6016C63.8317 51.0669 66.0974 51.0987 68.246 51.6938C70.3947 52.289 72.3538 53.4274 73.9348 54.9995L76.9832 58.0463V98.641L46.4467 90.1585ZM93.7654 46.5278L89.7839 42.5464C89.5843 42.3467 89.3428 42.1938 89.0769 42.0988C88.811 42.0037 88.5274 41.9689 88.2464 41.9967C87.9654 42.0245 87.6941 42.1143 87.452 42.2597C87.2099 42.405 87.0031 42.6022 86.8465 42.8372L83.0294 48.5628L86.2052 50.6803L88.7309 46.8916L91.0571 49.2179C88.6806 52.0568 85.408 54.0016 81.7784 54.7319L80.8002 54.9275V44.5878L88.933 34.8287L95.2149 37.9697C95.6676 38.1961 96.1917 38.2333 96.6719 38.0733C97.1521 37.9133 97.549 37.5691 97.7754 37.1164L102.317 28.0334L105.611 31.3268V42.0077C101.277 42.1888 97.1187 43.7754 93.7654 46.5278Z" fill="white"/>
<path d="M23.862 35.2033L20.0449 40.9288L23.2207 43.0464L25.9793 38.9087L30.1167 41.667L32.2342 38.4912L26.5086 34.6741C26.0875 34.3933 25.5721 34.2913 25.0757 34.3906C24.5794 34.4898 24.1428 34.7821 23.862 35.2033Z" fill="white"/>
</svg>
