<svg width="120" height="120" viewBox="0 0 120 120" fill="none" xmlns="http://www.w3.org/2000/svg">
<path d="M17.5905 0H3.53203C1.59117 0 0.0175781 1.57359 0.0175781 3.51469V17.8076C0.0175781 19.7487 1.59094 21.3223 3.53227 21.3223C5.47336 21.3223 7.04695 19.7487 7.04695 17.8076V7.02938H17.5908C19.5319 7.02938 21.1055 5.45578 21.1055 3.51469C21.1052 1.57359 19.5316 0 17.5905 0Z" fill="white"/>
<path d="M17.5908 112.937H7.04695V102.159C7.04695 100.218 5.47336 98.644 3.53227 98.644C1.59117 98.644 0.0175781 100.218 0.0175781 102.159V116.452C0.0175781 118.393 1.59094 119.966 3.53227 119.966H17.5908C19.5319 119.966 21.1055 118.393 21.1055 116.452C21.1055 114.511 19.5319 112.937 17.5908 112.937Z" fill="white"/>
<path d="M116.468 0H102.409C100.468 0 98.8945 1.57359 98.8945 3.51469C98.8945 5.45578 100.468 7.02938 102.409 7.02938H112.953V17.8076C112.953 19.7487 114.527 21.3223 116.468 21.3223C118.409 21.3223 119.982 19.7487 119.982 17.8076V3.51469C119.982 1.57359 118.409 0 116.468 0Z" fill="white"/>
<path d="M116.468 98.644C114.527 98.644 112.953 100.218 112.953 102.159V112.937H102.409C100.468 112.937 98.8945 114.511 98.8945 116.452C98.8945 118.393 100.468 119.966 102.409 119.966H116.468C118.409 119.966 119.982 118.393 119.982 116.452V102.159C119.982 100.218 118.409 98.644 116.468 98.644Z" fill="white"/>
<path d="M110.713 28.8329L61.7627 0.473066C60.673 -0.15834 59.3284 -0.15834 58.2388 0.473066L9.26898 28.8327C8.18945 29.4582 7.51562 30.6228 7.51562 31.8716C7.51562 31.8786 7.51633 31.8856 7.51633 31.8924V88.1246C7.51633 89.3853 8.20141 90.5652 9.30461 91.1863L58.2391 119.526C58.7662 119.831 59.3934 119.999 60.0011 119.999C60.6355 119.999 61.2555 119.82 61.7631 119.526L110.678 91.186C110.686 91.1814 110.694 91.1767 110.702 91.172C111.836 90.354 112.447 89.6666 112.464 88.1671C112.464 88.153 112.465 88.1392 112.465 88.1251V31.8929C112.465 31.8859 112.466 31.8788 112.466 31.8721C112.466 30.6221 111.792 29.4573 110.713 28.8329ZM56.4862 110.387L18.0895 88.1406L47.6908 71.165C49.3748 70.1994 49.957 68.0516 48.9911 66.3678C48.0257 64.6839 45.8779 64.1019 44.1939 65.0675L14.545 82.0578V37.9468L56.4862 62.0335V110.387ZM60.0009 55.9461L18.0843 31.8615L60.0009 7.57604L101.917 31.8615L60.0009 55.9461ZM105.459 82.0578L75.8078 65.0673C74.1241 64.1019 71.9763 64.6836 71.0106 66.3676C70.0448 68.0516 70.627 70.1992 72.3109 71.1648L101.912 88.1401L63.5153 110.386V62.0335L105.459 37.9468V82.0578H105.459Z" fill="white"/>
</svg>
