<svg width="120" height="120" viewBox="0 0 120 120" fill="none" xmlns="http://www.w3.org/2000/svg">
<path d="M68.5718 12.2446H64.8984V15.918H68.5718V12.2446Z" fill="white"/>
<path d="M75.9197 12.2446H72.2461V15.918H75.9197V12.2446Z" fill="white"/>
<path d="M45.9195 76.1631H42.2461V88.7753H45.9195V76.1631Z" fill="white"/>
<path d="M45.9195 92.4487H42.2461V96.1221H45.9195V92.4487Z" fill="white"/>
<path d="M88.7759 11.3878V4.04086H85.1025V6.12258H83.8781V0H36.1226V6.12234H34.8982V4.04063H31.2248V11.3876H34.8982V9.7957H36.1226V100.408H31.2246V115.102H36.1226V120H47.1429V115.102H72.8571V120H83.8774V115.102H88.7754V100.408H83.8774V9.79594H85.1018V11.3878H88.7759ZM39.7962 3.67336H80.2043V6.12234H39.7962V3.67336ZM39.7962 9.79594H80.2043V100.408H39.7962V9.79594ZM43.4695 116.327H39.7959V115.102H43.4695V116.327ZM80.2043 116.327H76.5309V115.102H80.2043V116.327ZM85.1023 111.429H34.8982V109.592H85.1023V111.429ZM85.1023 104.082V105.919H34.8982V104.082H85.1023Z" fill="white"/>
</svg>
