<svg width="120" height="120" viewBox="0 0 120 120" fill="none" xmlns="http://www.w3.org/2000/svg">
<g clip-path="url(#clip0)">
<path d="M84.8946 95.5714H3.51563V24.4287H17.5022C18.473 24.4287 19.26 23.6417 19.26 22.6709C19.26 21.7001 18.473 20.9131 17.5022 20.9131H3.23227C1.45008 20.9131 0 22.3632 0 24.1456V95.8547C0 97.6372 1.45008 99.087 3.23227 99.087H84.8946C85.8654 99.087 86.6524 98.3 86.6524 97.3292C86.6524 96.3582 85.8654 95.5714 84.8946 95.5714Z" fill="white"/>
<path d="M116.768 20.9131H24.5332C23.5624 20.9131 22.7754 21.7001 22.7754 22.6709C22.7754 23.6417 23.5624 24.4287 24.5332 24.4287H116.484V95.5711H91.9256C90.9548 95.5711 90.1678 96.3582 90.1678 97.3289C90.1678 98.2997 90.9548 99.0868 91.9256 99.0868H116.768C118.55 99.0868 120 97.6369 120 95.8545V24.1456C120 22.3632 118.55 20.9131 116.768 20.9131Z" fill="white"/>
<path d="M61.7578 82.7197V32.7788C61.7578 31.808 60.9708 31.021 60 31.021C59.0292 31.021 58.2422 31.808 58.2422 32.7788V82.7197C58.2422 83.6905 59.0292 84.4775 60 84.4775C60.9708 84.4775 61.7578 83.6905 61.7578 82.7197Z" fill="white"/>
<path d="M110.183 48.8717C111.153 48.8717 111.94 48.0847 111.94 47.1139V33.9507C111.94 32.9799 111.153 32.1929 110.183 32.1929H93.8457C92.8749 32.1929 92.0879 32.9799 92.0879 33.9507V47.1139C92.0879 48.0847 92.8749 48.8717 93.8457 48.8717H110.183ZM95.6037 35.7085H108.425V45.3561H95.6037V35.7085Z" fill="white"/>
<path d="M73.459 76.4282H106.665C107.636 76.4282 108.423 75.6412 108.423 74.6704C108.423 73.6996 107.636 72.9126 106.665 72.9126H73.459C72.4882 72.9126 71.7012 73.6996 71.7012 74.6704C71.7012 75.6412 72.4882 76.4282 73.459 76.4282Z" fill="white"/>
<path d="M73.459 65.1235H90.0621C91.0329 65.1235 91.8199 64.3365 91.8199 63.3657C91.8199 62.3949 91.0329 61.6079 90.0621 61.6079H73.459C72.4882 61.6079 71.7012 62.3949 71.7012 63.3657C71.7012 64.3365 72.4882 65.1235 73.459 65.1235Z" fill="white"/>
<path d="M73.459 87.7319H106.665C107.636 87.7319 108.423 86.9449 108.423 85.9741C108.423 85.0033 107.636 84.2163 106.665 84.2163H73.459C72.4882 84.2163 71.7012 85.0033 71.7012 85.9741C71.7012 86.9449 72.4882 87.7319 73.459 87.7319Z" fill="white"/>
<path d="M14.1914 86.3525H47.3977C48.3684 86.3525 49.1555 85.5655 49.1555 84.5947C49.1555 83.6239 48.3684 82.8369 47.3977 82.8369H14.1914C13.2206 82.8369 12.4336 83.6239 12.4336 84.5947C12.4336 85.5655 13.2206 86.3525 14.1914 86.3525Z" fill="white"/>
<path d="M17.4414 52.822C17.4414 60.1858 23.4325 66.1769 30.7961 66.1769C38.1599 66.1769 44.1508 60.1858 44.1508 52.822C44.1508 45.4581 38.1599 39.4673 30.7961 39.4673C23.4323 39.4673 17.4414 45.4584 17.4414 52.822ZM30.7961 42.9829C36.2214 42.9829 40.6352 47.3969 40.6352 52.822C40.6352 58.2473 36.2214 62.6613 30.7961 62.6613C25.3708 62.6613 20.957 58.2473 20.957 52.822C20.957 47.3969 25.3708 42.9829 30.7961 42.9829Z" fill="white"/>
<path d="M30.7946 59.8542C34.4042 59.8542 37.3412 56.9175 37.3412 53.3076C37.3412 52.3368 36.5541 51.5498 35.5834 51.5498C34.6126 51.5498 33.8255 52.3368 33.8255 53.3076C33.8255 54.9789 32.4659 56.3386 30.7946 56.3386C29.1233 56.3386 27.7637 54.9789 27.7637 53.3076C27.7637 52.3368 26.9766 51.5498 26.0059 51.5498C25.0351 51.5498 24.248 52.3368 24.248 53.3076C24.248 56.9175 27.1848 59.8542 30.7946 59.8542Z" fill="white"/>
<path d="M32.5527 35.2679V32.7788C32.5527 31.808 31.7657 31.021 30.7949 31.021C29.8241 31.021 29.0371 31.808 29.0371 32.7788V35.2679C29.0371 36.2387 29.8241 37.0257 30.7949 37.0257C31.7657 37.0257 32.5527 36.2387 32.5527 35.2679Z" fill="white"/>
<path d="M43.726 37.4065L41.966 39.1664C41.2796 39.8529 41.2796 40.9659 41.966 41.6522C42.3092 41.9953 42.7592 42.1671 43.2089 42.1671C43.6587 42.1671 44.1087 41.9955 44.4518 41.6522L46.2117 39.8922C46.8982 39.2058 46.8982 38.0927 46.2117 37.4065C45.5255 36.72 44.4124 36.72 43.726 37.4065Z" fill="white"/>
<path d="M52.5965 52.8223C52.5965 51.8515 51.8095 51.0645 50.8387 51.0645H48.3496C47.3788 51.0645 46.5918 51.8515 46.5918 52.8223C46.5918 53.793 47.3788 54.5801 48.3496 54.5801H50.8387C51.8095 54.5801 52.5965 53.7933 52.5965 52.8223Z" fill="white"/>
<path d="M44.9689 68.753C45.4186 68.753 45.8686 68.5815 46.2117 68.2381C46.8982 67.5516 46.8982 66.4386 46.2117 65.7523L44.4518 63.9924C43.7653 63.3059 42.6523 63.3059 41.966 63.9924C41.2796 64.6789 41.2796 65.7919 41.966 66.4782L43.726 68.2381C44.0691 68.5812 44.5191 68.753 44.9689 68.753Z" fill="white"/>
<path d="M32.5527 72.866V70.377C32.5527 69.4062 31.7657 68.6191 30.7949 68.6191C29.8241 68.6191 29.0371 69.4062 29.0371 70.377V72.866C29.0371 73.8368 29.8241 74.6238 30.7949 74.6238C31.7657 74.6238 32.5527 73.8368 32.5527 72.866Z" fill="white"/>
<path d="M16.6211 68.753C17.0708 68.753 17.5208 68.5815 17.864 68.2383L19.6241 66.4784C20.3106 65.7919 20.3106 64.6789 19.6243 63.9924C18.9379 63.3059 17.8248 63.3059 17.1383 63.9924L15.3782 65.7523C14.6917 66.4388 14.6917 67.5519 15.3779 68.2383C15.7213 68.5815 16.1713 68.753 16.6211 68.753Z" fill="white"/>
<path d="M13.241 51.0645H10.752C9.78117 51.0645 8.99414 51.8515 8.99414 52.8223C8.99414 53.793 9.78117 54.5801 10.752 54.5801H13.241C14.2118 54.5801 14.9988 53.793 14.9988 52.8223C14.9988 51.8515 14.2118 51.0645 13.241 51.0645Z" fill="white"/>
<path d="M15.38 37.4065C14.6935 38.0929 14.6937 39.206 15.3802 39.8925L17.1404 41.6524C17.4837 41.9958 17.9335 42.1673 18.3833 42.1673C18.833 42.1673 19.283 41.9958 19.6264 41.6524C20.3129 40.9659 20.3126 39.8529 19.6262 39.1664L17.866 37.4065C17.1793 36.72 16.0665 36.72 15.38 37.4065Z" fill="white"/>
</g>
<defs>
<clipPath id="clip0">
<rect width="120" height="120" fill="white"/>
</clipPath>
</defs>
</svg>
