<svg width="102" height="121" viewBox="0 0 102 121" fill="none" xmlns="http://www.w3.org/2000/svg">
<path d="M30.7232 86.4832H26.7007C25.59 86.4832 24.6895 87.3837 24.6895 88.4944C24.6895 89.6051 25.59 90.5056 26.7007 90.5056H30.7232C31.8339 90.5056 32.7344 89.6051 32.7344 88.4944C32.7344 87.3837 31.8339 86.4832 30.7232 86.4832Z" fill="white"/>
<path d="M87.0407 86.4832H38.771C37.6603 86.4832 36.7598 87.3837 36.7598 88.4944C36.7598 89.6051 37.6603 90.5056 38.771 90.5056H87.0407C88.1514 90.5056 89.052 89.6051 89.052 88.4944C89.052 87.3837 88.1514 86.4832 87.0407 86.4832Z" fill="white"/>
<path d="M30.7232 74.4158H26.7007C25.59 74.4158 24.6895 75.3163 24.6895 76.427C24.6895 77.5377 25.59 78.4382 26.7007 78.4382H30.7232C31.8339 78.4382 32.7344 77.5377 32.7344 76.427C32.7344 75.3163 31.8339 74.4158 30.7232 74.4158Z" fill="white"/>
<path d="M87.0407 74.4158H38.771C37.6603 74.4158 36.7598 75.3163 36.7598 76.427C36.7598 77.5377 37.6603 78.4382 38.771 78.4382H87.0407C88.1514 78.4382 89.052 77.5377 89.052 76.427C89.052 75.3163 88.1514 74.4158 87.0407 74.4158Z" fill="white"/>
<path d="M30.7232 62.3484H26.7007C25.59 62.3484 24.6895 63.2489 24.6895 64.3596C24.6895 65.4703 25.59 66.3709 26.7007 66.3709H30.7232C31.8339 66.3709 32.7344 65.4703 32.7344 64.3596C32.7344 63.2489 31.8339 62.3484 30.7232 62.3484Z" fill="white"/>
<path d="M87.0407 62.3484H38.771C37.6603 62.3484 36.7598 63.2489 36.7598 64.3596C36.7598 65.4703 37.6603 66.3709 38.771 66.3709H87.0407C88.1514 66.3709 89.052 65.4703 89.052 64.3596C89.052 63.2489 88.1514 62.3484 87.0407 62.3484Z" fill="white"/>
<path d="M30.7232 50.281H26.7007C25.59 50.281 24.6895 51.1815 24.6895 52.2922C24.6895 53.403 25.59 54.3035 26.7007 54.3035H30.7232C31.8339 54.3035 32.7344 53.403 32.7344 52.2922C32.7344 51.1815 31.8339 50.281 30.7232 50.281Z" fill="white"/>
<path d="M87.0407 50.281H38.771C37.6603 50.281 36.7598 51.1815 36.7598 52.2922C36.7598 53.403 37.6603 54.3035 38.771 54.3035H87.0407C88.1514 54.3035 89.052 53.403 89.052 52.2922C89.052 51.1815 88.1514 50.281 87.0407 50.281Z" fill="white"/>
<path d="M30.7232 38.2131H26.7007C25.59 38.2131 24.6895 39.1137 24.6895 40.2244C24.6895 41.3351 25.59 42.2356 26.7007 42.2356H30.7232C31.8339 42.2356 32.7344 41.3351 32.7344 40.2244C32.7344 39.1137 31.8339 38.2131 30.7232 38.2131Z" fill="white"/>
<path d="M87.0407 38.2131H38.771C37.6603 38.2131 36.7598 39.1137 36.7598 40.2244C36.7598 41.3351 37.6603 42.2356 38.771 42.2356H87.0407C88.1514 42.2356 89.052 41.3351 89.052 40.2244C89.052 39.1137 88.1514 38.2131 87.0407 38.2131Z" fill="white"/>
<path d="M101.094 30.0419C101.084 29.8656 101.05 29.6917 100.992 29.525C100.97 29.4606 100.954 29.3983 100.925 29.3359C100.828 29.1172 100.691 28.9176 100.523 28.7466L72.3659 0.589293C72.1949 0.421103 71.9953 0.284842 71.7766 0.187045C71.7142 0.158888 71.6519 0.142798 71.5895 0.120674C71.4213 0.0628512 71.2461 0.0276545 71.0686 0.0160899C71.0344 0.0221236 70.9962 0 70.952 0H14.6373C13.5266 0 12.626 0.900532 12.626 2.01124V8.04496H2.56983C1.45913 8.04496 0.558594 8.94549 0.558594 10.0562V118.663C0.558594 119.774 1.45913 120.674 2.56983 120.674H87.0419C88.1526 120.674 89.0531 119.774 89.0531 118.663V108.607H99.1093C100.22 108.607 101.121 107.706 101.121 106.596V30.1686C101.121 30.1243 101.098 30.0861 101.094 30.0419ZM72.9632 6.86637L94.2542 28.1573H72.9632V6.86637ZM85.0306 116.652H4.58107V12.0674H12.626V106.596C12.626 107.706 13.5266 108.607 14.6373 108.607H85.0306V116.652ZM97.0981 104.584H16.6485V4.02248H68.9407V30.1686C68.9407 31.2793 69.8413 32.1798 70.952 32.1798H97.0981V104.584Z" fill="white"/>
<path d="M38.7681 18.1013H26.7007C25.59 18.1013 24.6895 19.0019 24.6895 20.1126V32.18C24.6895 33.2907 25.59 34.1912 26.7007 34.1912H38.7681C39.8788 34.1912 40.7794 33.2907 40.7794 32.18V20.1126C40.7794 19.0019 39.8788 18.1013 38.7681 18.1013ZM36.7569 30.1688H28.7119V22.1238H36.7569V30.1688Z" fill="white"/>
</svg>
