<svg width="123" height="123" viewBox="0 0 123 123" fill="none" xmlns="http://www.w3.org/2000/svg">
<path d="M12.2165 71.2545H50.8977C53.2217 71.1715 55.0418 69.2259 54.9695 66.9015V24.8921C55.0332 22.8024 53.5666 20.9773 51.512 20.5898L12.8327 14.3012C11.7011 14.1199 10.5471 14.4472 9.67943 15.1958C8.69196 16.0511 8.13082 17.2972 8.14466 18.6034V66.9015C8.07237 69.2259 9.89248 71.1718 12.2165 71.2545ZM12.2165 18.6037C12.2165 18.4496 12.2682 18.3551 12.2284 18.3284L50.7963 24.586C50.8688 24.6709 50.9051 24.7807 50.8977 24.8921V57.7568L38.1677 43.4355C37.7953 43.0166 37.2663 42.7699 36.7062 42.7536C36.146 42.7374 35.6037 42.9526 35.2074 43.3491L29.1456 49.41L23.9284 43.4474C23.5446 43.0096 22.9918 42.7567 22.4094 42.7527C21.8333 42.7744 21.2869 43.0156 20.8825 43.4267L12.2165 53.0554V18.6037ZM12.2165 59.1413L22.3739 47.8551L35.1139 62.4162C35.8552 63.2601 37.1397 63.3445 37.9852 62.6049C38.8304 61.8653 38.9175 60.5811 38.1796 59.7341L31.8325 52.4804L36.5592 47.7547L50.8977 63.8849V66.9017C50.902 67.0012 50.875 67.0997 50.8201 67.183L12.3178 67.2088C12.2448 67.1238 12.2083 67.0134 12.2165 66.9017V59.1413Z" fill="white"/>
<path d="M111.685 20.3788L68.932 26.4864C67.8746 26.6371 67.1136 27.5795 67.1887 28.645C67.2641 29.7105 68.1502 30.5367 69.2183 30.5372C69.3154 30.5372 69.4125 30.53 69.5086 30.5164L112.262 24.4088C112.983 24.3072 113.595 23.8281 113.866 23.1525C114.138 22.4768 114.028 21.7074 113.578 21.1351C113.127 20.5625 112.406 20.2743 111.685 20.3788Z" fill="white"/>
<path d="M69.2166 42.7527C69.2803 42.7527 69.3459 42.7498 69.4115 42.7438L112.165 38.6721C113.282 38.5628 114.1 37.5701 113.993 36.4528C113.887 35.3356 112.897 34.5148 111.779 34.6181L69.0258 38.6899C67.9445 38.7935 67.135 39.7273 67.1859 40.8123C67.2369 41.8971 68.1304 42.751 69.2166 42.7527Z" fill="white"/>
<path d="M111.972 50.896H69.2194C68.095 50.896 67.1836 51.8074 67.1836 52.9318C67.1836 54.0562 68.095 54.9676 69.2194 54.9676H111.972C113.097 54.9676 114.008 54.0562 114.008 52.9318C114.008 51.8074 113.097 50.896 111.972 50.896Z" fill="white"/>
<path d="M111.972 63.1116H69.2194C68.095 63.1116 67.1836 64.0232 67.1836 65.1473C67.1836 66.2718 68.095 67.1831 69.2194 67.1831H111.972C113.097 67.1831 114.008 66.2715 114.008 65.1473C114.008 64.0229 113.097 63.1116 111.972 63.1116Z" fill="white"/>
<path d="M120.038 1.4978C118.713 0.340222 116.95 -0.184648 115.207 0.0594164L61.0757 7.60203L6.94451 0.0594164C5.2017 -0.186557 3.4379 0.338552 2.11332 1.4978C0.7687 2.66945 -0.00214272 4.36645 4.47385e-06 6.15005V116.001C-0.00214272 117.785 0.7687 119.482 2.11332 120.653C3.22032 121.618 4.63914 122.15 6.10758 122.15C6.38767 122.151 6.66728 122.131 6.94451 122.092L61.0757 114.549L115.207 122.092C115.484 122.131 115.764 122.151 116.044 122.15C117.512 122.149 118.931 121.618 120.038 120.653C121.383 119.481 122.154 117.784 122.151 116.001V6.15005C122.154 4.36645 121.383 2.66945 120.038 1.4978ZM6.38385 118.06C5.80721 118.144 5.22293 117.969 4.78729 117.582C4.32803 117.186 4.06631 116.607 4.07156 116.001V87.6967L34.9196 86.2125C40.2938 85.941 45.3547 88.7493 47.9678 93.4533L57.8309 110.891L6.38385 118.06ZM59.04 104.76L51.5109 91.4492C48.1282 85.4202 41.6305 81.8184 34.7251 82.1447L4.07204 83.6199V6.15005C4.06679 5.54359 4.32851 4.96552 4.78777 4.56948C5.14969 4.24883 5.61635 4.07157 6.09994 4.07133C6.19514 4.07157 6.29009 4.07825 6.38433 4.09113L59.0402 11.4283V104.76H59.04ZM118.08 116.001C118.085 116.607 117.823 117.185 117.364 117.581C116.929 117.97 116.344 118.145 115.767 118.059L64.3204 110.891L74.1834 93.453C76.7999 88.7524 81.8584 85.9453 87.2317 86.2122L118.08 87.6964V116.001ZM118.08 83.6196L87.4266 82.1447C80.5191 81.81 74.0174 85.4139 70.6408 91.4492L63.1118 104.76V11.4286L115.768 4.09137C116.344 4.01025 116.927 4.18489 117.364 4.56948C117.823 4.96552 118.085 5.54359 118.08 6.15005V83.6196H118.08Z" fill="white"/>
<path d="M40.7169 40.7171C44.09 40.7171 46.8245 37.9825 46.8245 34.6095C46.8245 31.2365 44.0902 28.502 40.7169 28.502C37.3437 28.502 34.6094 31.2363 34.6094 34.6095C34.613 37.9811 37.3454 40.7135 40.7169 40.7171ZM40.7169 32.5737C41.8414 32.5737 42.7527 33.4851 42.7527 34.6095C42.7527 35.7339 41.8414 36.6453 40.7169 36.6453C39.5925 36.6453 38.6812 35.7337 38.6812 34.6095C38.6821 33.4856 39.593 32.5749 40.7169 32.5737Z" fill="white"/>
</svg>
