<svg width="116" height="118" viewBox="0 0 116 118" fill="none" xmlns="http://www.w3.org/2000/svg">
<path d="M115.791 47.1403L102.901 9.64034C102.798 9.34505 102.624 9.07986 102.394 8.86872C102.164 8.65758 101.884 8.50714 101.581 8.43097L71.5811 0.930966C71.3047 0.861876 71.0162 0.856684 70.7374 0.915785C70.4587 0.974885 70.1972 1.09672 69.9726 1.27205C69.748 1.44737 69.5663 1.67157 69.4414 1.92761C69.3164 2.18365 69.2514 2.46481 69.2514 2.74972C69.2514 7.92003 64.2053 12.1247 58.0014 12.1247C51.7975 12.1247 46.7514 7.92003 46.7514 2.74972C46.7513 2.46481 46.6863 2.18365 46.5614 1.92761C46.4364 1.67157 46.2547 1.44737 46.0302 1.27205C45.8056 1.09672 45.544 0.974885 45.2653 0.915785C44.9866 0.856684 44.6981 0.861876 44.4217 0.930966L14.4216 8.43097C14.1186 8.50714 13.8392 8.65758 13.6089 8.86872C13.3785 9.07986 13.2043 9.34505 13.1021 9.64034L0.211462 47.1403C0.129703 47.3778 0.096507 47.6292 0.113848 47.8797C0.131188 48.1302 0.198711 48.3746 0.312404 48.5985C0.426096 48.8224 0.583637 49.0212 0.775664 49.183C0.96769 49.3447 1.19028 49.4663 1.43021 49.5403L24.2513 56.6302V115.25C24.2513 115.747 24.4489 116.224 24.8005 116.576C25.1521 116.927 25.6291 117.125 26.1263 117.125H89.8764C90.3737 117.125 90.8506 116.927 91.2022 116.576C91.5539 116.224 91.7514 115.747 91.7514 115.25V56.6302L114.573 49.5403C114.812 49.4663 115.035 49.3447 115.227 49.183C115.419 49.0212 115.577 48.8224 115.69 48.5985C115.804 48.3746 115.872 48.1302 115.889 47.8797C115.906 47.6292 115.873 47.3778 115.791 47.1403ZM88.0014 113.375H28.0013V107.75H88.0014V113.375ZM91.7514 52.7044V32.7497C91.7514 32.2524 91.5539 31.7755 91.2022 31.4239C90.8506 31.0723 90.3737 30.8747 89.8764 30.8747C89.3791 30.8747 88.9022 31.0723 88.5506 31.4239C88.199 31.7755 88.0014 32.2524 88.0014 32.7497V104H28.0013V32.7497C28.0013 32.2524 27.8038 31.7755 27.4522 31.4239C27.1005 31.0723 26.6236 30.8747 26.1263 30.8747C25.6291 30.8747 25.1521 31.0723 24.8005 31.4239C24.4489 31.7755 24.2513 32.2524 24.2513 32.7497V52.7044L4.38803 46.5333L16.3177 11.8224L43.2404 5.09112C44.506 11.2153 50.6443 15.8747 58.0014 15.8747C65.3584 15.8747 71.4967 11.2153 72.7623 5.09112L99.685 11.8224L111.615 46.5333L91.7514 52.7044Z" fill="white"/>
<path d="M58 36.5C55.4041 36.5 52.8665 37.2698 50.7081 38.712C48.5498 40.1542 46.8675 42.204 45.8741 44.6023C44.8807 47.0006 44.6208 49.6396 45.1272 52.1856C45.6336 54.7316 46.8837 57.0702 48.7192 58.9058C50.5548 60.7413 52.8934 61.9914 55.4394 62.4978C57.9854 63.0042 60.6244 62.7443 63.0227 61.7509C65.421 60.7575 67.4708 59.0753 68.913 56.9169C70.3552 54.7585 71.125 52.2209 71.125 49.625C71.1211 46.1452 69.737 42.8091 67.2765 40.3485C64.8159 37.888 61.4798 36.5039 58 36.5ZM58 59C56.1458 59 54.3332 58.4502 52.7915 57.42C51.2498 56.3899 50.0482 54.9257 49.3386 53.2127C48.6291 51.4996 48.4434 49.6146 48.8051 47.796C49.1669 45.9775 50.0598 44.307 51.3709 42.9959C52.682 41.6848 54.3525 40.7919 56.171 40.4301C57.9896 40.0684 59.8746 40.2541 61.5877 40.9636C63.3007 41.6732 64.7649 42.8748 65.795 44.4165C66.8252 45.9582 67.375 47.7708 67.375 49.625C67.3722 52.1105 66.3836 54.4935 64.626 56.251C62.8685 58.0086 60.4856 58.9972 58 59Z" fill="white"/>
<path d="M58 34.625C58.4973 34.625 58.9742 34.4275 59.3258 34.0758C59.6775 33.7242 59.875 33.2473 59.875 32.75V29C59.875 28.5027 59.6775 28.0258 59.3258 27.6742C58.9742 27.3225 58.4973 27.125 58 27.125C57.5027 27.125 57.0258 27.3225 56.6742 27.6742C56.3225 28.0258 56.125 28.5027 56.125 29V32.75C56.125 33.2473 56.3225 33.7242 56.6742 34.0758C57.0258 34.4275 57.5027 34.625 58 34.625Z" fill="white"/>
<path d="M58 64.625C57.5027 64.625 57.0258 64.8225 56.6742 65.1742C56.3225 65.5258 56.125 66.0027 56.125 66.5V70.25C56.125 70.7473 56.3225 71.2242 56.6742 71.5758C57.0258 71.9274 57.5027 72.125 58 72.125C58.4973 72.125 58.9742 71.9274 59.3258 71.5758C59.6775 71.2242 59.875 70.7473 59.875 70.25V66.5C59.875 66.0027 59.6775 65.5258 59.3258 65.1742C58.9742 64.8225 58.4973 64.625 58 64.625Z" fill="white"/>
<path d="M78.625 47.75H74.875C74.3777 47.75 73.9008 47.9475 73.5492 48.2992C73.1975 48.6508 73 49.1277 73 49.625C73 50.1223 73.1975 50.5992 73.5492 50.9508C73.9008 51.3025 74.3777 51.5 74.875 51.5H78.625C79.1223 51.5 79.5992 51.3025 79.9508 50.9508C80.3025 50.5992 80.5 50.1223 80.5 49.625C80.5 49.1277 80.3025 48.6508 79.9508 48.2992C79.5992 47.9475 79.1223 47.75 78.625 47.75Z" fill="white"/>
<path d="M43 49.625C43 49.1277 42.8025 48.6508 42.4508 48.2992C42.0992 47.9475 41.6223 47.75 41.125 47.75H37.375C36.8777 47.75 36.4008 47.9475 36.0492 48.2992C35.6975 48.6508 35.5 49.1277 35.5 49.625C35.5 50.1223 35.6975 50.5992 36.0492 50.9508C36.4008 51.3025 36.8777 51.5 37.375 51.5H41.125C41.6223 51.5 42.0992 51.3025 42.4508 50.9508C42.8025 50.5992 43 50.1223 43 49.625Z" fill="white"/>
<path d="M69.9337 39.5673C70.18 39.5677 70.4239 39.5194 70.6514 39.4251C70.879 39.3309 71.0856 39.1926 71.2595 39.0182L73.9113 36.3667C74.0854 36.1926 74.2235 35.9859 74.3178 35.7584C74.412 35.5308 74.4605 35.287 74.4605 35.0407C74.4605 34.7945 74.412 34.5506 74.3178 34.3231C74.2235 34.0956 74.0854 33.8889 73.9113 33.7148C73.7371 33.5406 73.5304 33.4025 73.3029 33.3083C73.0754 33.214 72.8315 33.1655 72.5853 33.1655C72.339 33.1655 72.0952 33.214 71.8677 33.3083C71.6402 33.4025 71.4334 33.5406 71.2593 33.7148L68.6078 36.3665C68.3456 36.6287 68.167 36.9628 68.0946 37.3265C68.0223 37.6903 68.0594 38.0673 68.2013 38.4099C68.3432 38.7525 68.5836 39.0453 68.8919 39.2514C69.2003 39.4574 69.5628 39.5674 69.9337 39.5673Z" fill="white"/>
<path d="M44.742 60.2318L42.0902 62.8833C41.7386 63.2349 41.541 63.7119 41.541 64.2092C41.541 64.7066 41.7386 65.1835 42.0902 65.5352C42.4419 65.8869 42.9189 66.0844 43.4162 66.0844C43.9136 66.0844 44.3905 65.8869 44.7422 65.5352L47.3937 62.8835C47.7453 62.5319 47.9428 62.0549 47.9428 61.5576C47.9428 61.0604 47.7453 60.5834 47.3937 60.2318C47.042 59.8802 46.5651 59.6826 46.0678 59.6826C45.5705 59.6826 45.0936 59.8802 44.742 60.2318Z" fill="white"/>
<path d="M44.742 39.0182C44.9161 39.1923 45.1228 39.3304 45.3503 39.4247C45.5777 39.5189 45.8216 39.5674 46.0678 39.5674C46.314 39.5674 46.5579 39.5189 46.7853 39.4247C47.0128 39.3304 47.2195 39.1923 47.3937 39.0182C47.5678 38.8441 47.7059 38.6374 47.8001 38.4099C47.8943 38.1824 47.9428 37.9386 47.9428 37.6923C47.9428 37.4461 47.8943 37.2023 47.8001 36.9748C47.7059 36.7473 47.5678 36.5406 47.3937 36.3665L44.7422 33.7148C44.3905 33.3631 43.9136 33.1655 43.4162 33.1655C42.9189 33.1655 42.4419 33.3631 42.0902 33.7148C41.7386 34.0664 41.541 34.5434 41.541 35.0407C41.541 35.5381 41.7386 36.015 42.0902 36.3667L44.742 39.0182Z" fill="white"/>
<path d="M71.2595 60.2318C70.9079 59.8802 70.431 59.6826 69.9337 59.6826C69.4364 59.6826 68.9594 59.8802 68.6078 60.2318C68.2561 60.5834 68.0586 61.0604 68.0586 61.5576C68.0586 62.0549 68.2561 62.5319 68.6078 62.8835L71.2593 65.5352C71.4334 65.7093 71.6402 65.8474 71.8677 65.9417C72.0952 66.0359 72.339 66.0844 72.5853 66.0844C72.8315 66.0844 73.0754 66.0359 73.3029 65.9417C73.5304 65.8474 73.7372 65.7093 73.9113 65.5352C74.0854 65.3611 74.2235 65.1543 74.3178 64.9268C74.412 64.6993 74.4605 64.4555 74.4605 64.2092C74.4605 63.963 74.412 63.7191 74.3178 63.4916C74.2235 63.2641 74.0854 63.0574 73.9113 62.8833L71.2595 60.2318Z" fill="white"/>
</svg>
