<svg width="114" height="114" viewBox="0 0 114 114" fill="none" xmlns="http://www.w3.org/2000/svg">
<path d="M108.964 7.95019L106.301 5.28769C103.137 2.12755 98.8481 0.352539 94.3762 0.352539C89.9043 0.352539 85.6152 2.12755 82.4512 5.28769L73.1699 14.5689L70.0574 11.4564C69.1268 10.538 67.9075 9.96922 66.6058 9.84622C65.3041 9.72323 63.9999 10.0536 62.9137 10.7814L47.0887 21.5439C37.139 28.3061 28.5571 36.888 21.7949 46.8377L11.0324 62.6627C10.3046 63.7489 9.97421 65.0531 10.0972 66.3548C10.2202 67.6565 10.789 68.8758 11.7074 69.8064L14.8199 72.9189L5.53867 82.2002C2.37853 85.3643 0.603516 89.6533 0.603516 94.1252C0.603516 98.5971 2.37853 102.886 5.53867 106.05L8.20117 108.713C11.3665 111.871 15.655 113.644 20.1262 113.644C24.5973 113.644 28.8859 111.871 32.0512 108.713L41.3324 99.4314L44.4449 102.544C44.9705 103.065 45.5939 103.478 46.2792 103.758C46.9645 104.038 47.6984 104.179 48.4387 104.175C49.5599 104.174 50.6557 103.841 51.5887 103.219L67.4137 92.4564C77.3633 85.6943 85.9452 77.1124 92.7074 67.1627L103.47 51.3377C104.092 50.4047 104.424 49.3089 104.426 48.1877C104.43 47.4474 104.289 46.7136 104.009 46.0282C103.729 45.3429 103.316 44.7195 102.795 44.1939L99.6824 41.0814L108.964 31.8002C112.124 28.6361 113.899 24.3471 113.899 19.8752C113.899 15.4033 112.124 11.1143 108.964 7.95019ZM29.4074 106.05C26.9443 108.509 23.6063 109.889 20.1262 109.889C16.646 109.889 13.3081 108.509 10.8449 106.05L8.20117 103.406C5.74267 100.943 4.3619 97.6053 4.3619 94.1252C4.3619 90.6451 5.74267 87.3071 8.20117 84.8439L17.4824 75.5627L18.7949 76.8939L9.51367 86.1752C7.40691 88.2846 6.22357 91.1439 6.22357 94.1252C6.22357 97.1065 7.40691 99.9658 9.51367 102.075L12.1762 104.738C14.2882 106.839 17.1466 108.019 20.1262 108.019C23.1058 108.019 25.9641 106.839 28.0762 104.738L37.3574 95.4564L38.6887 96.7689L29.4074 106.05ZM21.4574 79.5377L34.7137 92.7939L25.4324 102.075C24.0237 103.48 22.1155 104.269 20.1262 104.269C18.1368 104.269 16.2286 103.48 14.8199 102.075L12.1762 99.4314C10.7715 98.0227 9.98272 96.1145 9.98272 94.1252C9.98272 92.1358 10.7715 90.2277 12.1762 88.8189L21.4574 79.5377ZM100.132 46.8564C100.441 47.1651 100.633 47.5718 100.674 48.0065C100.715 48.4412 100.603 48.8767 100.357 49.2377L89.6137 65.0439C83.1075 74.6063 74.8573 82.8566 65.2949 89.3627L49.4887 100.106C49.1277 100.352 48.6922 100.464 48.2575 100.423C47.8228 100.382 47.416 100.19 47.1074 99.8814L38.6887 91.4814V91.4627L30.7387 83.5127L14.3699 67.1439C14.061 66.8353 13.8695 66.4286 13.8284 65.9939C13.7873 65.5591 13.8993 65.1237 14.1449 64.7627L24.8887 48.9564C31.3948 39.3941 39.6451 31.1438 49.2074 24.6377L65.0137 13.8939C65.3282 13.6793 65.7017 13.5679 66.0824 13.5752C66.5743 13.5773 67.0457 13.7725 67.3949 14.1189L75.8137 22.5189V22.5377L100.132 46.8564ZM79.7887 21.2064L89.0699 11.9252C90.4786 10.5205 92.3868 9.73174 94.3762 9.73174C96.3655 9.73174 98.2737 10.5205 99.6824 11.9252L102.326 14.5689C103.731 15.9776 104.52 17.8858 104.52 19.8752C104.52 21.8645 103.731 23.7727 102.326 25.1814L93.0449 34.4627L79.7887 21.2064ZM97.0199 38.4377L95.7074 37.1064L104.989 27.8252C107.095 25.7158 108.279 22.8564 108.279 19.8752C108.279 16.8939 107.095 14.0346 104.989 11.9252L102.326 9.26269C100.214 7.16096 97.3558 5.98109 94.3762 5.98109C91.3966 5.98109 88.5382 7.16096 86.4262 9.26269L77.1449 18.5439L75.8137 17.2314L85.0949 7.95019C87.5581 5.4917 90.896 4.11092 94.3762 4.11092C97.8563 4.11092 101.194 5.4917 103.657 7.95019L106.301 10.5939C108.76 13.0571 110.14 16.3951 110.14 19.8752C110.14 23.3553 108.76 26.6933 106.301 29.1564L97.0199 38.4377Z" fill="white"/>
<path d="M82.4414 39.7653C82.0898 39.4138 81.613 39.2163 81.1158 39.2163C80.6186 39.2163 80.1418 39.4138 79.7901 39.7653L40.0158 79.5397C39.8367 79.7126 39.6938 79.9195 39.5956 80.1483C39.4973 80.377 39.4456 80.6231 39.4434 80.872C39.4413 81.121 39.4887 81.3679 39.583 81.5983C39.6773 81.8288 39.8165 82.0381 39.9925 82.2141C40.1686 82.3902 40.3779 82.5294 40.6084 82.6237C40.8388 82.718 41.0857 82.7654 41.3347 82.7633C41.5836 82.7611 41.8296 82.7094 42.0584 82.6111C42.2872 82.5128 42.4941 82.37 42.667 82.1909L82.4414 42.4165C82.7929 42.0649 82.9904 41.5881 82.9904 41.0909C82.9904 40.5937 82.7929 40.1169 82.4414 39.7653Z" fill="white"/>
<path d="M74.4863 31.8095C74.1347 31.458 73.6579 31.2605 73.1607 31.2605C72.6635 31.2605 72.1867 31.458 71.8351 31.8095L32.0607 71.5838C31.8816 71.7568 31.7388 71.9637 31.6405 72.1925C31.5422 72.4212 31.4905 72.6673 31.4884 72.9162C31.4862 73.1652 31.5336 73.4121 31.6279 73.6425C31.7222 73.8729 31.8614 74.0823 32.0375 74.2583C32.2135 74.4344 32.4229 74.5736 32.6533 74.6679C32.8837 74.7622 33.1306 74.8096 33.3796 74.8074C33.6285 74.8053 33.8746 74.7536 34.1033 74.6553C34.3321 74.557 34.539 74.4142 34.7119 74.2351L74.4863 34.4607C74.8378 34.1091 75.0353 33.6323 75.0353 33.1351C75.0353 32.6379 74.8378 32.1611 74.4863 31.8095Z" fill="white"/>
<path d="M66.5312 23.8541C66.1796 23.5026 65.7028 23.3052 65.2056 23.3052C64.7084 23.3052 64.2316 23.5026 63.88 23.8541L24.1056 63.6304C23.9265 63.8034 23.7837 64.0103 23.6854 64.239C23.5872 64.4678 23.5354 64.7138 23.5333 64.9628C23.5311 65.2117 23.5786 65.4586 23.6728 65.6891C23.7671 65.9195 23.9063 66.1288 24.0824 66.3049C24.2584 66.4809 24.4678 66.6202 24.6982 66.7144C24.9286 66.8087 25.1755 66.8561 25.4245 66.854C25.6735 66.8518 25.9195 66.8001 26.1483 66.7018C26.377 66.6036 26.5839 66.4607 26.7569 66.2816L66.5312 26.5054C66.8828 26.1538 67.0802 25.677 67.0802 25.1798C67.0802 24.6826 66.8828 24.2058 66.5312 23.8541Z" fill="white"/>
<path d="M47.9728 87.4951C47.7937 87.6681 47.6509 87.875 47.5526 88.1038C47.4543 88.3325 47.4026 88.5786 47.4005 88.8275C47.3983 89.0765 47.4457 89.3234 47.54 89.5538C47.6343 89.7842 47.7735 89.9936 47.9496 90.1696C48.1256 90.3457 48.335 90.4849 48.5654 90.5792C48.7958 90.6735 49.0427 90.7209 49.2917 90.7187C49.5406 90.7166 49.7867 90.6648 50.0154 90.5666C50.2442 90.4683 50.4511 90.3255 50.6241 90.1464L90.3984 50.3702C90.5775 50.1972 90.7204 49.9903 90.8186 49.7615C90.9169 49.5328 90.9686 49.2867 90.9708 49.0378C90.9729 48.7888 90.9255 48.5419 90.8312 48.3115C90.7369 48.0811 90.5977 47.8717 90.4217 47.6957C90.2456 47.5196 90.0363 47.3804 89.8059 47.2861C89.5754 47.1918 89.3285 47.1444 89.0796 47.1466C88.8306 47.1487 88.5846 47.2004 88.3558 47.2987C88.127 47.397 87.9202 47.5398 87.7472 47.7189L47.9728 87.4951Z" fill="white"/>
</svg>
