<svg width="120" height="120" viewBox="0 0 120 120" fill="none" xmlns="http://www.w3.org/2000/svg">
<g clip-path="url(#clip0)">
<path d="M106.18 84.685C105.522 84.4122 104.764 84.5629 104.26 85.0666L85.0119 104.315C84.5082 104.819 84.3575 105.576 84.6304 106.234C84.9027 106.893 85.5454 107.322 86.2576 107.322H105.506C106.479 107.322 107.267 106.533 107.267 105.56V86.3121C107.267 85.5998 106.838 84.9576 106.18 84.685ZM90.5092 103.799L103.744 90.5644V103.799H90.5092Z" fill="white"/>
<path d="M118.913 56.4535C118.255 56.1807 117.497 56.3314 116.993 56.8351L111.718 62.1102V26.2435C111.718 25.2706 110.93 24.4821 109.957 24.4821H96.4239L101.336 19.5696C101.337 19.5689 101.338 19.568 101.339 19.5673L106.072 14.8338C107.086 13.8197 107.645 12.4706 107.645 11.0362C107.645 9.60186 107.086 8.25326 106.072 7.23865L100.598 1.76504C99.5843 0.7509 98.2352 0.192383 96.8008 0.192383C95.3664 0.192383 94.0176 0.7509 93.0032 1.76504L88.2674 6.50083L82.5449 12.2233L70.2864 24.4819H15.6141V7.05724C15.6141 6.08435 14.8254 5.29591 13.8528 5.29591C6.21447 5.29638 0 11.5104 0 19.1491V93.9585C0 94.0886 0.015 94.2151 0.0417188 94.337C0.285001 97.5782 1.68727 100.59 4.03079 102.876C6.53579 105.319 9.8426 106.664 13.3423 106.664H67.1638L57.0273 116.801C56.5236 117.305 56.3729 118.062 56.6455 118.721C56.9181 119.379 57.5605 119.808 58.2728 119.808H118.239C119.212 119.808 120 119.019 120 118.046V58.0808C120 57.3685 119.571 56.7261 118.913 56.4535ZM95.4946 4.25622C96.2146 3.53575 97.3877 3.53575 98.1077 4.25622L103.582 9.73006C104.302 10.4503 104.302 11.6229 103.582 12.3433L100.091 15.8337L92.0041 7.74654L95.4946 4.25622ZM89.5132 10.2375L97.6003 18.3244L94.3685 21.5562L86.2818 13.4693L89.5132 10.2375ZM116.478 77.8719H113.228C112.256 77.8719 111.467 78.6604 111.467 79.6332C111.467 80.6061 112.256 81.3946 113.228 81.3946H116.478V86.7022H113.228C112.256 86.7022 111.467 87.4907 111.467 88.4636C111.467 89.4365 112.256 90.2249 113.228 90.2249H116.478V95.5323H113.228C112.256 95.5323 111.467 96.3208 111.467 97.2937C111.467 98.2666 112.256 99.055 113.228 99.055H116.478V104.363H113.228C112.256 104.363 111.467 105.151 111.467 106.124C111.467 107.097 112.256 107.885 113.228 107.885H116.478V116.286H62.5248L80.3158 98.4951C81.0037 97.807 81.0037 96.692 80.3158 96.0041C80.2368 95.9252 80.152 95.8567 80.0631 95.7958C79.3773 95.3261 78.4338 95.3952 77.8246 96.0041L70.6865 103.142H13.3425C8.00064 103.142 3.70032 98.9718 3.5311 93.6395C3.54118 93.3048 3.56719 92.973 3.60891 92.6448C3.60915 92.643 3.60938 92.6411 3.60962 92.6392C3.6293 92.4834 3.65298 92.3282 3.67993 92.174C3.68298 92.1564 3.68626 92.1388 3.6893 92.1212C3.71391 91.9837 3.74157 91.8468 3.7718 91.7104C3.78024 91.6724 3.78915 91.6344 3.79805 91.5967C3.82477 91.4814 3.8536 91.3668 3.88454 91.2526C3.90141 91.1908 3.91899 91.1296 3.93704 91.068C3.96282 90.9784 3.98954 90.8891 4.0179 90.8008C4.04626 90.7124 4.07649 90.625 4.1072 90.5376C4.12852 90.4764 4.14962 90.4152 4.17259 90.3545C4.21548 90.2392 4.26095 90.1251 4.30782 90.0119C4.32118 89.9793 4.33431 89.9462 4.34813 89.9137C4.40837 89.773 4.47095 89.634 4.53704 89.4967C4.53985 89.4908 4.54243 89.485 4.54524 89.4791C5.9229 86.6282 8.57252 84.5026 11.7523 83.8431C11.7612 83.8412 11.7701 83.8391 11.779 83.8372C11.9248 83.8075 12.072 83.7819 12.2201 83.7583C12.2447 83.7543 12.2693 83.7493 12.2944 83.7456C12.4282 83.7252 12.5635 83.7093 12.6987 83.694C12.7367 83.6898 12.7744 83.684 12.8126 83.6802C12.9432 83.6671 13.0749 83.6584 13.2066 83.6502C13.2483 83.6476 13.29 83.6432 13.3317 83.6411C13.5042 83.6324 13.6782 83.6279 13.8528 83.6279C14.8254 83.6279 15.6141 82.8395 15.6141 81.8666V69.0957C15.6141 68.1228 14.8254 67.3344 13.8528 67.3344C12.8801 67.3344 12.0914 68.1228 12.0914 69.0957V80.2161C9.11721 80.5923 6.3565 81.9189 4.17962 84.0447C3.95063 84.2682 3.7336 84.5008 3.52219 84.737V19.1491C3.52219 14.0536 7.23142 9.8074 12.0912 8.96881V26.2435V62.0506V62.0509C12.0912 63.0235 12.8799 63.8122 13.8525 63.8122C14.8252 63.8122 15.6139 63.0235 15.6139 62.0509V62.0506V28.0048H66.764L57.0271 37.7417C56.3392 38.4298 56.3392 39.5447 57.0271 40.2326C57.715 40.9203 58.8301 40.9203 59.5178 40.2326L72.2615 27.4889C72.2619 27.4885 72.2622 27.488 72.2626 27.4878L83.7904 15.96L91.8771 24.0471L90.9283 24.9959C90.9276 24.9966 90.9267 24.9973 90.926 24.998L55.4115 60.5129L47.3246 52.426L54.325 45.4257C55.0128 44.7375 55.0128 43.6226 54.325 42.9347C53.6371 42.2471 52.5219 42.2471 51.8342 42.9347L43.5882 51.1805C43.5442 51.2246 43.5029 51.2712 43.4642 51.319C43.4513 51.335 43.4399 51.3521 43.4277 51.3687C43.4028 51.4018 43.3784 51.4351 43.3557 51.4697C43.3428 51.4899 43.3311 51.5105 43.3189 51.5314C43.2995 51.5642 43.2807 51.5975 43.2636 51.6315C43.2524 51.6535 43.2423 51.6758 43.232 51.6987C43.2163 51.7332 43.2017 51.7683 43.1884 51.8035C43.1837 51.8159 43.1776 51.8276 43.1731 51.8401L39.7416 61.5608L37.4021 68.1887C37.3712 68.2768 37.3489 68.3663 37.3323 68.4566H31.4748C30.5021 68.4566 29.7134 69.245 29.7134 70.2179C29.7134 71.1908 30.5021 71.9792 31.4748 71.9792H80.2516C81.2245 71.9792 82.0129 71.1908 82.0129 70.2179C82.0129 69.245 81.2245 68.4566 80.2516 68.4566H45.2563L55.9977 64.6649C56.0066 64.6616 56.015 64.6571 56.0239 64.6538C56.0657 64.6384 56.1067 64.621 56.1472 64.6025C56.1634 64.595 56.1796 64.588 56.1953 64.5802C56.2375 64.5592 56.2789 64.5359 56.3197 64.5111C56.3328 64.5031 56.3464 64.4959 56.3593 64.4877C56.4018 64.4605 56.443 64.4307 56.4836 64.3993C56.4936 64.3916 56.5042 64.3848 56.514 64.3768C56.563 64.3374 56.611 64.295 56.6565 64.2495L92.9013 28.005H108.195V65.6331L83.001 90.8277C82.3131 91.5158 82.3131 92.6308 83.001 93.3187C83.0439 93.3615 83.0887 93.4019 83.1349 93.4396C83.4578 93.7028 83.8523 93.8345 84.2465 93.8345C84.6407 93.8345 85.0354 93.7028 85.3581 93.4396C85.4043 93.4021 85.4491 93.3615 85.492 93.3187C85.4927 93.318 85.492 93.3187 85.4927 93.318L116.478 62.3324V77.8719ZM52.19 62.2728L47.1449 64.0538L43.7835 60.6924L45.5645 55.6473L52.19 62.2728Z" fill="white"/>
</g>
<defs>
<clipPath id="clip0">
<rect width="120" height="120" fill="white"/>
</clipPath>
</defs>
</svg>
