<svg width="120" height="120" viewBox="0 0 120 120" fill="none" xmlns="http://www.w3.org/2000/svg">
<path d="M95.625 1.875H24.375C23.8777 1.875 23.4008 2.07254 23.0492 2.42417C22.6975 2.77581 22.5 3.25272 22.5 3.75V99.375C22.5 99.8723 22.6975 100.349 23.0492 100.701C23.4008 101.052 23.8777 101.25 24.375 101.25H46.875V108.75H37.5C37.0027 108.75 36.5258 108.948 36.1742 109.299C35.8225 109.651 35.625 110.128 35.625 110.625V116.25C35.625 116.747 35.8225 117.224 36.1742 117.576C36.5258 117.927 37.0027 118.125 37.5 118.125H82.5C82.9973 118.125 83.4742 117.927 83.8258 117.576C84.1775 117.224 84.375 116.747 84.375 116.25V110.625C84.375 110.128 84.1775 109.651 83.8258 109.299C83.4742 108.948 82.9973 108.75 82.5 108.75H73.125V101.25H95.625C96.1223 101.25 96.5992 101.052 96.9508 100.701C97.3025 100.349 97.5 99.8723 97.5 99.375V3.75C97.5 3.25272 97.3025 2.77581 96.9508 2.42417C96.5992 2.07254 96.1223 1.875 95.625 1.875ZM80.625 112.5V114.375H39.375V112.5H80.625ZM50.625 108.75V101.25H69.375V108.75H50.625ZM93.75 97.5H26.25V5.625H93.75V97.5Z" fill="white"/>
<path d="M31.875 93.75H88.125C88.6223 93.75 89.0992 93.5525 89.4508 93.2008C89.8025 92.8492 90 92.3723 90 91.875V11.25C90 10.7527 89.8025 10.2758 89.4508 9.92418C89.0992 9.57254 88.6223 9.375 88.125 9.375H31.875C31.3777 9.375 30.9008 9.57254 30.5492 9.92418C30.1975 10.2758 30 10.7527 30 11.25V91.875C30 92.3723 30.1975 92.8492 30.5492 93.2008C30.9008 93.5525 31.3777 93.75 31.875 93.75ZM33.75 13.125H86.25V90H33.75V13.125Z" fill="white"/>
</svg>
