<svg width="90" height="120" viewBox="0 0 90 120" fill="none" xmlns="http://www.w3.org/2000/svg">
<path d="M87.9834 98.4405C86.9991 98.4405 86.2012 99.2386 86.2012 100.223V105.967H24.5698V48.896C24.5698 47.9119 23.772 47.1138 22.7876 47.1138C21.8032 47.1138 21.0054 47.9119 21.0054 48.896V99.2386C18.802 97.0334 15.7584 95.6674 12.4022 95.6674C9.04617 95.6674 6.00328 97.0334 3.79969 99.2379V12.1662C3.79969 12.1486 3.79945 12.1313 3.79898 12.1137C3.82711 7.395 7.67555 3.56437 12.4022 3.56437C17.1462 3.56437 21.0054 7.42266 21.0054 12.1655V42.9551C21.0054 43.9392 21.8032 44.7373 22.7876 44.7373C23.772 44.7373 24.5698 43.9392 24.5698 42.9551V13.9477H86.201V94.2818C86.201 95.2659 86.9991 96.064 87.9832 96.064C88.9676 96.064 89.7654 95.2659 89.7654 94.2818V12.1655C89.7654 11.1813 88.9676 10.3833 87.9832 10.3833H24.4378C23.5727 4.51711 18.5058 0 12.4022 0C5.69297 0 0.234375 5.45719 0.234375 12.1655C0.234375 12.1847 0.234609 12.2039 0.235312 12.2229V107.798C0.235312 107.81 0.234375 107.822 0.234375 107.835C0.234375 114.543 5.69297 120 12.4022 120H83.557C84.5414 120 85.3392 119.202 85.3392 118.218C85.3392 117.234 84.5414 116.436 83.557 116.436H12.4022C7.66219 116.436 3.80555 112.583 3.79898 107.846C3.79898 107.842 3.79969 107.838 3.79969 107.834V107.798C3.81961 103.071 7.67063 99.2313 12.4022 99.2313C17.1462 99.2313 21.0054 103.091 21.0054 107.835C21.0054 108.819 21.8032 109.617 22.7876 109.617C22.9779 109.617 23.1607 109.586 23.3327 109.531H87.9834C88.9678 109.531 89.7656 108.733 89.7656 107.749V100.223C89.7656 99.2386 88.9678 98.4405 87.9834 98.4405Z" fill="white"/>
<path d="M50.5727 67.4065H28.5771C27.5927 67.4065 26.7949 68.2045 26.7949 69.1887C26.7949 70.1728 27.5927 70.9709 28.5771 70.9709H50.5727C51.5571 70.9709 52.3549 70.1728 52.3549 69.1887C52.3549 68.2045 51.5569 67.4065 50.5727 67.4065Z" fill="white"/>
<path d="M50.5727 74.8677H28.5771C27.5927 74.8677 26.7949 75.6657 26.7949 76.6499C26.7949 77.634 27.5927 78.4321 28.5771 78.4321H50.5727C51.5571 78.4321 52.3549 77.634 52.3549 76.6499C52.3549 75.6657 51.5569 74.8677 50.5727 74.8677Z" fill="white"/>
<path d="M50.5727 82.3293H28.5771C27.5927 82.3293 26.7949 83.1274 26.7949 84.1115C26.7949 85.0957 27.5927 85.8937 28.5771 85.8937H50.5727C51.5571 85.8937 52.3549 85.0957 52.3549 84.1115C52.3549 83.1274 51.5569 82.3293 50.5727 82.3293Z" fill="white"/>
<path d="M50.5727 89.7908H28.5771C27.5927 89.7908 26.7949 90.5888 26.7949 91.573C26.7949 92.5571 27.5927 93.3551 28.5771 93.3551H50.5727C51.5571 93.3551 52.3549 92.5571 52.3549 91.573C52.3549 90.5888 51.5569 89.7908 50.5727 89.7908Z" fill="white"/>
<path d="M50.5727 97.252H28.5771C27.5927 97.252 26.7949 98.05 26.7949 99.0341C26.7949 100.018 27.5927 100.816 28.5771 100.816H50.5727C51.5571 100.816 52.3549 100.018 52.3549 99.0341C52.3549 98.05 51.5569 97.252 50.5727 97.252Z" fill="white"/>
<path d="M80.0083 22.6384H58.0127C57.0283 22.6384 56.2305 23.4365 56.2305 24.4206C56.2305 25.4048 57.0285 26.2028 58.0127 26.2028H80.0083C80.9927 26.2028 81.7905 25.4048 81.7905 24.4206C81.7905 23.4362 80.9927 22.6384 80.0083 22.6384Z" fill="white"/>
<path d="M80.0083 30.0996H58.0127C57.0283 30.0996 56.2305 30.8977 56.2305 31.8818C56.2305 32.8659 57.0285 33.664 58.0127 33.664H80.0083C80.9927 33.664 81.7905 32.8659 81.7905 31.8818C81.7905 30.8974 80.9927 30.0996 80.0083 30.0996Z" fill="white"/>
<path d="M80.0083 37.561H58.0127C57.0283 37.561 56.2305 38.3591 56.2305 39.3432C56.2305 40.3274 57.0285 41.1254 58.0127 41.1254H80.0083C80.9927 41.1254 81.7905 40.3274 81.7905 39.3432C81.7905 38.3591 80.9927 37.561 80.0083 37.561Z" fill="white"/>
<path d="M80.0102 89.7908H58.0146C57.0302 89.7908 56.2324 90.5888 56.2324 91.573C56.2324 92.5571 57.0302 93.3551 58.0146 93.3551H80.0102C80.9946 93.3551 81.7924 92.5571 81.7924 91.573C81.7924 90.5888 80.9944 89.7908 80.0102 89.7908Z" fill="white"/>
<path d="M80.0102 97.252H58.0146C57.0302 97.252 56.2324 98.05 56.2324 99.0341C56.2324 100.018 57.0302 100.816 58.0146 100.816H80.0102C80.9946 100.816 81.7924 100.018 81.7924 99.0341C81.7924 98.05 80.9944 97.252 80.0102 97.252Z" fill="white"/>
<path d="M84.7456 111.165H44.499C43.5146 111.165 42.7168 111.963 42.7168 112.947C42.7168 113.931 43.5146 114.729 44.499 114.729H84.7456C85.73 114.729 86.5278 113.931 86.5278 112.947C86.5278 111.963 85.73 111.165 84.7456 111.165Z" fill="white"/>
<path d="M38.5574 111.165H12.4019C10.5651 111.165 9.07023 109.671 9.07023 107.834C9.07023 105.997 10.5648 104.502 12.4019 104.502C14.2387 104.502 15.7333 105.997 15.7333 107.834C15.7333 108.818 16.5311 109.616 17.5155 109.616C18.4998 109.616 19.2977 108.818 19.2977 107.834C19.2977 104.032 16.2041 100.938 12.4019 100.938C8.59938 100.938 5.50586 104.032 5.50586 107.834C5.50586 111.636 8.59938 114.73 12.4019 114.73H38.5574C39.5418 114.73 40.3396 113.932 40.3396 112.947C40.3396 111.963 39.5418 111.165 38.5574 111.165Z" fill="white"/>
<path d="M50.5727 22.6384H28.5771C27.5927 22.6384 26.7949 23.4365 26.7949 24.4206V61.7275C26.7949 62.7116 27.5927 63.5097 28.5771 63.5097H50.5727C51.5571 63.5097 52.3549 62.7116 52.3549 61.7275V24.4206C52.3549 23.4362 51.5571 22.6384 50.5727 22.6384ZM30.3588 26.2023H39.3056V26.2026C40.4128 27.8659 42.0698 31.1031 41.3581 33.5941C41.1375 34.3663 39.3675 35.5119 35.1052 36.1989C33.3403 36.4834 31.5989 36.6173 30.3588 36.6805V26.2023ZM35.43 51.4504L34.9519 59.9455H30.3588V40.251C31.6945 40.1875 33.6286 40.0452 35.6309 39.7248C37.087 39.4919 38.3667 39.1991 39.4758 38.8462L40.0784 49.7683H37.2094C36.2639 49.7683 35.483 50.5063 35.43 51.4504ZM48.7906 59.9453H38.5223L38.8945 53.3324H41.9623C42.4521 53.3324 42.9202 53.1308 43.2567 52.7751C43.5935 52.4193 43.7688 51.9407 43.7416 51.4518L42.952 37.1465C43.8947 36.4171 44.5031 35.5614 44.7856 34.5733C45.4331 32.3083 45.0795 29.7041 43.7358 26.833C43.6338 26.6151 43.5298 26.4055 43.4252 26.2023H48.7908V59.9453H48.7906Z" fill="white"/>
<path d="M80.0102 44.3286H58.0146C57.0302 44.3286 56.2324 45.1267 56.2324 46.1108V83.4177C56.2324 84.4018 57.0302 85.1999 58.0146 85.1999H80.0102C80.9946 85.1999 81.7924 84.4018 81.7924 83.4177V46.1108C81.7924 45.1264 80.9946 44.3286 80.0102 44.3286ZM78.228 81.6355H59.7966V76.9417L66.0485 69.7693L73.7787 76.6128C74.5158 77.2651 75.6422 77.1967 76.2945 76.4598C76.9469 75.7227 76.8785 74.5963 76.1414 73.944L73.9603 72.0128L78.2283 67.7448V81.6355H78.228ZM78.228 62.7043L71.2863 69.646L67.0664 65.9101C66.7106 65.5953 66.2447 65.4355 65.7698 65.466C65.2957 65.4967 64.8539 65.7153 64.5415 66.0732L59.7963 71.5173V47.893H78.2278V62.7043H78.228Z" fill="white"/>
<path d="M67.3094 50.2026C63.5751 50.2026 60.5371 53.2406 60.5371 56.9749C60.5371 60.7092 63.5751 63.7472 67.3094 63.7472C71.0437 63.7472 74.0816 60.7092 74.0816 56.9749C74.0816 53.2406 71.0437 50.2026 67.3094 50.2026ZM67.3094 60.1828C65.5405 60.1828 64.1015 58.7437 64.1015 56.9749C64.1015 55.2061 65.5405 53.767 67.3094 53.767C69.0782 53.767 70.5173 55.2061 70.5173 56.9749C70.5173 58.7437 69.0782 60.1828 67.3094 60.1828Z" fill="white"/>
<path d="M38.4842 41.6559C38.1387 40.7341 37.1119 40.2675 36.1897 40.6129L33.6549 41.5633C32.7333 41.9088 32.2665 42.9361 32.6119 43.8579C32.8803 44.5734 33.5591 45.015 34.2807 45.015C34.4886 45.015 34.7 44.9784 34.9062 44.9011L37.441 43.9505C38.3628 43.605 38.8299 42.5777 38.4842 41.6559Z" fill="white"/>
</svg>
