<svg width="102" height="120" viewBox="0 0 102 120" fill="none" xmlns="http://www.w3.org/2000/svg">
<path d="M32.6587 89.2289C32.4271 89.65 32.0682 89.7764 31.7313 89.7764C31.3943 89.7764 31.0574 89.65 30.8258 89.2289L28.4024 84.6778V93.9054C28.4024 94.4748 27.7075 94.7696 27.0337 94.7696C26.3379 94.7696 25.6641 94.4748 25.6641 93.9054V80.7374C25.6641 79.7266 26.3379 79.3687 27.0337 79.3687C28.0234 79.3687 28.4665 79.5792 29.1614 80.8216L31.7532 85.5411L34.3442 80.8216C35.04 79.5792 35.5032 79.3687 36.4938 79.3687C37.1887 79.3687 37.8625 79.7266 37.8625 80.7374V93.9054C37.8625 94.4748 37.1677 94.7696 36.4938 94.7696C35.798 94.7696 35.1242 94.4748 35.1242 93.9054V84.8462L32.6587 89.2289Z" fill="white"/>
<path d="M45.4893 85.9833H48.6918C49.2393 85.9833 49.5551 86.5106 49.5551 87.0792C49.5551 87.5635 49.2814 88.1329 48.6918 88.1329H45.4893V92.3672H51.4512C51.9996 92.3672 52.3154 92.9358 52.3154 93.5895C52.3154 94.158 52.0417 94.7696 51.4512 94.7696H43.9512C43.3405 94.7696 42.75 94.4739 42.75 93.9053V80.2319C42.75 79.6634 43.3396 79.3677 43.9512 79.3677H51.4512C52.0417 79.3677 52.3154 79.9792 52.3154 80.5478C52.3154 81.2015 51.9996 81.77 51.4512 81.77H45.4893V85.9833Z" fill="white"/>
<path d="M63.5427 93.9053L59.0127 85.4358V93.9053C59.0127 94.4748 58.3178 94.7696 57.6431 94.7696C56.9482 94.7696 56.2734 94.4748 56.2734 93.9053V80.2319C56.2734 79.6423 56.9482 79.3686 57.6431 79.3686C58.6337 79.3686 59.0338 79.5792 59.6874 80.8215L63.7533 88.6804V80.2109C63.7533 79.6213 64.4271 79.3677 65.1229 79.3677C65.7968 79.3677 66.4916 79.6204 66.4916 80.2109V93.9053C66.4916 94.4739 65.7968 94.7696 65.1229 94.7696C64.4692 94.7696 63.9007 94.559 63.5427 93.9053Z" fill="white"/>
<path d="M78.691 80.2109C78.691 79.6213 79.3648 79.3687 80.0597 79.3687C80.7344 79.3687 81.4293 79.6213 81.4293 80.2109V90.0712C81.4293 93.5895 79.1964 94.896 76.3729 94.896C73.5283 94.896 71.3164 93.5895 71.3164 90.0712V80.2109C71.3164 79.6213 71.9902 79.3687 72.686 79.3687C73.3599 79.3687 74.0547 79.6213 74.0547 80.2109V90.0712C74.0547 91.7145 74.919 92.4945 76.3729 92.4945C77.8267 92.4945 78.6901 91.7145 78.6901 90.0712V80.2109H78.691Z" fill="white"/>
<path d="M84.1072 98.9409H74.0923C73.109 98.9409 72.3125 99.7374 72.3125 100.72C72.3125 101.703 73.109 102.499 74.0923 102.499H84.1072C85.0905 102.499 85.8861 101.703 85.8861 100.72C85.8861 99.7374 85.0905 98.9409 84.1072 98.9409Z" fill="white"/>
<path d="M65.814 98.9409H25.2808C24.2985 98.9409 23.502 99.7374 23.502 100.72C23.502 101.703 24.2985 102.499 25.2808 102.499H65.814C66.7972 102.499 67.5928 101.703 67.5928 100.72C67.5928 99.7374 66.7972 98.9409 65.814 98.9409Z" fill="white"/>
<path d="M84.1071 71.7754H25.2808C24.2985 71.7754 23.502 72.5719 23.502 73.5543C23.502 74.5366 24.2985 75.3331 25.2808 75.3331H84.1071C85.0904 75.3331 85.886 74.5366 85.886 73.5543C85.886 72.5719 85.0904 71.7754 84.1071 71.7754Z" fill="white"/>
<path d="M83.1174 49.7173H81.3907C80.7242 37.4594 71.764 27.3721 60.037 24.9844L60.3803 21.7023C60.4929 20.6311 60.1432 19.5581 59.4227 18.7588C58.7021 17.9587 57.6713 17.5 56.5946 17.5H52.7943C51.7167 17.5 50.6867 17.9596 49.9653 18.7588C49.2448 19.559 48.8959 20.632 49.0085 21.7023L49.3519 24.9844C37.6249 27.3721 28.6646 37.4585 27.9981 49.7164H26.2714C24.7443 49.7164 23.502 50.9588 23.502 52.4859V56.1572C23.502 57.6843 24.7443 58.9266 26.2714 58.9266H83.1165C84.6436 58.9266 85.886 57.6843 85.886 56.1572V52.4859C85.886 50.9597 84.6445 49.7173 83.1174 49.7173ZM52.6093 21.1401C52.6588 21.0861 52.7201 21.0586 52.7943 21.0586H56.5946C56.6678 21.0586 56.7301 21.0861 56.7795 21.1401C56.829 21.1951 56.85 21.2601 56.8418 21.3324L56.5095 24.5111C55.9098 24.4708 55.3046 24.4479 54.6949 24.4479C54.0842 24.4479 53.48 24.4708 52.8803 24.5111L52.5471 21.3324C52.5397 21.2601 52.5608 21.1951 52.6093 21.1401ZM82.3282 55.3689H27.0606V53.2751H34.5579C35.5411 53.2751 36.3376 52.4786 36.3376 51.4962C36.3376 50.5139 35.5411 49.7173 34.5579 49.7173H31.5632C32.3231 37.6178 42.4067 28.0066 54.694 28.0066C66.9822 28.0066 77.0658 37.6178 77.8257 49.7173H42.8361C41.8528 49.7173 41.0572 50.5139 41.0572 51.4962C41.0572 52.4786 41.8528 53.2751 42.8361 53.2751H82.3282V55.3689Z" fill="white"/>
<path d="M96.8167 0H12.5726C10.075 0 8.04254 2.03247 8.04254 4.53002V7.74352H6.38269C3.32849 7.74352 0.84375 10.2292 0.84375 13.2834C0.84375 16.3376 3.32849 18.8232 6.38269 18.8232H8.04254V26.4303H6.38269C3.32849 26.4303 0.84375 28.915 0.84375 31.9702C0.84375 35.0243 3.32849 37.5091 6.38269 37.5091H8.04254V45.1171H6.38269C3.32849 45.1171 0.84375 47.6018 0.84375 50.6569C0.84375 53.7111 3.32849 56.1959 6.38269 56.1959H8.04254V63.8039H6.38269C3.32849 63.8039 0.84375 66.2886 0.84375 69.3428C0.84375 72.3979 3.32849 74.8827 6.38269 74.8827H8.04254V82.4907H6.38269C3.32849 82.4907 0.84375 84.9754 0.84375 88.0296C0.84375 91.0847 3.32849 93.5695 6.38269 93.5695H8.04254V101.177H6.38269C3.32849 101.177 0.84375 103.662 0.84375 106.716C0.84375 109.771 3.32849 112.256 6.38269 112.256H8.04254V115.47C8.04254 117.967 10.075 120 12.5726 120H96.8167C99.3142 120 101.348 117.967 101.348 115.47V4.53002C101.348 2.03247 99.3142 0 96.8167 0V0ZM8.04163 15.2655H6.38269C5.29047 15.2655 4.40149 14.3765 4.40149 13.2834C4.40149 12.1911 5.29047 11.3022 6.38269 11.3022H8.04163V15.2655ZM8.04163 33.9514H6.38269C5.29047 33.9514 4.40149 33.0624 4.40149 31.9702C4.40149 30.877 5.29047 29.989 6.38269 29.989H8.04163V33.9514ZM8.04163 52.6381H6.38269C5.29047 52.6381 4.40149 51.7492 4.40149 50.6569C4.40149 49.5638 5.29047 48.6748 6.38269 48.6748H8.04163V52.6381ZM8.04163 71.3249H6.38269C5.29047 71.3249 4.40149 70.436 4.40149 69.3428C4.40149 68.2506 5.29047 67.3616 6.38269 67.3616H8.04163V71.3249ZM8.04163 90.0108H6.38269C5.29047 90.0108 4.40149 89.1228 4.40149 88.0296C4.40149 86.9374 5.29047 86.0484 6.38269 86.0484H8.04163V90.0108ZM8.04163 108.698H6.38269C5.29047 108.698 4.40149 107.809 4.40149 106.716C4.40149 105.623 5.29047 104.735 6.38269 104.735H8.04163V108.698ZM97.7889 115.469C97.7889 116.005 97.3531 116.442 96.8167 116.442H12.5726C12.0361 116.442 11.6003 116.005 11.6003 115.469V4.53002C11.6003 3.99444 12.0361 3.55773 12.5726 3.55773H96.8167C97.3531 3.55773 97.7889 3.99444 97.7889 4.53002V115.469Z" fill="white"/>
</svg>
