<svg width="120" height="120" viewBox="0 0 120 120" fill="none" xmlns="http://www.w3.org/2000/svg">
<g clip-path="url(#clip0)">
<path d="M104.075 41.235C104.073 41.235 104.073 41.235 104.075 41.235H85.3159V31.8825C85.3159 31.875 85.3196 31.8713 85.3196 31.8638C85.3196 28.7625 82.7959 26.2388 79.6946 26.2388H12.1777C9.07648 26.2388 6.55273 28.7625 6.55273 31.8638V103.118C6.55273 112.427 14.1259 120 23.4352 120H68.4334C77.7427 120 85.3159 112.427 85.3159 103.118V99.36H104.073H104.075C109.245 99.36 113.45 95.1544 113.45 89.985V50.61C113.45 45.4406 109.245 41.235 104.075 41.235ZM100.321 86.2313H85.3159V54.3638H100.321V86.2313ZM68.4334 116.25H23.4352C16.194 116.25 10.3027 110.359 10.3027 103.118V31.8638C10.3027 30.8288 11.1427 29.9888 12.1777 29.9888H79.6946C80.7259 29.9888 81.5621 30.8231 81.5677 31.8544C81.5677 31.8581 81.5659 31.86 81.5659 31.8638V103.118C81.5659 110.359 75.6746 116.25 68.4334 116.25ZM104.075 95.61C104.073 95.61 104.073 95.61 104.075 95.61H85.3159V89.9813H102.196C103.233 89.9813 104.071 89.1432 104.071 88.1063V52.4888C104.071 51.4519 103.233 50.6138 102.196 50.6138H85.3159V44.985H104.073H104.075C107.176 44.985 109.7 47.5088 109.7 50.61V89.985C109.7 93.0863 107.176 95.61 104.075 95.61Z" fill="white"/>
<path d="M26.3806 3.42941C27.2244 2.85941 27.4606 1.71566 26.9056 0.855034C26.3394 -0.0130914 25.1788 -0.260591 24.3106 0.300034C22.3138 1.59378 19.6231 5.75816 23.7481 12.255C26.7988 17.0588 24.545 18.8775 24.3106 19.0463C23.4425 19.6107 23.1931 20.7713 23.7556 21.6413C24.1156 22.1944 24.7175 22.4963 25.3325 22.4963C25.6831 22.4963 26.0356 22.3988 26.3506 22.1963C28.3475 20.9025 31.0381 16.7382 26.9131 10.245C23.8794 5.46566 26.0938 3.63753 26.3806 3.42941Z" fill="white"/>
<path d="M46.9939 3.42941C47.8377 2.85941 48.0739 1.71566 47.5189 0.855034C46.9527 -0.0130914 45.7939 -0.260591 44.9239 0.300034C42.927 1.59378 40.2364 5.75816 44.3614 12.255C47.412 17.0588 45.1583 18.8775 44.9239 19.0463C44.0558 19.6107 43.8064 20.7713 44.3689 21.6413C44.7289 22.1944 45.3308 22.4963 45.9458 22.4963C46.2964 22.4963 46.6489 22.3988 46.9639 22.1963C48.9608 20.9025 51.6514 16.7382 47.5264 10.245C44.4927 5.46566 46.707 3.63753 46.9939 3.42941Z" fill="white"/>
<path d="M67.6092 3.42941C68.4529 2.85941 68.6892 1.71566 68.1342 0.855034C67.5679 -0.0130914 66.4073 -0.260591 65.5391 0.300034C63.5423 1.59378 60.8516 5.75816 64.9766 12.255C68.0273 17.0588 65.7735 18.8775 65.5391 19.0463C64.671 19.6107 64.4217 20.7713 64.9842 21.6413C65.3442 22.1944 65.946 22.4963 66.561 22.4963C66.9117 22.4963 67.2642 22.3988 67.5792 22.1963C69.576 20.9025 72.2667 16.7382 68.1417 10.245C65.1079 5.46566 67.3204 3.63753 67.6092 3.42941Z" fill="white"/>
<path d="M72.1479 88.3292C72.1554 88.2636 72.1873 88.2073 72.1873 88.1379C72.1873 88.0836 72.1592 88.0367 72.1554 87.9842C72.1442 87.8511 72.116 87.7254 72.0767 87.5961C72.0429 87.4854 72.0073 87.3823 71.9548 87.2811C71.9267 87.2267 71.9229 87.1648 71.8892 87.1123L55.0141 60.8886C55.0104 60.8811 55.0029 60.8773 54.9973 60.8717C54.9279 60.7648 54.8191 60.6842 54.7273 60.5942C54.6391 60.5098 54.5679 60.4086 54.4685 60.3448C54.461 60.3392 54.4573 60.3317 54.4498 60.3261C54.3673 60.2736 54.2717 60.2623 54.1835 60.2211C54.056 60.1648 53.9323 60.0973 53.7954 60.0711C53.6754 60.0467 53.5573 60.0617 53.4354 60.0617C53.3154 60.0617 53.1954 60.0467 53.0773 60.0711C52.9441 60.0973 52.8223 60.1629 52.6966 60.2173C52.6066 60.2567 52.5073 60.2698 52.4229 60.3261C52.4135 60.3317 52.4098 60.3411 52.4023 60.3467C52.3085 60.4067 52.241 60.5042 52.1566 60.5829C52.0591 60.6786 51.9504 60.7611 51.8773 60.8717C51.8716 60.8773 51.8641 60.8811 51.8604 60.8886L43.0798 74.5329L39.071 68.3661C39.0673 68.3604 39.0616 68.3586 39.0579 68.3529C38.9904 68.2498 38.8854 68.1748 38.7973 68.0867C38.7073 67.9986 38.6341 67.8936 38.531 67.8261C38.5254 67.8223 38.5235 67.8167 38.5179 67.8129C38.4373 67.7604 38.3435 67.7492 38.2591 67.7098C38.126 67.6498 37.9985 67.5786 37.856 67.5504C37.736 67.5261 37.616 67.5429 37.496 67.5429C37.376 67.5429 37.256 67.5261 37.136 67.5504C36.9973 67.5786 36.8735 67.6479 36.7441 67.7061C36.656 67.7454 36.5585 67.7567 36.4741 67.8129C36.4685 67.8167 36.4666 67.8223 36.461 67.8261C36.3635 67.8898 36.2923 67.9911 36.2079 68.0754C36.1141 68.1673 36.0073 68.2461 35.9341 68.3511C35.9304 68.3567 35.9248 68.3586 35.921 68.3642L23.7335 87.1142C23.7016 87.1611 23.6998 87.2154 23.6754 87.2642C23.6154 87.3748 23.5741 87.4873 23.5385 87.6092C23.501 87.7329 23.4748 87.8548 23.4635 87.9804C23.4598 88.0348 23.4316 88.0817 23.4316 88.1361C23.4316 88.2017 23.4635 88.2561 23.4691 88.3217C23.4823 88.4492 23.5066 88.5711 23.5441 88.6948C23.5816 88.8111 23.6266 88.9142 23.6829 89.0211C23.7373 89.1242 23.801 89.2161 23.8779 89.3079C23.9604 89.4092 24.0504 89.4954 24.1516 89.5779C24.2004 89.6173 24.2323 89.6736 24.2866 89.7092C24.3466 89.7486 24.416 89.7654 24.4816 89.7992C24.5416 89.8292 24.5979 89.8573 24.6616 89.8817C24.8716 89.9586 25.091 90.0111 25.3085 90.0111H25.3104H70.3104C70.3742 90.0111 70.4285 89.9811 70.4904 89.9736C70.6329 89.9604 70.7735 89.9361 70.9142 89.8892C71.0135 89.8536 71.1017 89.8104 71.1917 89.7617C71.2348 89.7392 71.2835 89.7279 71.3248 89.7017C71.3642 89.6754 71.3848 89.6342 71.4242 89.6061C71.5498 89.5086 71.6623 89.4054 71.7617 89.2779C71.8217 89.2011 71.8742 89.1261 71.921 89.0417C71.9867 88.9236 72.0392 88.8073 72.0785 88.6761C72.1123 88.5636 72.1348 88.4511 72.1479 88.3292ZM44.6154 79.0761C44.6341 79.0498 44.651 79.0236 44.666 78.9954L53.4354 65.3679L66.881 86.2648H39.9898L44.6154 79.0761ZM35.5291 86.2648H28.766L37.4979 72.8323L40.8541 77.9942L35.5291 86.2648Z" fill="white"/>
<path d="M29.0645 63.7315C32.1657 63.7315 34.6894 61.2077 34.6894 58.1065C34.6894 55.0052 32.1657 52.4814 29.0645 52.4814C25.9632 52.4814 23.4395 55.0052 23.4395 58.1065C23.4395 61.2077 25.9632 63.7315 29.0645 63.7315ZM29.0645 56.2314C30.0994 56.2314 30.9394 57.0715 30.9394 58.1065C30.9394 59.1415 30.0994 59.9815 29.0645 59.9815C28.0295 59.9815 27.1895 59.1415 27.1895 58.1065C27.1895 57.0715 28.0295 56.2314 29.0645 56.2314Z" fill="white"/>
</g>
<defs>
<clipPath id="clip0">
<rect width="120" height="120" fill="white"/>
</clipPath>
</defs>
</svg>
