<svg width="120" height="88" viewBox="0 0 120 88" fill="none" xmlns="http://www.w3.org/2000/svg">
<path d="M115.842 4.01434C114.409 2.58065 112.688 1.57706 110.824 0.860216C110.824 0.860216 110.824 0.860216 110.681 0.860216C110.251 0.716846 109.821 0.573477 109.391 0.430108C109.247 0.430108 109.247 0.430108 109.104 0.430108C108.674 0.286739 108.244 0.286739 107.814 0.14337C107.67 0.14337 107.527 0.14337 107.527 0.14337C106.953 0.14337 106.523 0 105.95 0H14.1935C13.6201 0 13.19 5.44774e-07 12.6165 0.14337C12.4731 0.14337 12.3298 0.14337 12.3298 0.14337C11.8996 0.14337 11.4695 0.286739 11.0394 0.430108C10.8961 0.430108 10.8961 0.430108 10.7527 0.430108C10.3226 0.573477 9.89247 0.716846 9.46237 0.860216C9.46237 0.860216 9.46237 0.860216 9.319 0.860216C7.4552 1.57706 5.73477 2.72401 4.30108 4.01434C4.15771 4.01434 4.15771 4.15771 4.01434 4.30107C3.87097 4.44444 3.7276 4.58781 3.58423 4.73118C3.44086 5.01792 3.15412 5.16129 3.01075 5.44803C2.86738 5.5914 2.86738 5.5914 2.72401 5.73477C2.72401 5.73477 2.72401 5.87814 2.58065 5.87814C1.00358 8.17204 0 10.8961 0 13.9068V72.9749C0 76.7025 1.43369 80.1434 3.87097 82.5806C3.87097 82.724 4.01434 82.724 4.01434 82.8674C6.59498 85.448 10.0358 87.0251 13.9068 87.0251H105.95C109.821 87.0251 113.262 85.448 115.842 82.8674C118.423 80.2867 120 76.8459 120 72.9749V13.9068C120 10.0358 118.423 6.59498 115.842 4.01434ZM12.7599 7.31183C13.19 7.16846 13.6201 7.16846 14.0502 7.16846H105.95C106.38 7.16846 106.81 7.16846 107.24 7.31183C107.67 7.4552 108.1 7.59857 108.53 7.74193L86.8817 25.5197L62.6523 45.1613L62.509 45.3047C61.7921 45.8781 60.9319 46.1649 60.0717 46.1649C59.2115 46.1649 58.3513 45.8781 57.6344 45.3047L33.2617 25.5197L11.4695 7.74193C11.8996 7.59857 12.3297 7.4552 12.7599 7.31183ZM112.688 72.9749C112.688 74.8387 111.971 76.4158 110.681 77.7061C109.534 78.853 107.814 79.7133 105.95 79.7133H14.1935C12.3297 79.7133 10.7527 78.9964 9.46237 77.7061L9.319 77.5627C8.17204 76.4158 7.4552 74.8387 7.4552 72.9749V14.0502L28.6738 31.2545L42.0072 42.1505L21.0753 62.0788C19.6416 63.5125 19.4982 65.8064 20.9319 67.2401C22.3656 68.6738 24.6595 68.8172 26.0932 67.3835L47.7419 46.7383L53.0466 51.0394C55.1971 52.7599 57.6344 53.6201 60.0717 53.4767C62.6523 53.4767 65.0896 52.6165 67.0968 50.8961L67.2402 50.7527L72.4014 46.595L94.1936 67.3835C95.6272 68.8172 97.9212 68.6738 99.3549 67.2401C100.789 65.8064 100.645 63.5125 99.2115 62.0788L78.1362 42.0072L91.4695 31.2545L112.688 14.0502V72.9749Z" fill="white"/>
</svg>
