<svg width="120" height="102" viewBox="0 0 120 102" fill="none" xmlns="http://www.w3.org/2000/svg">
<path d="M119.76 87.1902L97.843 5.39605C97.3569 3.58199 96.1935 2.06583 94.5669 1.12669C92.9403 0.187553 91.0454 -0.0618213 89.2314 0.424271L68.0036 6.11229C67.473 6.25456 66.974 6.45589 66.509 6.70456C65.3081 4.54316 63.0021 3.07668 60.3591 3.07668H38.3825C36.583 3.07668 34.94 3.75684 33.695 4.87269C32.45 3.75684 30.8071 3.07668 29.0075 3.07668H7.03122C3.15421 3.07668 0 6.23089 0 10.1079V94.7875C0 98.6645 3.15421 101.819 7.03122 101.819H29.0078C30.8073 101.819 32.4503 101.139 33.6953 100.023C34.9403 101.139 36.5832 101.819 38.3827 101.819H60.3593C64.2363 101.819 67.3905 98.6645 67.3905 94.7875V70.058C67.3905 68.7635 66.3412 67.7142 65.0468 67.7142C63.7523 67.7142 62.703 68.7635 62.703 70.058V94.7875C62.703 96.0798 61.6516 97.1312 60.3593 97.1312H38.3827C37.0904 97.1312 36.039 96.0798 36.039 94.7875V10.1079C36.039 8.81557 37.0904 7.76416 38.3827 7.76416H60.3593C61.6516 7.76416 62.703 8.81557 62.703 10.1079V51.0308C62.703 52.3252 63.7523 53.3745 65.0468 53.3745C66.3412 53.3745 67.3905 52.3252 67.3905 51.0308V30.9899L84.9487 96.5181C85.7894 99.6559 88.6375 101.73 91.742 101.73C92.3427 101.73 92.953 101.653 93.5602 101.49L114.788 95.8019C118.533 94.7983 120.763 90.9351 119.76 87.1902ZM29.0078 97.131H7.03122C5.73888 97.131 4.68748 96.0796 4.68748 94.7873V10.1079C4.68748 8.81557 5.73888 7.76416 7.03122 7.76416H29.0078C30.3001 7.76416 31.3515 8.81557 31.3515 10.1079V94.7875C31.3515 96.0798 30.3001 97.131 29.0078 97.131ZM114.998 90.182C114.685 90.7241 114.179 91.112 113.575 91.274L92.3469 96.962C91.0993 97.2967 89.811 96.553 89.4763 95.3047L67.5597 13.5105C67.2253 12.2623 67.9687 10.9746 69.217 10.6399L90.4447 4.95191C90.6465 4.89777 90.8516 4.87105 91.055 4.87105C91.461 4.87105 91.862 4.97769 92.2232 5.18605C92.7653 5.49894 93.1531 6.00448 93.3151 6.60917L115.232 88.4034C115.394 89.0083 115.311 89.6397 114.998 90.182Z" fill="white"/>
<path d="M18.0187 67.6912C12.9316 67.6912 8.79297 71.8298 8.79297 76.9169C8.79297 82.004 12.9316 86.1428 18.0187 86.1428C23.1058 86.1428 27.2446 82.004 27.2446 76.9169C27.2446 71.8298 23.1058 67.6912 18.0187 67.6912ZM18.0187 81.4553C15.5163 81.4553 13.4805 79.4193 13.4805 76.9169C13.4805 74.4144 15.5165 72.3787 18.0187 72.3787C20.5211 72.3787 22.5571 74.4147 22.5571 76.9169C22.5571 79.4195 20.5213 81.4553 18.0187 81.4553Z" fill="white"/>
<path d="M11.8984 48.5112H24.1405C25.435 48.5112 26.4843 47.4619 26.4843 46.1675C26.4843 44.873 25.435 43.8237 24.1405 43.8237H11.8984C10.604 43.8237 9.55469 44.873 9.55469 46.1675C9.55469 47.4619 10.604 48.5112 11.8984 48.5112Z" fill="white"/>
<path d="M11.8984 39.3352H24.1405C25.435 39.3352 26.4843 38.2859 26.4843 36.9915C26.4843 35.697 25.435 34.6477 24.1405 34.6477H11.8984C10.604 34.6477 9.55469 35.697 9.55469 36.9915C9.55469 38.2859 10.604 39.3352 11.8984 39.3352Z" fill="white"/>
<path d="M11.8984 30.1592H24.1405C25.435 30.1592 26.4843 29.1099 26.4843 27.8154C26.4843 26.521 25.435 25.4717 24.1405 25.4717H11.8984C10.604 25.4717 9.55469 26.521 9.55469 27.8154C9.55469 29.1099 10.604 30.1592 11.8984 30.1592Z" fill="white"/>
<path d="M11.8984 20.9829H24.1405C25.435 20.9829 26.4843 19.9336 26.4843 18.6392C26.4843 17.3447 25.435 16.2954 24.1405 16.2954H11.8984C10.604 16.2954 9.55469 17.3447 9.55469 18.6392C9.55469 19.9336 10.604 20.9829 11.8984 20.9829Z" fill="white"/>
<path d="M49.3956 86.1428C54.4827 86.1428 58.6213 82.004 58.6213 76.9169C58.6213 71.8298 54.4827 67.6912 49.3956 67.6912C44.3085 67.6912 40.1699 71.8298 40.1699 76.9169C40.1699 82.004 44.3085 86.1428 49.3956 86.1428ZM49.3956 72.3787C51.898 72.3787 53.9338 74.4147 53.9338 76.9169C53.9338 79.4193 51.8978 81.4553 49.3956 81.4553C46.8934 81.4553 44.8574 79.4193 44.8574 76.9169C44.8574 74.4147 46.8932 72.3787 49.3956 72.3787Z" fill="white"/>
<path d="M43.127 48.5112H55.6641C56.9586 48.5112 58.0079 47.4619 58.0079 46.1675C58.0079 44.873 56.9586 43.8237 55.6641 43.8237H43.127C41.8325 43.8237 40.7832 44.873 40.7832 46.1675C40.7832 47.4619 41.8325 48.5112 43.127 48.5112Z" fill="white"/>
<path d="M43.127 39.3352H55.6641C56.9586 39.3352 58.0079 38.2859 58.0079 36.9915C58.0079 35.697 56.9586 34.6477 55.6641 34.6477H43.127C41.8325 34.6477 40.7832 35.697 40.7832 36.9915C40.7832 38.2859 41.8325 39.3352 43.127 39.3352Z" fill="white"/>
<path d="M43.127 30.1592H55.6641C56.9586 30.1592 58.0079 29.1099 58.0079 27.8154C58.0079 26.521 56.9586 25.4717 55.6641 25.4717H43.127C41.8325 25.4717 40.7832 26.521 40.7832 27.8154C40.7832 29.1099 41.8325 30.1592 43.127 30.1592Z" fill="white"/>
<path d="M43.127 20.9829H55.6641C56.9586 20.9829 58.0079 19.9336 58.0079 18.6392C58.0079 17.3447 56.9586 16.2954 55.6641 16.2954H43.127C41.8325 16.2954 40.7832 17.3447 40.7832 18.6392C40.7832 19.9336 41.8325 20.9829 43.127 20.9829Z" fill="white"/>
<path d="M95.3878 65.6685C90.4742 66.9852 87.5475 72.0541 88.8643 76.9677C89.9675 81.0848 93.7046 83.8068 97.7778 83.8068C98.5657 83.8068 99.3668 83.7048 100.163 83.4913C105.077 82.1746 108.004 77.1058 106.687 72.1921C105.371 67.2787 100.303 64.3523 95.3878 65.6685ZM98.9504 78.9637C96.5332 79.6117 94.0397 78.1717 93.3921 75.7546C92.7446 73.3375 94.1841 70.844 96.6012 70.1964C96.9931 70.0914 97.3871 70.0413 97.7747 70.0413C99.7784 70.0413 101.617 71.3802 102.159 73.4055C102.807 75.8226 101.367 78.3161 98.9504 78.9637Z" fill="white"/>
<path d="M98.1517 42.6448C97.8166 41.3944 96.5313 40.6522 95.2814 40.9876L83.1381 44.2411C81.8878 44.5761 81.1457 45.8614 81.4809 47.1115C81.7614 48.1587 82.7083 48.8494 83.7433 48.8494C83.9439 48.8494 84.1483 48.8234 84.3513 48.769L96.4945 45.5154C97.7449 45.1803 98.4869 43.895 98.1517 42.6448Z" fill="white"/>
<path d="M94.1214 36.6517C95.3718 36.3167 96.1139 35.0314 95.7787 33.781C95.4436 32.5309 94.1592 31.7884 92.9081 32.1238L80.7651 35.3774C79.5147 35.7123 78.7727 36.9976 79.1078 38.248C79.3884 39.2952 80.3353 39.9856 81.3703 39.9856C81.5709 39.9856 81.7753 39.9596 81.9785 39.9053L94.1214 36.6517Z" fill="white"/>
<path d="M91.7466 27.7884C92.9967 27.4535 93.7388 26.1681 93.4038 24.9178C93.0687 23.6676 91.7838 22.9251 90.5332 23.2605L78.39 26.5143C77.1398 26.8492 76.3978 28.1346 76.7327 29.3849C77.0133 30.4321 77.9602 31.1226 78.9952 31.1226C79.1958 31.1226 79.4002 31.0966 79.6034 31.0422L91.7466 27.7884Z" fill="white"/>
<path d="M89.3716 18.9251C90.6217 18.5902 91.3638 17.3049 91.0288 16.0545C90.6937 14.8043 89.4084 14.0618 88.1582 14.3972L76.015 17.651C74.7649 17.986 74.0228 19.2713 74.3577 20.5217C74.6383 21.5688 75.5852 22.2593 76.6202 22.2593C76.8208 22.2593 77.0252 22.2333 77.2284 22.1789L89.3716 18.9251Z" fill="white"/>
<path d="M65.0449 58.3391C64.4285 58.3391 63.8238 58.5899 63.3879 59.0258C62.952 59.4618 62.7012 60.0665 62.7012 60.6829C62.7012 61.2993 62.952 61.904 63.3879 62.3399C63.8238 62.7758 64.4285 63.0266 65.0449 63.0266C65.6637 63.0266 66.266 62.7758 66.702 62.3399C67.1402 61.904 67.3887 61.2993 67.3887 60.6829C67.3887 60.0665 67.1402 59.4618 66.702 59.0258C66.266 58.5899 65.6637 58.3391 65.0449 58.3391Z" fill="white"/>
</svg>
