<svg xmlns="http://www.w3.org/2000/svg" viewBox="0 0 12 9"><defs><style>.cls-1{fill:#fcb817;}</style></defs><g id="Layer_2" data-name="Layer 2"><g id="Layer_1-2" data-name="Layer 1"><path class="cls-1" d="M11.67.33a1.07,1.07,0,0,1,.33.79V7.88A1.13,1.13,0,0,1,10.88,9H1.12a1.07,1.07,0,0,1-.79-.33A1.07,1.07,0,0,1,0,7.88V1.12A1.07,1.07,0,0,1,.33.33,1.07,1.07,0,0,1,1.12,0h9.76A1.07,1.07,0,0,1,11.67.33ZM1.12,1.12v1L4.29,4.57l.21.19a5.91,5.91,0,0,0,.75.56,1.46,1.46,0,0,0,.75.3,1.46,1.46,0,0,0,.75-.3,5.91,5.91,0,0,0,.75-.56l.21-.19c1.56-1.2,2.62-2,3.17-2.48v-1Zm9.76,6.76V3.52L8.16,5.67a7.6,7.6,0,0,1-1,.71A2.48,2.48,0,0,1,6,6.75a2.58,2.58,0,0,1-1.22-.37c-.23-.15-.55-.38-1-.71L1.12,3.52V7.88Z"/></g></g></svg>