<svg width="123" height="122" viewBox="0 0 123 122" fill="none" xmlns="http://www.w3.org/2000/svg">
<path d="M61.2554 0C27.4253 0 0 27.4253 0 61.2554C0 91.597 22.0838 116.725 51.0392 121.591V74.0349H36.2626V56.9215H51.0392V44.3027C51.0392 29.6613 59.9817 21.6826 73.0448 21.6826C79.3012 21.6826 84.6778 22.1488 86.2386 22.3541V37.6583L77.1785 37.6627C70.0759 37.6627 68.7065 41.0371 68.7065 45.9907V56.9127H85.6541L83.4436 74.0261H68.7065V122C99.0138 118.311 122.51 92.5433 122.51 61.2378C122.51 27.4253 95.0847 0 61.2554 0Z" fill="white"/>
</svg>
