<svg width="120" height="120" viewBox="0 0 120 120" fill="none" xmlns="http://www.w3.org/2000/svg">
<circle cx="60" cy="60" r="60" fill="white"/>
<g clip-path="url(#clip0)">
<path d="M92.9354 46.4042C92.7808 42.8973 92.2137 40.4864 91.4013 38.3973C90.5633 36.1798 89.274 34.1945 87.5848 32.5441C85.9343 30.8679 83.9359 29.5655 81.7441 28.7406C79.6429 27.9282 77.2446 27.3611 73.7377 27.2065C70.2047 27.0388 69.0831 27 60.1224 27C51.1616 27 50.04 27.0388 46.5201 27.1934C43.0133 27.348 40.6024 27.9156 38.5138 28.7275C36.2958 29.5655 34.3104 30.8548 32.66 32.5441C30.9839 34.1945 29.682 36.1929 28.8565 38.3847C28.0441 40.4864 27.477 42.8842 27.3224 46.3911C27.1547 49.9241 27.1159 51.0457 27.1159 60.0064C27.1159 68.9672 27.1547 70.0888 27.3093 73.6087C27.464 77.1155 28.0316 79.5265 28.8439 81.6156C29.682 83.8331 30.9839 85.8184 32.66 87.4688C34.3104 89.1449 36.3088 90.4474 38.5007 91.2723C40.6024 92.0847 43.0002 92.6518 46.5075 92.8064C50.0269 92.9615 51.149 92.9998 60.1098 92.9998C69.0705 92.9998 70.1921 92.9615 73.712 92.8064C77.2189 92.6518 79.6298 92.0847 81.7184 91.2723C86.1539 89.5574 89.6608 86.0506 91.3756 81.6156C92.1875 79.5139 92.7551 77.1155 92.9097 73.6087C93.0643 70.0888 93.1031 68.9672 93.1031 60.0064C93.1031 51.0457 93.09 49.9241 92.9354 46.4042ZM86.992 73.3508C86.8499 76.5741 86.3085 78.3147 85.8573 79.4751C84.7483 82.3504 82.4663 84.6323 79.591 85.7414C78.4306 86.1926 76.6775 86.734 73.4668 86.8755C69.9856 87.0307 68.9416 87.0689 60.1355 87.0689C51.3294 87.0689 50.2722 87.0307 46.8037 86.8755C43.5804 86.734 41.8398 86.1926 40.6794 85.7414C39.2486 85.2125 37.9462 84.3745 36.889 83.2786C35.7931 82.2083 34.9551 80.919 34.4262 79.4882C33.975 78.3278 33.4336 76.5741 33.2921 73.3639C33.1369 69.8828 33.0987 68.8382 33.0987 60.0321C33.0987 51.226 33.1369 50.1689 33.2921 46.7008C33.4336 43.4775 33.975 41.737 34.4262 40.5766C34.9551 39.1452 35.7931 37.8433 36.9021 36.7857C37.9719 35.6898 39.2612 34.8517 40.6925 34.3234C41.8529 33.8721 43.6066 33.3307 46.8168 33.1887C50.2979 33.0341 51.3424 32.9953 60.1481 32.9953C68.9673 32.9953 70.0113 33.0341 73.4799 33.1887C76.7031 33.3307 78.4437 33.8721 79.6041 34.3234C81.0349 34.8517 82.3374 35.6898 83.3945 36.7857C84.4904 37.8559 85.3285 39.1452 85.8573 40.5766C86.3085 41.737 86.8499 43.4901 86.992 46.7008C87.1466 50.182 87.1854 51.226 87.1854 60.0321C87.1854 68.8382 87.1466 69.8697 86.992 73.3508Z" fill="black"/>
<path d="M60.1224 43.0519C50.7623 43.0519 43.1679 50.6458 43.1679 60.0064C43.1679 69.367 50.7623 76.9609 60.1224 76.9609C69.483 76.9609 77.0769 69.367 77.0769 60.0064C77.0769 50.6458 69.483 43.0519 60.1224 43.0519ZM60.1224 71.0044C54.05 71.0044 49.1244 66.0793 49.1244 60.0064C49.1244 53.9336 54.05 49.0085 60.1224 49.0085C66.1953 49.0085 71.1203 53.9336 71.1203 60.0064C71.1203 66.0793 66.1953 71.0044 60.1224 71.0044V71.0044Z" fill="black"/>
<path d="M81.7058 42.3816C81.7058 44.5674 79.9335 46.3397 77.7472 46.3397C75.5614 46.3397 73.7891 44.5674 73.7891 42.3816C73.7891 40.1953 75.5614 38.4235 77.7472 38.4235C79.9335 38.4235 81.7058 40.1953 81.7058 42.3816V42.3816Z" fill="black"/>
</g>
<defs>
<clipPath id="clip0">
<rect width="66" height="66" fill="white" transform="translate(27 27)"/>
</clipPath>
</defs>
</svg>
