<svg width="40" height="29" viewBox="0 0 40 29" fill="none" xmlns="http://www.w3.org/2000/svg">
<g clip-path="url(#clip0)">
<path d="M23.8854 28.3153V18.4047C23.8854 15.5211 22.9105 14.4591 20.9259 14.4591C18.7323 14.4591 17.7226 15.7252 17.7226 18.1388V28.3153H11.9427V18.172C11.9427 15.7854 11.0374 14.4591 9.05278 14.4591C6.78959 14.4591 5.77985 15.8519 5.77985 18.4047V28.3153H0V9.91849H5.39685V11.8699H5.46649C6.47622 10.1464 8.31526 9.28384 10.7937 9.28384C13.3006 9.28384 15.146 10.4772 16.3646 12.5663C17.7574 10.4772 19.8465 9.28384 22.4927 9.28384C26.8102 9.28384 29.6653 11.8034 29.6653 16.9407V28.3105L23.8854 28.3153Z" fill="white"/>
<path d="M33.3936 28.3153V9.91849H39.1702V28.3153H33.3936Z" fill="white"/>
<path d="M36.2808 7.43848C38.3348 7.43848 40 5.77332 40 3.71924C40 1.66516 38.3348 0 36.2808 0C34.2267 0 32.5615 1.66516 32.5615 3.71924C32.5615 5.77332 34.2267 7.43848 36.2808 7.43848Z" fill="#3381FE"/>
</g>
<defs>
<clipPath id="clip0">
<rect width="40" height="28.3153" fill="white"/>
</clipPath>
</defs>
</svg>
