<svg width="32" height="32" viewBox="0 0 32 32" fill="none" xmlns="http://www.w3.org/2000/svg">
<path d="M21.2785 15.3747L14.6338 10.5445C14.39 10.3677 14.0663 10.3411 13.799 10.4785C13.5296 10.6148 13.3613 10.8916 13.3613 11.1908V20.848C13.3613 21.1504 13.5296 21.4262 13.799 21.5625C13.9129 21.62 14.0375 21.6488 14.1632 21.6488C14.3272 21.6488 14.4933 21.5966 14.6338 21.4933L21.2785 16.6674C21.4883 16.513 21.6108 16.2745 21.6108 16.021C21.6118 15.7633 21.4862 15.5259 21.2785 15.3747Z" fill="white"/>
<path d="M16.0005 0.000976562C7.16222 0.000976562 0 7.1632 0 16.0015C0 24.8366 7.16222 31.9967 16.0005 31.9967C24.8367 31.9967 32 24.8356 32 16.0015C32.0011 7.1632 24.8367 0.000976562 16.0005 0.000976562ZM16.0005 29.3271C8.64024 29.3271 2.67279 23.3629 2.67279 16.0015C2.67279 8.64335 8.64024 2.67164 16.0005 2.67164C23.3598 2.67164 29.3261 8.64229 29.3261 16.0015C29.3272 23.3629 23.3598 29.3271 16.0005 29.3271Z" fill="white"/>
</svg>
