<?xml version="1.0" encoding="utf-8"?>
<!-- Generator: Adobe Illustrator 25.1.0, SVG Export Plug-In . SVG Version: 6.00 Build 0)  -->
<svg version="1.1" id="Layer_1" xmlns="http://www.w3.org/2000/svg" xmlns:xlink="http://www.w3.org/1999/xlink" x="0px" y="0px"
	 viewBox="0 0 360 78" style="enable-background:new 0 0 360 78;" xml:space="preserve">
<style type="text/css">
	.st0{fill-rule:evenodd;clip-rule:evenodd;fill:#FFFFFF;}
</style>
<g>
	<path class="st0" d="M134.2,37.2l-6.5-1.4c-3.3-0.7-5.1-2.7-5.1-5.7c0-3.8,3.3-6.6,7.8-6.6c6.1,0,7.9,4.5,8.4,5.9
		c0.1,0.5,0.4,0.9,0.9,1.1c0.4,0.2,0.9,0.2,1.3,0.1l3.4-1.2c0.9-0.3,1.3-1.2,1.1-2.1c-0.9-3.1-4.2-10.4-15.2-10.4
		c-8.2,0-15.1,6.3-15.1,13.7c0,6.4,4.2,11.1,11.2,12.6l6.2,1.4c3.8,0.8,6,3.1,6,6.1c0,3.9-3.2,6.3-8.3,6.3c-6,0-8.9-4-9.7-7.7
		c-0.2-0.9-1.1-1.5-2-1.4c-0.1,0-0.1,0-0.2,0.1l-3.8,1.2c-0.8,0.3-1.3,1.1-1.2,1.9c1.2,6.2,6.2,12.7,16.9,12.7
		c9,0,15.8-5.9,15.8-13.7C146,43.6,141.7,38.9,134.2,37.2 M172.9,43.2c0,0.1,0,0.2-0.1,0.3s-0.2,0.1-0.3,0.1h-13.9
		c-0.1,0-0.2-0.1-0.3-0.1c-0.1-0.1-0.1-0.2-0.1-0.3c0.6-2.9,3.1-5.8,7.2-5.8C169.5,37.4,172.3,39.6,172.9,43.2L172.9,43.2z
		 M165.4,30.9c-7.3,0-14.9,6.1-14.9,16.4c0,4.9,1.6,9.2,4.7,12.2c2.8,2.8,6.7,4.4,10.9,4.4c6.3,0,11.4-3.3,13.6-8.8
		c0.2-0.5,0.2-1,0-1.4s-0.6-0.8-1-0.9l-3.1-1.1c-0.8-0.3-1.8,0.1-2.1,0.9c-1.3,3.1-3.8,4.7-7.4,4.7c-4.3,0-7.6-2.9-8.2-7.2
		c0-0.1,0-0.2,0.1-0.3c0,0,0.1-0.1,0.3-0.1h20.3c0.9,0,1.7-0.7,1.7-1.6c0-0.3,0-0.6,0-0.9C180.4,37.1,174.7,30.9,165.4,30.9
		L165.4,30.9z M200,55.2c-4.9,0-7.9-3.4-7.9-8.8s3.1-8.8,7.9-8.8c4.6,0,7.8,3.5,7.8,8.8S204.6,55.2,200,55.2L200,55.2z M213,31.8
		h-3.7c-0.9,0-1.7,0.8-1.7,1.8c0,0.1-0.1,0.3-0.2,0.3c-0.1,0-0.2,0.1-0.3,0c-1.9-1.7-4.6-2.6-7.9-2.6c-8.3,0-14.3,6.4-14.3,15.1
		s6,15.1,14.3,15.1c3.1,0,5.9-1,7.8-2.8c0.1-0.1,0.3-0.1,0.3-0.1c0.1,0,0.2,0.1,0.2,0.3v1.3c0,6.1-2.7,8.9-8.4,8.9
		c-3.6,0-6.5-2.2-7.2-5.7c-0.1-0.5-0.4-0.8-0.8-1.1s-0.9-0.3-1.3-0.2l-3.6,0.8c-0.9,0.2-1.5,1.1-1.3,2.1c1.3,6.3,7,10.6,14.2,10.6
		c5.4,0,9.5-1.6,12.2-4.9c2.2-2.7,3.4-6.4,3.4-10.7V33.6C214.7,32.6,213.9,31.9,213,31.8L213,31.8z M256.6,31
		c-4.1,0-7.4,1.5-9.6,4.4c-0.1,0.1-0.2,0.2-0.3,0.2s-0.2-0.1-0.2-0.1c-1.8-2.8-5-4.5-8.7-4.5c-2.9,0-5.8,1-7.7,2.8
		c-0.1,0.1-0.3,0.1-0.4,0.1c-0.1-0.1-0.2-0.2-0.2-0.3c0-1-0.8-1.7-1.7-1.7h-3.5c-0.9,0-1.7,0.8-1.7,1.7v27.6c0,1,0.8,1.7,1.7,1.7
		h3.7c0.9,0,1.7-0.8,1.7-1.7V44.3c0-4.1,2.5-6.8,6.2-6.8c4.9,0,5.6,3.8,5.6,6.1v17.6c0,1,0.8,1.7,1.7,1.7h3.7c0.9,0,1.7-0.8,1.7-1.7
		V44.3c0-4,2.5-6.8,6.2-6.8c4.9,0,5.6,3.8,5.6,6.1v17.6c0,1,0.8,1.7,1.7,1.7h3.7c1,0,1.7-0.8,1.7-1.7V43C267.5,34.7,262,31,256.6,31
		 M281.4,43.7c-0.1,0-0.2-0.1-0.3-0.1c-0.1-0.1-0.1-0.2-0.1-0.3c0.6-2.9,3.1-5.8,7.2-5.8c4,0,6.8,2.2,7.4,5.8c0,0.1,0,0.2-0.1,0.3
		s-0.2,0.1-0.3,0.1H281.4L281.4,43.7z M288.2,30.9c-7.3,0-14.9,6.1-14.9,16.4c0,4.9,1.6,9.2,4.7,12.2c2.8,2.8,6.7,4.3,10.9,4.3
		c6.3,0,11.3-3.3,13.6-8.8c0.2-0.5,0.2-1,0-1.4s-0.6-0.8-1-0.9l-3.1-1.1c-0.9-0.3-1.8,0.1-2.1,0.9c-1.3,3.1-3.8,4.7-7.4,4.7
		c-4.3,0-7.6-2.9-8.2-7.2c0-0.1,0-0.2,0.1-0.3c0,0,0.1-0.1,0.3-0.1h20.3c0.9,0,1.7-0.7,1.7-1.6c0-0.3,0-0.6,0-0.9
		C303.2,37.1,297.4,30.9,288.2,30.9L288.2,30.9z M325,31c-3.1,0-5.8,1.1-7.9,3.1c-0.1,0.1-0.2,0.1-0.4,0.1c-0.1-0.1-0.2-0.2-0.2-0.3
		v-0.2c0-1-0.8-1.7-1.7-1.7h-3.6c-1,0-1.7,0.8-1.7,1.7v27.6c0,1,0.8,1.7,1.7,1.7h3.7c1,0,1.7-0.8,1.7-1.7V45.1
		c0-3.6,1.6-7.5,6.2-7.5c4.1,0,6.2,2.3,6.2,6.8v16.8c0,1,0.8,1.7,1.7,1.7h3.7c1,0,1.7-0.8,1.7-1.7V43.4C336.3,35.8,332,31,325,31
		 M353.7,38.5h4.4c1,0,1.7-0.8,1.7-1.7v-3.2c0-1-0.8-1.7-1.7-1.7h-4.4c-0.2,0-0.4-0.2-0.4-0.3l0,0v-7.3c0-1-0.8-1.7-1.7-1.7h-3.2
		c-1,0-1.7,0.8-1.7,1.7V28c0,1.8-0.7,3.9-3.9,3.9h-0.6c-1,0-1.7,0.8-1.7,1.7v3.2c0,1,0.8,1.7,1.7,1.7h3.6c0.2,0,0.4,0.2,0.4,0.3
		v15.3c0,5.6,3.4,9.1,9,9.1c1.5,0,2.7-0.2,3.3-0.3c0.8-0.2,1.3-0.9,1.3-1.7v-2.9c0-1-0.8-1.7-1.7-1.7c-0.1,0-0.1,0-0.2,0
		c-0.4,0-0.8,0.1-1.1,0.1c-2.5,0-3.5-0.9-3.5-3.4V38.8C353.4,38.6,353.5,38.5,353.7,38.5"/>
	<g transform="translate(0 45)">
		<path class="st0" d="M52.1,8.2H4.2c-2.2,0-4-1.8-4-4s1.8-4,4-4h47.9c2.2,0,4,1.8,4,4S54.4,8.2,52.1,8.2"/>
		<path class="st0" d="M41.9,32.7c-3.9,0-7.8-0.6-11.5-1.7c-2.1-0.7-3.3-2.9-2.6-5c0.7-2.1,2.9-3.3,5-2.6c2.9,0.9,6,1.4,9.1,1.4
			C55.4,24.7,67.2,16,71.2,3c0.6-2.1,2.9-3.3,5-2.7l0,0c2.1,0.6,3.3,2.9,2.7,5C73.8,21.7,59,32.7,41.9,32.7"/>
	</g>
	<path class="st0" d="M79.5,32.8H31.6c-2.2,0-4-1.8-4-4s1.8-4,4-4h47.9c2.2,0,4,1.8,4,4S81.7,32.8,79.5,32.8"/>
	<path class="st0" d="M8.7,32.8c-2.2,0-4-1.8-4-4c0-0.4,0.1-0.8,0.2-1.2c5-16.3,19.9-27.3,37-27.3c3.9,0,7.8,0.6,11.5,1.7
		c2.1,0.7,3.3,2.9,2.6,5l0,0c-0.7,2.1-2.9,3.3-5,2.6l0,0c-2.9-0.9-6-1.4-9.1-1.4c-13.6,0-25.4,8.7-29.3,21.7
		C12,31.7,10.5,32.9,8.7,32.8"/>
	<path class="st0" d="M69.6,13.6c0,2.2-1.8,4-4,4c-2.2,0-4-1.8-4-4s1.8-4,4-4C67.8,9.6,69.6,11.4,69.6,13.6 M22.1,64.4
		c0,2.2-1.8,4-4,4s-4-1.8-4-4c0-2.2,1.8-4,4-4S22.1,62.2,22.1,64.4"/>
</g>
</svg>
