<svg width="120" height="24" viewBox="0 0 120 24" fill="none" xmlns="http://www.w3.org/2000/svg">
<path d="M12 17.5196L16.15 20.0296C16.91 20.4896 17.84 19.8096 17.64 18.9496L16.54 14.2296L20.21 11.0496C20.88 10.4696 20.52 9.36964 19.64 9.29964L14.81 8.88964L12.92 4.42964C12.58 3.61964 11.42 3.61964 11.08 4.42964L9.19001 8.87964L4.36001 9.28964C3.48001 9.35964 3.12001 10.4596 3.79001 11.0396L7.46001 14.2196L6.36001 18.9396C6.16001 19.7996 7.09001 20.4796 7.85001 20.0196L12 17.5196Z" fill="#FFBB00"/>
<path d="M84 17.5196L88.15 20.0296C88.91 20.4896 89.84 19.8096 89.64 18.9496L88.54 14.2296L92.21 11.0496C92.88 10.4696 92.52 9.36964 91.64 9.29964L86.81 8.88964L84.92 4.42964C84.58 3.61964 83.42 3.61964 83.08 4.42964L81.19 8.87964L76.36 9.28964C75.48 9.35964 75.12 10.4596 75.79 11.0396L79.46 14.2196L78.36 18.9396C78.16 19.7996 79.09 20.4796 79.85 20.0196L84 17.5196Z" fill="#FFBB00"/>
<path d="M60 17.5196L64.15 20.0296C64.91 20.4896 65.84 19.8096 65.64 18.9496L64.54 14.2296L68.21 11.0496C68.88 10.4696 68.52 9.36964 67.64 9.29964L62.81 8.88964L60.92 4.42964C60.58 3.61964 59.42 3.61964 59.08 4.42964L57.19 8.87964L52.36 9.28964C51.48 9.35964 51.12 10.4596 51.79 11.0396L55.46 14.2196L54.36 18.9396C54.16 19.7996 55.09 20.4796 55.85 20.0196L60 17.5196Z" fill="#FFBB00"/>
<path d="M36 17.5196L40.15 20.0296C40.91 20.4896 41.84 19.8096 41.64 18.9496L40.54 14.2296L44.21 11.0496C44.88 10.4696 44.52 9.36964 43.64 9.29964L38.81 8.88964L36.92 4.42964C36.58 3.61964 35.42 3.61964 35.08 4.42964L33.19 8.87964L28.36 9.28964C27.48 9.35964 27.12 10.4596 27.79 11.0396L31.46 14.2196L30.36 18.9396C30.16 19.7996 31.09 20.4796 31.85 20.0196L36 17.5196Z" fill="#FFBB00"/>
<path d="M108 17.5196L112.15 20.0296C112.91 20.4896 113.84 19.8096 113.64 18.9496L112.54 14.2296L116.21 11.0496C116.88 10.4696 116.52 9.36964 115.64 9.29964L110.81 8.88964L108.92 4.42964C108.58 3.61964 107.42 3.61964 107.08 4.42964L105.19 8.87964L100.36 9.28964C99.48 9.35964 99.12 10.4596 99.79 11.0396L103.46 14.2196L102.36 18.9396C102.16 19.7996 103.09 20.4796 103.85 20.0196L108 17.5196Z" fill="#FFBB00"/>
</svg>
