<svg width="40" height="40" viewBox="0 0 40 40" fill="none" xmlns="http://www.w3.org/2000/svg">
<path d="M8.68144 21.6666H27.2981L19.1648 29.8C18.5148 30.45 18.5148 31.5166 19.1648 32.1666C19.8148 32.8166 20.8648 32.8166 21.5148 32.1666L32.4981 21.1833C33.1481 20.5333 33.1481 19.4833 32.4981 18.8333L21.5314 7.8333C21.2201 7.52121 20.7973 7.34583 20.3564 7.34583C19.9156 7.34583 19.4928 7.52121 19.1814 7.8333C18.5314 8.4833 18.5314 9.5333 19.1814 10.1833L27.2981 18.3333H8.68144C7.76477 18.3333 7.01477 19.0833 7.01477 20C7.01477 20.9166 7.76477 21.6666 8.68144 21.6666Z" fill="#2F80ED"/>
</svg>
