<svg width="40" height="40" viewBox="0 0 40 40" fill="none" xmlns="http://www.w3.org/2000/svg">
<path d="M31.3186 21.6666H12.7019L20.8352 29.8C21.4852 30.45 21.4852 31.5166 20.8352 32.1666C20.1852 32.8166 19.1352 32.8166 18.4852 32.1666L7.5019 21.1833C6.8519 20.5333 6.8519 19.4833 7.5019 18.8333L18.4686 7.8333C18.7799 7.52121 19.2027 7.34583 19.6436 7.34583C20.0844 7.34583 20.5072 7.52121 20.8186 7.8333C21.4686 8.4833 21.4686 9.5333 20.8186 10.1833L12.7019 18.3333H31.3186C32.2352 18.3333 32.9852 19.0833 32.9852 20C32.9852 20.9166 32.2352 21.6666 31.3186 21.6666Z" fill="#2F80ED"/>
</svg>
